<svg width="146" height="135" viewBox="0 0 146 135" fill="none" xmlns="http://www.w3.org/2000/svg">
<path d="M0 33.6143C0 15.0496 15.0496 0 33.6143 0H111.611C130.175 0 145.225 15.0496 145.225 33.6143V100.817C145.225 119.381 130.175 134.431 111.611 134.431H33.6143C15.0496 134.431 0 119.381 0 100.817V33.6143Z" fill="white"/>
<path d="M22.7301 78.0867C22.7303 71.2885 29.024 66.2378 35.6612 67.7092L67.3352 74.7306C72.2014 75.8094 77.2498 75.7627 82.095 74.5933L109.427 67.996C116.086 66.3891 122.495 71.4353 122.495 78.2854C122.495 83.1741 119.146 87.4268 114.394 88.5739L85.5841 95.527C78.4433 97.2506 71.0032 97.32 63.8314 95.73L31.0594 88.465C26.1933 87.3862 22.7301 83.071 22.7301 78.0867Z" fill="#FFA900"/>
<path d="M94.8532 37.6312C101.566 37.6312 107.008 43.0731 107.008 49.7857C107.008 54.9944 99.6894 59.4379 96.4102 61.1675C95.4301 61.6844 94.2764 61.6844 93.2964 61.1675C90.0173 59.4378 82.6997 54.9942 82.6997 49.7857C82.6998 43.0732 88.1408 37.6314 94.8532 37.6312Z" fill="black"/>
<path d="M49.559 37.6312C42.8464 37.6312 37.4047 43.0732 37.4046 49.7858C37.4046 54.9945 44.7229 59.4379 48.0021 61.1675C48.9821 61.6844 50.1359 61.6844 51.1159 61.1675C54.3949 59.4378 61.7125 54.9944 61.7125 49.7858C61.7125 43.0733 56.2715 37.6314 49.559 37.6312Z" fill="#FFA900"/>
</svg>
