<svg width="265" height="203" viewBox="0 0 265 203" fill="none" xmlns="http://www.w3.org/2000/svg">
<g filter="url(#filter0_g_8_461)">
<path d="M57.1282 126.787C57.1282 114.853 49.6369 107.467 42.9142 107.467C36.1914 107.467 28.7002 114.853 28.7002 126.787C28.7002 138.721 36.1914 146.108 42.9142 146.108V151.694C31.9786 151.694 23.1135 140.543 23.1135 126.787C23.1135 113.031 31.9786 101.88 42.9142 101.88C53.8498 101.88 62.7148 113.031 62.7148 126.787C62.7148 140.543 53.8498 151.694 42.9142 151.694V146.108C49.6369 146.108 57.1282 138.721 57.1282 126.787Z" fill="url(#paint0_linear_8_461)"/>
<path d="M45.7402 103.551C45.7402 106.481 43.3652 108.856 40.4354 108.856C37.5057 108.856 35.1307 106.481 35.1307 103.551C35.1307 100.621 37.5057 98.2463 40.4354 98.2463C43.3652 98.2463 45.7402 100.621 45.7402 103.551Z" fill="url(#paint1_linear_8_461)"/>
<path d="M42.9146 68.9127C42.9146 55.5425 53.7533 44.7038 67.1235 44.7038H202.76C216.13 44.7038 226.969 55.5425 226.969 68.9127V176.238C226.969 189.608 216.13 200.447 202.76 200.447H67.1235C53.7533 200.447 42.9146 189.608 42.9146 176.238V68.9127Z" fill="#00F7FF"/>
<path d="M97.6387 89.5936C97.6387 101.963 87.611 111.991 75.2412 111.991C62.8713 111.991 52.8436 101.963 52.8436 89.5936C52.8436 77.2237 62.8713 67.196 75.2412 67.196C87.611 67.196 97.6387 77.2237 97.6387 89.5936Z" fill="white"/>
<path d="M89.7099 89.5936C89.7099 97.5844 83.232 104.062 75.2412 104.062C67.2503 104.062 60.7725 97.5844 60.7725 89.5936C60.7725 81.6027 67.2503 75.1248 75.2412 75.1248C83.232 75.1248 89.7099 81.6027 89.7099 89.5936Z" fill="#1F1F1F"/>
<path d="M75.2412 81.2667L77.4902 87.3446L83.568 89.5936L77.4902 91.8425L75.2412 97.9204L72.9922 91.8425L66.9143 89.5936L72.9922 87.3446L75.2412 81.2667Z" fill="white"/>
<path d="M159.208 89.5936C159.208 101.963 149.181 111.991 136.811 111.991C124.441 111.991 114.413 101.963 114.413 89.5936C114.413 77.2237 124.441 67.196 136.811 67.196C149.181 67.196 159.208 77.2237 159.208 89.5936Z" fill="white"/>
<path d="M151.28 89.5936C151.28 97.5844 144.802 104.062 136.811 104.062C128.82 104.062 122.342 97.5844 122.342 89.5936C122.342 81.6027 128.82 75.1248 136.811 75.1248C144.802 75.1248 151.28 81.6027 151.28 89.5936Z" fill="#1F1F1F"/>
<path d="M136.811 81.2667L139.06 87.3446L145.138 89.5936L139.06 91.8425L136.811 97.9204L134.562 91.8425L128.484 89.5936L134.562 87.3446L136.811 81.2667Z" fill="white"/>
<path d="M112.331 140.864C91.9365 141.866 72.1774 133.348 63.9845 129.523C60.4664 128.388 58.2531 128.119 59.615 132.331C60.7045 135.701 66.8406 141.585 69.7724 144.105C87.1366 157.12 105.786 157.716 112.729 157.12C142.861 154.534 156.02 136.619 158.011 133.735C160.622 129.955 158.633 128.093 154.992 129.304C151.35 130.516 137.825 139.611 112.331 140.864Z" fill="white"/>
<path d="M210.034 132.363C210.034 120.429 202.543 113.042 195.82 113.042C189.097 113.042 181.606 120.429 181.606 132.363C181.606 144.297 189.097 151.683 195.82 151.683V157.27C184.884 157.27 176.019 146.119 176.019 132.363C176.019 118.607 184.884 107.456 195.82 107.456C206.756 107.456 215.621 118.607 215.621 132.363C215.621 146.119 206.756 157.27 195.82 157.27V151.683C202.543 151.683 210.034 144.297 210.034 132.363Z" fill="url(#paint2_linear_8_461)"/>
<path d="M202.007 110.585C202.007 113.515 199.632 115.89 196.702 115.89C193.772 115.89 191.397 113.515 191.397 110.585C191.397 107.656 193.772 105.281 196.702 105.281C199.632 105.281 202.007 107.656 202.007 110.585Z" fill="url(#paint3_linear_8_461)"/>
<path d="M200.493 99.3069C198.446 98.917 196.37 98.3962 194.274 97.7601C193.507 96.4501 192.782 95.1269 192.099 93.7987C195.029 96.4376 198.082 98.2737 200.493 99.3069ZM182.766 64.407C179.712 78.1508 185.603 87.948 192.099 93.7987C186.444 82.8052 183.627 71.4662 182.766 64.407Z" fill="#1F1F1F"/>
<path d="M45.6728 73.487C45.6788 73.4275 45.6823 73.3715 45.6834 73.3191L45.6728 73.487Z" fill="#1F1F1F"/>
<path d="M45.6728 73.487C45.6788 73.4275 45.6823 73.3715 45.6834 73.3191L45.6728 73.487ZM182.766 64.407C179.712 78.1508 185.603 87.948 192.099 93.7987C186.444 82.8052 183.627 71.4662 182.766 64.407Z" fill="#1F1F1F"/>
<path d="M218.017 120.912C207.507 115.885 199.784 107.163 194.274 97.7601C196.37 98.3962 198.446 98.917 200.493 99.3069C198.082 98.2737 195.029 96.4376 192.099 93.7987C186.444 82.8052 183.627 71.4662 182.766 64.407C179.712 78.1508 185.603 87.948 192.099 93.7987C192.782 95.1269 193.507 96.4501 194.274 97.7601C167.787 89.7197 138.223 63.2646 125.989 50.1263C115.417 71.7778 85.8476 79.7749 72.3841 81.067C68.1759 95.6251 53.5704 117.652 46.7937 126.846C52.253 117.974 51.5327 104.098 50.4901 98.2695C47.9721 104.488 41.789 111.222 33.962 117.774C18.4555 130.756 14.4939 133.808 1.7998 139.949C23.3378 121.018 45.6834 100.199 45.6728 73.487C45.6788 73.4275 45.6823 73.3715 45.6834 73.3191L45.6728 73.487C45.4115 76.0636 52.3191 88.6054 14.6116 118.961C37.1413 70.3445 32.7999 75.3857 31.391 67.378C30.1882 60.5413 28.9536 53.5245 32.4239 39.1194C38.4519 14.0975 65.3598 5.56667 78.0603 4.42895C100.453 -1.30717 127.032 3.93958 161.77 5.23498C171.803 5.60912 179.375 5.89147 182.766 5.85961C194.872 5.74587 215.539 13.7729 224.36 17.8006C241.761 23.9423 240.046 76.6587 237.013 102.249C244.86 121.471 257.343 131.868 262.603 134.664C236.899 132.162 222.169 124.453 218.017 120.912Z" fill="#1F1F1F"/>
</g>
<defs>
<filter id="filter0_g_8_461" x="-0.000195265" y="-1.21593e-05" width="264.403" height="202.247" filterUnits="userSpaceOnUse" color-interpolation-filters="sRGB">
<feFlood flood-opacity="0" result="BackgroundImageFix"/>
<feBlend mode="normal" in="SourceGraphic" in2="BackgroundImageFix" result="shape"/>
<feTurbulence type="fractalNoise" baseFrequency="0.40000000596046448 0.40000000596046448" numOctaves="3" seed="4640" />
<feDisplacementMap in="shape" scale="3.5999999046325684" xChannelSelector="R" yChannelSelector="G" result="displacedImage" width="100%" height="100%" />
<feMerge result="effect1_texture_8_461">
<feMergeNode in="displacedImage"/>
</feMerge>
</filter>
<linearGradient id="paint0_linear_8_461" x1="132.201" y1="1.79999" x2="132.201" y2="200.447" gradientUnits="userSpaceOnUse">
<stop stop-color="#FF9D00"/>
<stop offset="0.403904" stop-color="#FF9D00"/>
<stop offset="0.663527" stop-color="#855200"/>
<stop offset="0.831802" stop-color="#FF9D00"/>
<stop offset="1" stop-color="#995E00"/>
</linearGradient>
<linearGradient id="paint1_linear_8_461" x1="132.201" y1="1.79999" x2="132.201" y2="200.447" gradientUnits="userSpaceOnUse">
<stop stop-color="white"/>
<stop offset="0.29" stop-color="white" stop-opacity="0.88"/>
<stop offset="0.567371" stop-color="#D2D2D2"/>
<stop offset="0.807762" stop-color="white"/>
<stop offset="1" stop-color="#999999"/>
</linearGradient>
<linearGradient id="paint2_linear_8_461" x1="132.201" y1="1.79999" x2="132.201" y2="200.447" gradientUnits="userSpaceOnUse">
<stop stop-color="#FF9D00"/>
<stop offset="0.403904" stop-color="#FF9D00"/>
<stop offset="0.663527" stop-color="#855200"/>
<stop offset="0.831802" stop-color="#FF9D00"/>
<stop offset="1" stop-color="#995E00"/>
</linearGradient>
<linearGradient id="paint3_linear_8_461" x1="132.201" y1="1.79999" x2="132.201" y2="200.447" gradientUnits="userSpaceOnUse">
<stop stop-color="white"/>
<stop offset="0.29" stop-color="white" stop-opacity="0.88"/>
<stop offset="0.567371" stop-color="#D2D2D2"/>
<stop offset="0.807762" stop-color="white"/>
<stop offset="1" stop-color="#999999"/>
</linearGradient>
</defs>
</svg>
