<svg width="525" height="534" viewBox="0 0 525 534" fill="none" xmlns="http://www.w3.org/2000/svg">
<path fill-rule="evenodd" clip-rule="evenodd" d="M26.7111 270.973C46.3718 245.819 99.0508 211.992 152.481 277.912H129.291C126.156 333.758 122.4 451.327 132.461 474.837L156.868 478.17C156.657 485.3 152.24 501.843 136.265 510.972C125.488 520.587 92.0161 534.364 44.3439 512.557C34.2008 510.127 12.9639 490.686 9.16024 432.363C7.15276 399.187 4.34229 328.334 9.16024 310.33C13.9782 292.326 22.8683 276.59 26.7111 270.973Z" fill="#FF0004"/>
<path fill-rule="evenodd" clip-rule="evenodd" d="M129.291 277.912H152.481C157.396 259.986 174.165 216.328 201.921 185.103C229.677 153.877 228.521 123.52 224.473 112.244C212.041 64.249 209.554 -22.2006 299.068 15.964C314.102 21.1689 345.039 47.7118 348.508 112.244C347.063 132.771 343.304 176.081 339.834 185.103C335.787 187.127 334.457 191.522 361.519 192.91C393.612 195.801 460.4 202.624 470.808 206.788C491.336 209.968 528.576 231.248 513.31 290.923C508.247 294.411 498.559 298.994 484.484 302.882C478.825 302.665 473.939 304.266 470.808 306.112L386.673 309.138C421.394 312.576 449.601 310.337 470.808 306.112C475.749 305.127 480.309 304.035 484.484 302.882C493.457 303.226 504.373 308.138 513.31 323.884C518.225 335.449 523.198 363.783 503.769 384.6C498.053 387.007 488.729 389.997 476.728 392.53C474.566 392.75 472.549 393.172 470.808 393.699C448.686 397.771 419.044 399.989 386.673 395.009C400.551 397.605 436.807 400.977 470.808 393.699C472.846 393.324 474.821 392.933 476.728 392.53C488.207 391.364 503.769 395.92 503.769 421.03C504.551 431.062 499.732 453.874 474.195 464.869C480.697 469.155 490.51 481.805 477.741 498.121C474.49 506.249 458.5 522.948 420.549 524.722C417.87 524.847 415.015 524.991 411.996 525.142L411.965 525.144C361.517 527.681 265.531 532.507 186.903 492.357C183.303 490.879 173.741 485.973 164.292 478.17H156.868L132.461 474.837C122.4 451.327 126.156 333.758 129.291 277.912Z" fill="#FFAD0D"/>
<path d="M152.481 277.912C99.0508 211.992 46.3718 245.819 26.7111 270.973C22.8683 276.59 13.9782 292.326 9.16024 310.33C4.34229 328.334 7.15276 399.187 9.16024 432.363C12.9639 490.686 34.2008 510.127 44.3439 512.557C92.0161 534.364 125.488 520.587 136.265 510.972C152.24 501.843 156.657 485.3 156.868 478.17M152.481 277.912H129.291C126.156 333.758 122.4 451.327 132.461 474.837L156.868 478.17M152.481 277.912C157.396 259.986 174.165 216.328 201.921 185.103C229.677 153.877 228.521 123.52 224.473 112.244C212.041 64.249 209.554 -22.2006 299.068 15.964C314.102 21.1689 345.039 47.7118 348.508 112.244C347.063 132.771 343.304 176.081 339.834 185.103C335.787 187.127 334.457 191.522 361.519 192.91C393.612 195.801 460.4 202.624 470.808 206.788C491.336 209.968 528.576 231.248 513.31 290.923C508.247 294.411 498.559 298.994 484.484 302.882M156.868 478.17H164.292C173.741 485.973 183.303 490.879 186.903 492.357C265.531 532.507 361.517 527.681 411.965 525.144L411.996 525.142C415.015 524.991 417.87 524.847 420.549 524.722C458.5 522.948 474.49 506.249 477.741 498.121C490.51 481.805 480.697 469.155 474.195 464.869M484.484 302.882C478.825 302.665 473.939 304.266 470.808 306.112M484.484 302.882C480.309 304.035 475.749 305.127 470.808 306.112M484.484 302.882C493.457 303.226 504.373 308.138 513.31 323.884C518.225 335.449 523.198 363.783 503.769 384.6C498.053 387.007 488.729 389.997 476.728 392.53M470.808 306.112L386.673 309.138C421.394 312.576 449.601 310.337 470.808 306.112ZM476.728 392.53C474.566 392.75 472.549 393.172 470.808 393.699M476.728 392.53C474.821 392.933 472.846 393.324 470.808 393.699M476.728 392.53C488.207 391.364 503.769 395.92 503.769 421.03C504.551 431.062 499.732 453.874 474.195 464.869M470.808 393.699C448.686 397.771 419.044 399.989 386.673 395.009C400.551 397.605 436.807 400.977 470.808 393.699ZM474.195 464.869L381.978 468.416" stroke="#1F1F1F" stroke-width="13"/>
<circle cx="72.3491" cy="444.46" r="36.0581" fill="#FFAD0D" stroke="#1F1F1F" stroke-width="10"/>
<ellipse opacity="0.46" cx="283.337" cy="53.4034" rx="17.1165" ry="28.7555" transform="rotate(-38.8853 283.337 53.4034)" fill="white"/>
<ellipse opacity="0.46" cx="70.1466" cy="439.039" rx="7.9722" ry="13.3932" transform="rotate(-38.8853 70.1466 439.039)" fill="white"/>
<g style="mix-blend-mode:overlay">
<path d="M156.866 287.491H134.805L124.624 319.732L134.805 470.761L192.501 491.124L253.591 514.881L368.984 531.851L464.013 514.881L482.679 491.124C493.427 471.326 488.449 439.537 382.559 470.761C276.67 501.984 187.976 457.751 156.866 431.731V287.491Z" fill="#1F1F1F"/>
</g>
</svg>
