<svg width="793" height="647" viewBox="0 0 793 647" fill="none" xmlns="http://www.w3.org/2000/svg">
<path d="M458.312 640.269C449.833 640.663 442.26 640.424 435.944 639.759L422.363 583.365L397.478 480.038C380.572 479.247 378.453 474.093 364.114 465.08C349.499 455.893 328.447 415.668 319.748 396.704C319.33 389.605 303.219 362.082 295.216 349.207C284.777 337.516 246.327 281.701 228.406 255.255C219.22 203.894 248.24 209.149 263.899 218.196L337.676 307.585C337.683 307.572 337.691 307.558 337.698 307.545L253.982 155.562C247.197 121.635 263.899 121.635 267.031 118.504C284.568 111.405 297.304 124.593 301.48 132.074L374.782 267.056L310.353 83.0109C306.177 59.2099 318.356 49.0842 324.968 46.9965C345.428 35.7219 359.938 55.5215 364.636 66.8307L428.836 240.994L402.216 74.6601C414.743 34.9917 442.233 49.0847 454.412 61.0898L490.948 230.202L494.602 249.514C495.472 242.033 498.256 220.911 502.431 196.275C506.607 171.639 532.705 151.213 545.232 144.08C586.153 131.136 586.988 156.433 582.29 170.699C576.027 179.573 562.456 234.899 561.412 249.514C560.577 261.206 565.588 301.013 568.197 319.456C572.791 358.289 556.648 401.165 548.003 417.749L596.431 495.929L623.413 539.485C590.913 597.761 539.868 624.348 496.543 634.751C484.496 637.816 471.738 639.767 458.312 640.269Z" fill="#FFAD0D"/>
<path d="M435.944 639.759C477.362 644.119 572.84 630.168 623.413 539.485M435.944 639.759L422.363 583.365M435.944 639.759C534.825 647.895 602.123 576.3 623.413 539.485M623.413 539.485L596.431 495.929M548.003 417.749L530.617 432.197M548.003 417.749C556.648 401.165 572.791 358.289 568.197 319.456C565.588 301.013 560.577 261.206 561.412 249.514C562.456 234.899 576.027 179.573 582.29 170.699C586.988 156.433 586.153 131.136 545.232 144.08C532.705 151.213 506.607 171.639 502.431 196.275C498.256 220.911 495.472 242.033 494.602 249.514M548.003 417.749L596.431 495.929M494.602 249.514C472.506 263.955 428.419 304.111 428.836 349.207C428.488 330.765 441.154 285.006 494.602 249.514ZM494.602 249.514L490.948 230.202M490.948 230.202C445.191 232.116 348.769 254.734 329.143 329.895C332.23 313.71 345.339 288.279 374.782 267.056M490.948 230.202L454.412 61.0898C442.233 49.0847 414.743 34.9917 402.216 74.6601L428.836 240.994M490.948 230.202C467.185 231.746 446.598 235.594 428.836 240.994M428.836 240.994L364.636 66.8307C359.938 55.5215 345.428 35.7219 324.968 46.9965C318.356 49.0842 306.177 59.2099 310.353 83.0109L374.782 267.056M428.836 240.994C406.633 247.744 388.845 256.92 374.782 267.056M374.782 267.056L301.48 132.074C297.304 124.593 284.568 111.405 267.031 118.504C263.899 121.635 247.197 121.635 253.982 155.562L337.81 307.747L263.899 218.196C248.24 209.149 219.22 203.894 228.406 255.255C246.327 281.701 284.777 337.516 295.216 349.207C303.219 362.082 319.33 389.605 319.748 396.704C328.447 415.668 349.499 455.893 364.114 465.08C378.453 474.093 380.572 479.247 397.478 480.038M397.478 480.038C402.111 480.254 407.855 480.143 415.265 479.694L397.478 480.038ZM397.478 480.038L422.363 583.365M422.363 583.365C463.505 571.736 555.918 537.968 596.431 495.929" stroke="#1F1F1F" stroke-width="13" stroke-linecap="round" stroke-linejoin="round"/>
<g style="mix-blend-mode:soft-light">
<path d="M553.077 426.718L618.856 530.581C622.113 535.723 622.036 542.301 618.66 547.366C611.871 557.549 596.491 556.13 591.68 544.876L553.722 456.08C541.337 427.109 551.043 389.86 551.969 358.366C553.034 322.147 539.505 281.374 540.724 278.528C542.05 275.435 556.76 205.032 566.546 157.665C568.05 150.381 577.266 148.012 582.106 153.659C584.092 155.976 584.76 159.145 583.878 162.066L575.25 190.647L568.206 222.022C563.722 241.999 562.331 262.546 564.083 282.945L568.643 336.037C569.689 348.209 568.253 360.467 564.422 372.068L550.1 415.444C548.958 418.902 549.729 422.707 552.127 425.447C552.476 425.846 552.793 426.271 553.077 426.718Z" fill="white"/>
</g>
<ellipse opacity="0.46" cx="541.395" cy="173.591" rx="8.74608" ry="14.6933" transform="rotate(43.1197 541.395 173.591)" fill="white"/>
<path d="M758.189 173.591C781.501 199.701 809.942 271.782 737.208 351.229" stroke="#FFAD0D" stroke-width="18" stroke-linecap="round"/>
<path d="M693.758 214.155C703.67 225.256 715.763 255.905 684.837 289.685" stroke="#FFAD0D" stroke-width="18" stroke-linecap="round"/>
<path d="M99.884 11.0623C67.5734 24.5231 10.7583 77.2165 41.9825 180.304" stroke="#FFAD0D" stroke-width="18" stroke-linecap="round"/>
<path d="M140.437 75.4997C126.699 81.2231 102.541 103.628 115.818 147.46" stroke="#FFAD0D" stroke-width="18" stroke-linecap="round"/>
</svg>
