<svg width="212" height="253" viewBox="0 0 212 253" fill="none" xmlns="http://www.w3.org/2000/svg">
<g filter="url(#filter0_g_8_502)">
<path d="M120.344 100.225H86.0513C88.5986 95.7595 91.0165 88.6722 91.8974 79.5927C86.9911 57.51 54.168 36.1892 38.3697 28.2892C66.9212 28.2892 85.1497 46.8189 90.6951 56.0837C87.7019 40.2488 79.971 21.6354 64.0238 1.80005C72.8359 6.82722 88.4527 21.1059 101.692 46.2315C101.236 45.3724 100.261 38.048 117.827 31.3562C113.53 38.2484 105.7 53.8961 108.757 61.3489C110.209 64.8707 111.601 68.5546 112.919 72.4033C110.468 64.2044 117.667 39.944 166.071 8.49277C150.735 21.2251 121.403 57.3967 126.757 100.225H120.344Z" fill="#1F1F1F"/>
<path d="M1.7998 101.816C1.7998 86.698 14.0555 74.4422 29.1738 74.4422H182.544C197.662 74.4422 209.918 86.698 209.918 101.816V223.173C209.918 238.291 197.662 250.547 182.544 250.547H29.1738C14.0556 250.547 1.7998 238.291 1.7998 223.173V101.816Z" fill="url(#paint0_radial_8_502)"/>
<path d="M98.4724 133.463C98.4724 147.45 87.1336 158.789 73.1465 158.789C59.1594 158.789 47.8206 147.45 47.8206 133.463C47.8206 119.476 59.1594 108.137 73.1465 108.137C87.1336 108.137 98.4724 119.476 98.4724 133.463Z" fill="white"/>
<path d="M89.5068 133.463C89.5068 142.499 82.1821 149.824 73.1465 149.824C64.1109 149.824 56.7861 142.499 56.7861 133.463C56.7861 124.428 64.1109 117.103 73.1465 117.103C82.1821 117.103 89.5068 124.428 89.5068 133.463Z" fill="#1F1F1F"/>
<path d="M73.1465 124.048L75.6895 130.92L82.562 133.463L75.6895 136.006L73.1465 142.879L70.6035 136.006L63.731 133.463L70.6035 130.92L73.1465 124.048Z" fill="white"/>
<path d="M168.092 133.463C168.092 147.45 156.753 158.789 142.766 158.789C128.779 158.789 117.44 147.45 117.44 133.463C117.44 119.476 128.779 108.137 142.766 108.137C156.753 108.137 168.092 119.476 168.092 133.463Z" fill="white"/>
<path d="M159.126 133.463C159.126 142.499 151.801 149.824 142.766 149.824C133.73 149.824 126.406 142.499 126.406 133.463C126.406 124.428 133.73 117.103 142.766 117.103C151.801 117.103 159.126 124.428 159.126 133.463Z" fill="#1F1F1F"/>
<path d="M142.766 124.048L145.309 130.92L152.181 133.463L145.309 136.006L142.766 142.879L140.223 136.006L133.35 133.463L140.223 130.92L142.766 124.048Z" fill="white"/>
<path d="M92.1713 185.75C92.7301 182.76 95.3396 180.593 98.3808 180.593H112.72C115.667 180.593 118.222 182.631 118.878 185.504L125.613 214.983C126.516 218.938 123.511 222.707 119.454 222.707H92.8706C88.9167 222.707 85.9346 219.116 86.6611 215.229L92.1713 185.75Z" fill="white"/>
<path d="M120.263 186.539C119.595 183.455 121.305 180.351 124.269 179.268L139.43 173.729C142.198 172.718 145.297 173.755 146.899 176.228L163.341 201.606C165.547 205.011 164.018 209.582 160.208 210.974L134.901 220.22C131.302 221.535 127.37 219.369 126.559 215.624L120.263 186.539Z" fill="white"/>
<path d="M91.4403 186.539C92.1079 183.455 90.3977 180.351 87.4341 179.268L72.2729 173.729C69.505 172.718 66.4057 173.755 64.8034 176.228L48.3614 201.606C46.1556 205.011 47.6849 209.582 51.4952 210.974L76.8016 220.22C80.4009 221.535 84.3327 219.369 85.1435 215.624L91.4403 186.539Z" fill="white"/>
<path d="M1.7998 101.816C1.7998 86.698 14.0555 74.4422 29.1738 74.4422H182.544C197.662 74.4422 209.918 86.698 209.918 101.816V223.173C209.918 238.291 197.662 250.547 182.544 250.547H29.1738C14.0556 250.547 1.7998 238.291 1.7998 223.173V101.816Z" fill="url(#paint1_radial_8_502)"/>
<path d="M98.4724 133.463C98.4724 147.45 87.1336 158.789 73.1465 158.789C59.1594 158.789 47.8206 147.45 47.8206 133.463C47.8206 119.476 59.1594 108.137 73.1465 108.137C87.1336 108.137 98.4724 119.476 98.4724 133.463Z" fill="white"/>
<path d="M89.5068 133.463C89.5068 142.499 82.1821 149.824 73.1465 149.824C64.1109 149.824 56.7861 142.499 56.7861 133.463C56.7861 124.428 64.1109 117.103 73.1465 117.103C82.1821 117.103 89.5068 124.428 89.5068 133.463Z" fill="#1F1F1F"/>
<path d="M73.1465 124.048L75.6895 130.92L82.562 133.463L75.6895 136.006L73.1465 142.879L70.6035 136.006L63.731 133.463L70.6035 130.92L73.1465 124.048Z" fill="white"/>
<path d="M168.075 133.463C168.075 147.45 156.737 158.789 142.749 158.789C128.762 158.789 117.424 147.45 117.424 133.463C117.424 119.476 128.762 108.137 142.749 108.137C156.737 108.137 168.075 119.476 168.075 133.463Z" fill="white"/>
<path d="M159.11 133.463C159.11 142.499 151.785 149.824 142.749 149.824C133.714 149.824 126.389 142.499 126.389 133.463C126.389 124.428 133.714 117.103 142.749 117.103C151.785 117.103 159.11 124.428 159.11 133.463Z" fill="#1F1F1F"/>
<path d="M142.749 124.048L145.292 130.92L152.165 133.463L145.292 136.006L142.749 142.879L140.206 136.006L133.334 133.463L140.206 130.92L142.749 124.048Z" fill="white"/>
<path d="M198.781 176.33C198.781 190.698 187.132 202.346 172.764 202.346C158.395 202.346 146.747 190.698 146.747 176.33C146.747 161.961 158.395 150.313 172.764 150.313C187.132 150.313 198.781 161.961 198.781 176.33Z" fill="#E60000"/>
<path d="M66.303 176.33C66.303 190.698 54.6549 202.346 40.2862 202.346C25.9175 202.346 14.2694 190.698 14.2694 176.33C14.2694 161.961 25.9175 150.313 40.2862 150.313C54.6549 150.313 66.303 161.961 66.303 176.33Z" fill="#E60000"/>
<path d="M108.657 197.927C90.4009 198.87 72.7136 190.858 65.3797 187.26C62.2305 186.194 60.2493 185.94 61.4684 189.902C62.4436 193.072 67.9363 198.605 70.5607 200.975C86.1043 213.217 102.798 213.777 109.013 213.217C135.986 210.784 147.766 193.934 149.548 191.222C151.884 187.667 150.105 185.916 146.845 187.055C143.585 188.194 131.478 196.749 108.657 197.927Z" fill="white"/>
<path d="M47.7631 177.09C47.7631 181.224 44.4119 184.576 40.278 184.576C36.1441 184.576 32.7929 181.224 32.7929 177.09C32.7929 172.957 36.1441 169.605 40.278 169.605C44.4119 169.605 47.7631 172.957 47.7631 177.09Z" fill="#1F1F1F"/>
</g>
<defs>
<filter id="filter0_g_8_502" x="-0.000195265" y="4.88758e-05" width="211.718" height="252.347" filterUnits="userSpaceOnUse" color-interpolation-filters="sRGB">
<feFlood flood-opacity="0" result="BackgroundImageFix"/>
<feBlend mode="normal" in="SourceGraphic" in2="BackgroundImageFix" result="shape"/>
<feTurbulence type="fractalNoise" baseFrequency="0.40000000596046448 0.40000000596046448" numOctaves="3" seed="4640" />
<feDisplacementMap in="shape" scale="3.5999999046325684" xChannelSelector="R" yChannelSelector="G" result="displacedImage" width="100%" height="100%" />
<feMerge result="effect1_texture_8_502">
<feMergeNode in="displacedImage"/>
</feMerge>
</filter>
<radialGradient id="paint0_radial_8_502" cx="0" cy="0" r="1" gradientUnits="userSpaceOnUse" gradientTransform="translate(105.859 126.174) rotate(90) scale(124.373 104.059)">
<stop stop-color="#FFD255"/>
<stop offset="1" stop-color="#D19900"/>
</radialGradient>
<radialGradient id="paint1_radial_8_502" cx="0" cy="0" r="1" gradientUnits="userSpaceOnUse" gradientTransform="translate(105.859 163.776) rotate(90) scale(95.4746 79.8802)">
<stop offset="0.29716" stop-color="#FFC800"/>
<stop offset="1" stop-color="#FF8000"/>
</radialGradient>
</defs>
</svg>
