<svg width="212" height="245" viewBox="0 0 212 245" fill="none" xmlns="http://www.w3.org/2000/svg">
<g filter="url(#filter0_g_8_493)">
<path d="M159.042 159.959L158.029 152.525L156.983 144.84" stroke="#1F1F1F" stroke-width="5" stroke-linecap="round" stroke-linejoin="round"/>
<path d="M130.49 149.473V156.963V164.705" stroke="#1F1F1F" stroke-width="5" stroke-linecap="round" stroke-linejoin="round"/>
<path d="M98.9683 149.473V156.963V164.705" stroke="#1F1F1F" stroke-width="5" stroke-linecap="round" stroke-linejoin="round"/>
<path d="M72.0371 144.85L70.9372 152.274L69.8004 159.948" stroke="#1F1F1F" stroke-width="5" stroke-linecap="round" stroke-linejoin="round"/>
<path d="M48.8311 148.326C67.553 154.939 119.607 164.196 178.047 148.326" stroke="#1F1F1F" stroke-width="5" stroke-linecap="round" stroke-linejoin="round"/>
<path d="M154.389 13.3987C132.037 2.96457 119.38 2.40212 109.28 1.95339C81.4237 0.351948 57.5487 11.6889 49.0933 17.5575C34.869 25.2857 24.0977 38.6275 17.2935 49.7876C11.8521 58.7123 7.80209 67.687 5.01523 77.7614C2.78026 85.8406 1.7998 95.0282 1.7998 103.411V183.714C1.7998 210.642 11.6938 252.833 33.5195 237.061C35.1594 235.876 36.6067 234.576 37.7927 233.311C39.9278 230.346 42.1982 228.45 44.4815 227.349C56.6922 221.461 65.8369 244.318 79.2412 242.293C84.9091 241.436 89.856 237.016 92.6165 233.311C102.829 220.588 113.473 228.01 117.519 233.311C129.238 250.722 142.352 240.566 147.444 233.311C149.27 230.423 151.242 228.529 153.271 227.405C168.097 219.192 188.18 249.444 200.731 238.053C210.669 229.035 209.178 216.269 209.178 202.849C209.178 202.849 211.313 124.23 209.178 100.846C207.043 77.4607 205.411 78.3145 203.318 70.2926C194.738 42.251 170.633 20.9813 154.389 13.3987Z" fill="#00F7FF"/>
<ellipse cx="56.7948" cy="96.8625" rx="25.8397" ry="23.3047" fill="white"/>
<ellipse cx="59.1283" cy="100.66" rx="16.6923" ry="15.0547" fill="#1F1F1F"/>
<path d="M62.4307 91.9963L63.1936 97.4233L66.338 92.7454L64.5875 97.9831L69.5698 94.863L65.6085 99.0057L71.5671 97.9831L66.08 100.314L71.9846 101.566L65.9205 101.683L70.7502 104.992L65.1576 102.875L68.0773 107.67L63.9232 103.684L64.428 109.135L62.4307 103.97L60.4334 109.135L60.9383 103.684L56.7842 107.67L59.7039 102.875L54.1112 104.992L58.941 101.683L52.8768 101.566L58.7815 100.314L53.2944 97.9831L59.253 99.0057L55.2917 94.863L60.2739 97.9831L58.5234 92.7454L61.6678 97.4233L62.4307 91.9963Z" fill="white"/>
<ellipse cx="156.983" cy="96.8625" rx="25.8397" ry="23.3047" fill="white"/>
<ellipse cx="154.77" cy="100.66" rx="16.6923" ry="15.0547" fill="#1F1F1F"/>
<path d="M153.214 91.9963L153.977 97.4233L157.122 92.7454L155.371 97.9831L160.353 94.863L156.392 99.0057L162.351 97.9831L156.864 100.314L162.768 101.566L156.704 101.683L161.534 104.992L155.941 102.875L158.861 107.67L154.707 103.684L155.212 109.135L153.214 103.97L151.217 109.135L151.722 103.684L147.568 107.67L150.488 102.875L144.895 104.992L149.725 101.683L143.661 101.566L149.565 100.314L144.078 97.9831L150.037 99.0057L146.075 94.863L151.058 97.9831L149.307 92.7454L152.452 97.4233L153.214 91.9963Z" fill="white"/>
<path d="M29.765 165.66C27.7968 151.302 40.1759 139.081 54.5076 141.234L87.2598 146.153C99.0747 147.927 111.087 147.946 122.907 146.21L156.437 141.284C171.036 139.139 183.452 151.916 180.888 166.447C179.275 175.59 172.012 182.683 162.803 183.856C147.276 185.834 123.086 188.489 105.079 188.489C87.3375 188.489 63.5916 185.912 48.0454 183.944C38.4941 182.735 31.0725 175.199 29.765 165.66Z" fill="#0DFF96"/>
<path d="M34.6479 166.023C32.8045 154.84 42.2374 145.03 53.4837 146.435L90.8559 151.102C100.341 152.287 109.935 152.3 119.423 151.14L157.491 146.49C168.997 145.084 178.466 155.421 176.06 166.759C174.568 173.792 168.8 179.106 161.653 179.882C147.327 181.437 122.986 183.754 105.137 183.754C87.555 183.754 63.6739 181.506 49.2708 179.952C41.8088 179.147 35.8687 173.428 34.6479 166.023Z" fill="#1F1F1F"/>
<path d="M145.387 172.414L144.512 164.98L143.608 157.295" stroke="#00F7FF" stroke-width="5" stroke-linecap="round" stroke-linejoin="round"/>
<path d="M120.709 161.928V169.418V177.16" stroke="#00F7FF" stroke-width="5" stroke-linecap="round" stroke-linejoin="round"/>
<path d="M93.4556 161.928V169.418V177.16" stroke="#00F7FF" stroke-width="5" stroke-linecap="round" stroke-linejoin="round"/>
<path d="M70.1855 157.305L69.2349 164.729L68.2523 172.403" stroke="#00F7FF" stroke-width="5" stroke-linecap="round" stroke-linejoin="round"/>
<path d="M50.1201 160.781C66.3022 167.394 111.294 176.651 161.806 160.781" stroke="#00F7FF" stroke-width="5" stroke-linecap="round" stroke-linejoin="round"/>
</g>
<defs>
<filter id="filter0_g_8_493" x="-0.000195265" y="4.88758e-05" width="211.927" height="244.725" filterUnits="userSpaceOnUse" color-interpolation-filters="sRGB">
<feFlood flood-opacity="0" result="BackgroundImageFix"/>
<feBlend mode="normal" in="SourceGraphic" in2="BackgroundImageFix" result="shape"/>
<feTurbulence type="fractalNoise" baseFrequency="0.40000000596046448 0.40000000596046448" numOctaves="3" seed="4640" />
<feDisplacementMap in="shape" scale="3.5999999046325684" xChannelSelector="R" yChannelSelector="G" result="displacedImage" width="100%" height="100%" />
<feMerge result="effect1_texture_8_493">
<feMergeNode in="displacedImage"/>
</feMerge>
</filter>
</defs>
</svg>
