<svg width="341" height="348" viewBox="0 0 341 348" fill="none" xmlns="http://www.w3.org/2000/svg">
<g filter="url(#filter0_g_8_467)">
<g filter="url(#filter1_g_8_467)">
<path d="M223.242 211.574L222.23 204.139L221.183 196.455" stroke="#1F1F1F" stroke-width="5" stroke-linecap="round" stroke-linejoin="round"/>
<path d="M194.691 201.088V208.578V216.32" stroke="#1F1F1F" stroke-width="5" stroke-linecap="round" stroke-linejoin="round"/>
<path d="M163.168 201.088V208.578V216.32" stroke="#1F1F1F" stroke-width="5" stroke-linecap="round" stroke-linejoin="round"/>
<path d="M136.237 196.464L135.137 203.889L134.001 211.563" stroke="#1F1F1F" stroke-width="5" stroke-linecap="round" stroke-linejoin="round"/>
<path d="M113.031 199.941C131.753 206.553 183.807 215.811 242.247 199.941" stroke="#1F1F1F" stroke-width="5" stroke-linecap="round" stroke-linejoin="round"/>
<g filter="url(#filter2_n_8_467)">
<path d="M218.59 65.0133C196.237 54.5792 183.58 54.0167 173.48 53.568C145.624 51.9666 121.749 63.3035 113.293 69.1721C99.0692 76.9003 88.2979 90.2421 81.4937 101.402C76.0523 110.327 72.0023 119.302 69.2154 129.376C66.9805 137.455 66 146.643 66 155.025V235.329C66 262.257 75.894 304.447 97.7197 288.676C99.3596 287.49 100.807 286.19 101.993 284.926C104.128 281.96 106.398 280.065 108.682 278.964C120.892 273.075 130.037 295.933 143.441 293.907C149.109 293.051 154.056 288.631 156.817 284.926C167.029 272.202 177.674 279.624 181.719 284.926C193.438 302.337 206.552 292.18 211.644 284.926C213.471 282.037 215.442 280.143 217.471 279.02C232.298 270.807 252.38 301.058 264.932 289.668C274.87 280.649 273.378 267.884 273.378 254.464C273.378 254.464 275.513 175.845 273.378 152.46C271.243 129.075 269.611 129.929 267.519 121.907C258.939 93.8656 234.833 72.5959 218.59 65.0133Z" fill="#00F7FF"/>
</g>
<ellipse cx="173.104" cy="148.477" rx="25.8397" ry="23.3047" fill="white"/>
<ellipse cx="173.104" cy="148.477" rx="16.6923" ry="15.0547" fill="#1F1F1F"/>
<path d="M173.104 139.813L173.867 145.24L177.011 140.562L175.261 145.8L180.243 142.68L176.282 146.822L182.24 145.8L176.753 148.131L182.658 149.383L176.594 149.5L181.424 152.809L175.831 150.692L178.751 155.487L174.597 151.5L175.101 156.952L173.104 151.787L171.107 156.952L171.612 151.5L167.458 155.487L170.377 150.692L164.785 152.809L169.614 149.5L163.55 149.383L169.455 148.131L163.968 145.8L169.926 146.822L165.965 142.68L170.947 145.8L169.197 140.562L172.341 145.24L173.104 139.813Z" fill="white"/>
<ellipse cx="229.219" cy="148.477" rx="25.8397" ry="23.3047" fill="white"/>
<ellipse cx="229.219" cy="148.477" rx="16.6923" ry="15.0547" fill="#1F1F1F"/>
<path d="M229.219 139.813L229.982 145.24L233.127 140.562L231.376 145.8L236.358 142.68L232.397 146.822L238.356 145.8L232.869 148.131L238.773 149.383L232.709 149.5L237.539 152.809L231.946 150.692L234.866 155.487L230.712 151.5L231.217 156.952L229.219 151.787L227.222 156.952L227.727 151.5L223.573 155.487L226.492 150.692L220.9 152.809L225.73 149.5L219.665 149.383L225.57 148.131L220.083 145.8L226.042 146.822L222.08 142.68L227.063 145.8L225.312 140.562L228.456 145.24L229.219 139.813Z" fill="white"/>
<path d="M123.966 217.275C121.998 202.917 134.377 190.696 148.708 192.848L181.461 197.767C193.275 199.542 205.288 199.561 217.108 197.824L250.638 192.898C265.237 190.753 277.652 203.531 275.089 218.062C273.475 227.205 266.213 234.298 257.004 235.471C241.477 237.449 217.286 240.103 199.28 240.103C181.538 240.103 157.792 237.526 142.246 235.559C132.695 234.35 125.273 226.813 123.966 217.275Z" fill="#FFDD00"/>
<path d="M128.849 217.637C127.005 206.455 136.438 196.645 147.684 198.05L185.057 202.717C194.541 203.901 204.136 203.914 213.623 202.755L251.692 198.104C263.197 196.699 272.667 207.035 270.261 218.374C268.769 225.407 263.001 230.721 255.853 231.496C241.527 233.051 217.186 235.368 199.338 235.368C181.756 235.368 157.875 233.12 143.471 231.567C136.01 230.762 130.069 225.043 128.849 217.637Z" fill="#1F1F1F"/>
<path d="M239.587 224.029L238.713 216.594L237.808 208.91" stroke="#FFA900" stroke-width="5" stroke-linecap="round" stroke-linejoin="round"/>
<path d="M214.91 213.543V221.033V228.775" stroke="#FFA900" stroke-width="5" stroke-linecap="round" stroke-linejoin="round"/>
<path d="M187.656 213.543V221.033V228.775" stroke="#FFA900" stroke-width="5" stroke-linecap="round" stroke-linejoin="round"/>
<path d="M164.386 208.92L163.436 216.344L162.453 224.018" stroke="#FFA900" stroke-width="5" stroke-linecap="round" stroke-linejoin="round"/>
<path d="M144.321 212.396C160.503 219.008 205.495 228.266 256.007 212.396" stroke="#FFA900" stroke-width="5" stroke-linecap="round" stroke-linejoin="round"/>
</g>
</g>
<defs>
<filter id="filter0_g_8_467" x="-1.8" y="-1.8" width="344.194" height="351.554" filterUnits="userSpaceOnUse" color-interpolation-filters="sRGB">
<feFlood flood-opacity="0" result="BackgroundImageFix"/>
<feBlend mode="normal" in="SourceGraphic" in2="BackgroundImageFix" result="shape"/>
<feTurbulence type="fractalNoise" baseFrequency="0.40000000596046448 0.40000000596046448" numOctaves="3" seed="4640" />
<feDisplacementMap in="shape" scale="3.5999999046325684" xChannelSelector="R" yChannelSelector="G" result="displacedImage" width="100%" height="100%" />
<feMerge result="effect1_texture_8_467">
<feMergeNode in="displacedImage"/>
</feMerge>
</filter>
<filter id="filter1_g_8_467" x="64.2" y="51.6147" width="213.026" height="244.725" filterUnits="userSpaceOnUse" color-interpolation-filters="sRGB">
<feFlood flood-opacity="0" result="BackgroundImageFix"/>
<feBlend mode="normal" in="SourceGraphic" in2="BackgroundImageFix" result="shape"/>
<feTurbulence type="fractalNoise" baseFrequency="0.40000000596046448 0.40000000596046448" numOctaves="3" seed="4640" />
<feDisplacementMap in="shape" scale="3.5999999046325684" xChannelSelector="R" yChannelSelector="G" result="displacedImage" width="100%" height="100%" />
<feMerge result="effect1_texture_8_467">
<feMergeNode in="displacedImage"/>
</feMerge>
</filter>
<filter id="filter2_n_8_467" x="66" y="53.4147" width="208.327" height="241.125" filterUnits="userSpaceOnUse" color-interpolation-filters="sRGB">
<feFlood flood-opacity="0" result="BackgroundImageFix"/>
<feBlend mode="normal" in="SourceGraphic" in2="BackgroundImageFix" result="shape"/>
<feTurbulence type="fractalNoise" baseFrequency="0.38461539149284363 0.38461539149284363" stitchTiles="stitch" numOctaves="3" result="noise" seed="1179" />
<feColorMatrix in="noise" type="luminanceToAlpha" result="alphaNoise" />
<feComponentTransfer in="alphaNoise" result="coloredNoise1">
<feFuncA type="discrete" tableValues="0 0 0 0 0 0 0 0 0 0 0 0 0 0 0 1 1 1 1 1 1 1 1 1 1 1 1 1 1 1 1 1 1 1 1 0 0 0 0 0 0 0 0 0 0 0 0 0 0 0 0 0 0 0 0 0 0 0 0 0 0 0 0 0 0 0 0 0 0 0 0 0 0 0 0 0 0 0 0 0 0 0 0 0 0 0 0 0 0 0 0 0 0 0 0 0 0 0 0 0 "/>
</feComponentTransfer>
<feComposite operator="in" in2="shape" in="coloredNoise1" result="noise1Clipped" />
<feComponentTransfer in="alphaNoise" result="coloredNoise2">
<feFuncA type="discrete" tableValues="0 0 0 0 0 0 0 0 0 0 0 0 0 0 0 0 0 0 0 0 0 0 0 0 0 0 0 0 0 0 0 0 0 0 0 0 0 0 0 0 0 0 0 0 0 0 0 0 0 0 0 0 0 0 0 0 0 0 0 0 0 0 0 0 0 1 1 1 1 1 1 1 1 1 1 1 1 1 1 1 1 1 1 1 1 0 0 0 0 0 0 0 0 0 0 0 0 0 0 0 "/>
</feComponentTransfer>
<feComposite operator="in" in2="shape" in="coloredNoise2" result="noise2Clipped" />
<feFlood flood-color="rgba(0, 0, 0, 0.25)" result="color1Flood" />
<feComposite operator="in" in2="noise1Clipped" in="color1Flood" result="color1" />
<feFlood flood-color="#00E4D5" result="color2Flood" />
<feComposite operator="in" in2="noise2Clipped" in="color2Flood" result="color2" />
<feMerge result="effect1_noise_8_467">
<feMergeNode in="shape" />
<feMergeNode in="color1" />
<feMergeNode in="color2" />
</feMerge>
</filter>
</defs>
</svg>
