<svg width="112" height="30" viewBox="0 0 112 30" fill="none" xmlns="http://www.w3.org/2000/svg">
<path d="M0 7.37758C0 3.30306 3.30303 0 7.37753 0H24.4959C28.5704 0 31.8734 3.30306 31.8734 7.37758V22.1271C31.8734 26.2016 28.5704 29.5046 24.4959 29.5046H7.37753C3.30303 29.5046 0 26.2016 0 22.1271V7.37758Z" fill="#FFAD0D"/>
<path d="M4.98872 17.1383C4.98876 15.6462 6.37008 14.5377 7.82677 14.8607L14.7785 16.4017C15.8465 16.6385 16.9545 16.6282 18.0179 16.3716L24.0167 14.9236C25.4782 14.5709 26.8847 15.6785 26.8847 17.1819C26.8847 18.2549 26.1497 19.1882 25.1067 19.44L18.7837 20.9661C17.2164 21.3443 15.5835 21.3596 14.0095 21.0106L6.8168 19.4161C5.7488 19.1793 4.98872 18.2322 4.98872 17.1383Z" fill="black"/>
<path d="M20.818 8.25922C22.2913 8.25922 23.4856 9.45358 23.4856 10.9268C23.4856 12.07 21.8794 13.0453 21.1597 13.4249C20.9446 13.5384 20.6914 13.5384 20.4763 13.4249C19.7567 13.0453 18.1506 12.07 18.1506 10.9268C18.1506 9.4536 19.3448 8.25926 20.818 8.25922Z" fill="white"/>
<path d="M10.877 8.25922C9.40376 8.25922 8.20943 9.4536 8.20942 10.9269C8.20942 12.0701 9.8156 13.0453 10.5353 13.4249C10.7504 13.5384 11.0036 13.5384 11.2187 13.4249C11.9384 13.0453 13.5444 12.07 13.5444 10.9269C13.5444 9.45363 12.3502 8.25926 10.877 8.25922Z" fill="black"/>
<path d="M111.367 10.7064V13.7952H103.552V10.7064H111.367ZM105.066 7.86477H109.328V18.7527C109.328 18.9174 109.357 19.0564 109.413 19.1697C109.47 19.2778 109.557 19.3601 109.676 19.4168C109.794 19.4682 109.946 19.494 110.131 19.494C110.26 19.494 110.409 19.4785 110.579 19.4476C110.754 19.4168 110.883 19.391 110.965 19.3704L111.583 22.3665C111.393 22.4232 111.12 22.4927 110.764 22.575C110.414 22.6574 109.997 22.7114 109.514 22.7372C108.535 22.7887 107.714 22.6883 107.05 22.436C106.386 22.1786 105.887 21.7745 105.552 21.2237C105.218 20.6729 105.055 19.983 105.066 19.1542V7.86477Z" fill="white"/>
<path d="M84.1948 22.5681V10.7073H88.3337V12.9621H88.4573C88.6735 12.1281 89.0158 11.5181 89.4843 11.132C89.9579 10.7459 90.5113 10.5528 91.1445 10.5528C91.3298 10.5528 91.5126 10.5683 91.6927 10.5992C91.8781 10.6249 92.0557 10.6635 92.2256 10.715V14.352C92.0145 14.28 91.7545 14.2259 91.4456 14.1899C91.1368 14.1538 90.8717 14.1358 90.6503 14.1358C90.2333 14.1358 89.8575 14.2311 89.5229 14.4215C89.1934 14.6069 88.9335 14.8694 88.743 15.2092C88.5525 15.5438 88.4573 15.9376 88.4573 16.3906V22.5681H84.1948Z" fill="white"/>
<path d="M71.9835 10.7064V13.7952H64.1689V10.7064H71.9835ZM65.6824 7.86477H69.9449V18.7527C69.9449 18.9174 69.9732 19.0564 70.0298 19.1697C70.0865 19.2778 70.174 19.3601 70.2924 19.4168C70.4108 19.4682 70.5626 19.494 70.748 19.494C70.8767 19.494 71.026 19.4785 71.1958 19.4476C71.3709 19.4168 71.4996 19.391 71.5819 19.3704L72.1997 22.3665C72.0092 22.4232 71.7364 22.4927 71.3812 22.575C71.0311 22.6574 70.6141 22.7114 70.1302 22.7372C69.1521 22.7887 68.331 22.6883 67.6669 22.436C67.0029 22.1786 66.5035 21.7745 66.1689 21.2237C65.8343 20.6729 65.6721 19.983 65.6824 19.1542V7.86477Z" fill="white"/>
<path d="M56.4199 15.8964V22.5681H52.1575V10.7073H56.2037V12.9621H56.3273C56.5847 12.2105 57.0377 11.621 57.6863 11.1938C58.3401 10.7665 59.102 10.5528 59.972 10.5528C60.8111 10.5528 61.5395 10.7459 62.1573 11.132C62.7802 11.5129 63.2615 12.038 63.6013 12.7073C63.9462 13.3765 64.1161 14.141 64.1109 15.0007V22.5681H59.8484V15.8964C59.8536 15.3095 59.7043 14.8488 59.4006 14.5142C59.102 14.1796 58.685 14.0123 58.1496 14.0123C57.7996 14.0123 57.4933 14.0895 57.2307 14.2439C56.9733 14.3932 56.7751 14.6094 56.6361 14.8926C56.4972 15.1706 56.4251 15.5052 56.4199 15.8964Z" fill="white"/>
<path d="M39.8735 22.5669V6.7524H51.271V10.2118H44.1669V12.9299H50.6841V16.3894H44.1669V19.1075H51.2401V22.5669H39.8735Z" fill="white"/>
<path d="M78.0364 10.552C76.8575 10.552 75.8738 10.737 75.0862 11.1077C74.2986 11.4732 73.6992 11.9629 73.2874 12.5754C72.8807 13.1829 72.6513 13.847 72.5999 14.5676H76.5227C76.5741 14.2024 76.7258 13.9321 76.9778 13.7571C77.2351 13.577 77.5674 13.4866 77.9739 13.4866C78.3445 13.4866 78.6492 13.5689 78.886 13.7337C79.1225 13.8983 79.2404 14.135 79.2405 14.4436V14.4749C79.2405 14.7011 79.1508 14.8838 78.9709 15.0227C78.7908 15.1566 78.4968 15.2629 78.0901 15.3401C77.6886 15.4122 77.1554 15.4732 76.4915 15.5247C75.879 15.571 75.3077 15.672 74.7776 15.8264C74.2526 15.9808 73.7921 16.2049 73.3958 16.4983C72.9994 16.7917 72.6904 17.1698 72.469 17.6331C72.2476 18.0912 72.137 18.6446 72.137 19.2932C72.137 20.0809 72.3016 20.7299 72.6311 21.2395C72.9605 21.7489 73.4132 22.1299 73.9895 22.3821C74.5712 22.6292 75.2407 22.7522 75.9973 22.7522C76.512 22.7522 76.9832 22.6911 77.4104 22.5676C77.8427 22.4441 78.2263 22.2456 78.5608 21.9729C78.9005 21.7001 79.1892 21.3423 79.426 20.8997H79.5188V22.5676H83.5032V14.4436C83.5031 13.8931 83.3773 13.3836 83.1252 12.9153C82.8782 12.4417 82.5178 12.029 82.0442 11.679C81.5706 11.3238 80.9959 11.0484 80.3215 10.8528C79.6473 10.6521 78.8855 10.552 78.0364 10.552ZM77.7512 16.5169C78.8965 16.5169 79.8253 17.4449 79.8254 18.5901C79.8254 19.7355 77.7512 20.6643 77.7512 20.6643C77.7276 20.6537 75.678 19.7289 75.678 18.5901C75.6782 17.4449 76.606 16.517 77.7512 16.5169Z" fill="white"/>
<path d="M98.0466 10.552C99.2255 10.552 100.209 10.737 100.997 11.1077C101.784 11.4732 102.384 11.9628 102.796 12.5754C103.202 13.1829 103.432 13.847 103.483 14.5676H99.5603C99.5089 14.2024 99.3572 13.9321 99.1052 13.7571C98.8479 13.577 98.5156 13.4866 98.1091 13.4866C97.7385 13.4866 97.4338 13.5689 97.197 13.7337C96.9606 13.8983 96.8426 14.135 96.8425 14.4436V14.4749C96.8426 14.7013 96.9329 14.8837 97.113 15.0227C97.2932 15.1565 97.5864 15.2629 97.9929 15.3401C98.3944 15.4122 98.9276 15.4732 99.5916 15.5247C100.204 15.571 100.775 15.672 101.305 15.8264C101.831 15.9809 102.292 16.2049 102.688 16.4983C103.084 16.7917 103.393 17.17 103.614 17.6331C103.835 18.0912 103.946 18.6446 103.946 19.2932C103.946 20.0809 103.781 20.7299 103.452 21.2395C103.123 21.7489 102.67 22.1299 102.094 22.3821C101.512 22.6292 100.842 22.7522 100.086 22.7522C99.571 22.7522 99.0998 22.6911 98.6726 22.5676C98.2403 22.4441 97.8568 22.2456 97.5222 21.9729C97.1825 21.7001 96.8938 21.3423 96.657 20.8997H96.5642V22.5676H92.5798V14.4436C92.5799 13.8931 92.7057 13.3836 92.9578 12.9153C93.2049 12.4417 93.5652 12.029 94.0388 11.679C94.5124 11.3238 95.0871 11.0484 95.7615 10.8528C96.4357 10.6521 97.1975 10.552 98.0466 10.552ZM98.3318 16.5169C97.1865 16.5169 96.2578 17.4449 96.2576 18.5901C96.2576 19.7355 98.3318 20.6643 98.3318 20.6643C98.3466 20.6576 100.406 19.7314 100.406 18.5901C100.406 17.4449 99.477 16.5169 98.3318 16.5169Z" fill="white"/>
</svg>
