<svg width="112" height="30" viewBox="0 0 112 30" fill="none" xmlns="http://www.w3.org/2000/svg">
<path d="M0.00012207 7.37758C0.00012207 3.30306 3.30316 0 7.37765 0H24.496C28.5705 0 31.8735 3.30306 31.8735 7.37758V22.1271C31.8735 26.2016 28.5705 29.5046 24.496 29.5046H7.37765C3.30316 29.5046 0.00012207 26.2016 0.00012207 22.1271V7.37758Z" fill="#FFAD0D"/>
<path d="M4.98885 17.1383C4.98888 15.6462 6.3702 14.5377 7.8269 14.8607L14.7786 16.4017C15.8466 16.6385 16.9546 16.6282 18.018 16.3716L24.0168 14.9236C25.4783 14.5709 26.8848 15.6785 26.8848 17.1819C26.8848 18.2549 26.1498 19.1882 25.1068 19.44L18.7838 20.9661C17.2166 21.3443 15.5836 21.3596 14.0096 21.0106L6.81692 19.4161C5.74893 19.1793 4.98885 18.2322 4.98885 17.1383Z" fill="black"/>
<path d="M20.8181 8.25922C22.2914 8.25922 23.4857 9.45358 23.4858 10.9268C23.4858 12.07 21.8796 13.0453 21.1599 13.4249C20.9448 13.5384 20.6915 13.5384 20.4764 13.4249C19.7568 13.0453 18.1507 12.07 18.1507 10.9268C18.1508 9.4536 19.3449 8.25926 20.8181 8.25922Z" fill="white"/>
<path d="M10.8771 8.25922C9.40388 8.25922 8.20955 9.4536 8.20954 10.9269C8.20954 12.0701 9.81573 13.0453 10.5354 13.4249C10.7505 13.5384 11.0038 13.5384 11.2188 13.4249C11.9385 13.0453 13.5446 12.07 13.5446 10.9269C13.5445 9.45363 12.3504 8.25926 10.8771 8.25922Z" fill="black"/>
<path d="M111.695 12.221V15.3097H103.881V12.221H111.695ZM105.394 9.37931H109.657V20.2672C109.657 20.4319 109.685 20.5709 109.742 20.6842C109.798 20.7923 109.886 20.8747 110.004 20.9313C110.122 20.9828 110.274 21.0085 110.46 21.0085C110.588 21.0085 110.738 20.9931 110.908 20.9622C111.083 20.9313 111.211 20.9056 111.294 20.885L111.911 23.8811C111.721 23.9377 111.448 24.0072 111.093 24.0896C110.743 24.1719 110.326 24.226 109.842 24.2517C108.864 24.3032 108.043 24.2028 107.379 23.9506C106.715 23.6932 106.215 23.2891 105.881 22.7382C105.546 22.1874 105.384 21.4976 105.394 20.6687V9.37931Z" fill="white"/>
<path d="M84.5233 24.0827V12.2218H88.6622V14.4766H88.7857C89.0019 13.6427 89.3443 13.0326 89.8127 12.6465C90.2863 12.2604 90.8397 12.0674 91.4729 12.0674C91.6583 12.0674 91.841 12.0828 92.0212 12.1137C92.2065 12.1395 92.3841 12.1781 92.554 12.2296V15.8666C92.3429 15.7945 92.083 15.7404 91.7741 15.7044C91.4652 15.6684 91.2001 15.6504 90.9787 15.6504C90.5617 15.6504 90.1859 15.7456 89.8513 15.9361C89.5219 16.1214 89.2619 16.3839 89.0714 16.7237C88.881 17.0583 88.7857 17.4521 88.7857 17.9052V24.0827H84.5233Z" fill="white"/>
<path d="M72.3117 12.221V15.3097H64.4972V12.221H72.3117ZM66.0107 9.37931H70.2731V20.2672C70.2731 20.4319 70.3015 20.5709 70.3581 20.6842C70.4147 20.7923 70.5022 20.8747 70.6206 20.9313C70.739 20.9828 70.8909 21.0085 71.0762 21.0085C71.2049 21.0085 71.3542 20.9931 71.5241 20.9622C71.6991 20.9313 71.8278 20.9056 71.9102 20.885L72.5279 23.8811C72.3375 23.9377 72.0646 24.0072 71.7094 24.0896C71.3594 24.1719 70.9424 24.226 70.4585 24.2517C69.4804 24.3032 68.6593 24.2028 67.9952 23.9506C67.3311 23.6932 66.8318 23.2891 66.4972 22.7382C66.1625 22.1874 66.0004 21.4976 66.0107 20.6687V9.37931Z" fill="white"/>
<path d="M56.7481 17.411V24.0827H52.4857V12.2218H56.5319V14.4766H56.6555C56.9129 13.725 57.3659 13.1356 58.0145 12.7083C58.6683 12.281 59.4302 12.0674 60.3002 12.0674C61.1393 12.0674 61.8677 12.2604 62.4855 12.6465C63.1084 13.0275 63.5897 13.5526 63.9295 14.2218C64.2744 14.891 64.4442 15.6555 64.4391 16.5152V24.0827H60.1766V17.411C60.1818 16.8241 60.0325 16.3633 59.7288 16.0287C59.4302 15.6941 59.0132 15.5268 58.4778 15.5268C58.1278 15.5268 57.8215 15.604 57.5589 15.7585C57.3015 15.9078 57.1033 16.124 56.9643 16.4071C56.8253 16.6851 56.7533 17.0197 56.7481 17.411Z" fill="white"/>
<path d="M40.2019 24.0814V8.26694H51.5994V11.7264H44.4953V14.4445H51.0125V17.9039H44.4953V20.622H51.5685V24.0814H40.2019Z" fill="white"/>
<path d="M78.3645 12.0666C77.1856 12.0666 76.2019 12.2516 75.4143 12.6222C74.6267 12.9877 74.0273 13.4774 73.6155 14.09C73.2088 14.6974 72.9795 15.3615 72.928 16.0822H76.8508C76.9023 15.7169 77.054 15.4467 77.3059 15.2716C77.5632 15.0915 77.8955 15.0012 78.302 15.0011C78.6727 15.0011 78.9773 15.0835 79.2141 15.2482C79.4506 15.4129 79.5685 15.6496 79.5686 15.9582V15.9894C79.5686 16.2157 79.4789 16.3983 79.2991 16.5373C79.1189 16.6711 78.8249 16.7774 78.4182 16.8546C78.0167 16.9267 77.4836 16.9877 76.8196 17.0392C76.2071 17.0855 75.6359 17.1865 75.1057 17.341C74.5807 17.4954 74.1202 17.7194 73.7239 18.0128C73.3275 18.3063 73.0185 18.6843 72.7971 19.1476C72.5758 19.6058 72.4651 20.1591 72.4651 20.8078C72.4651 21.5954 72.6298 22.2444 72.9592 22.7541C73.2886 23.2634 73.7413 23.6444 74.3176 23.8966C74.8993 24.1437 75.5688 24.2667 76.3254 24.2667C76.8401 24.2667 77.3113 24.2057 77.7385 24.0822C78.1708 23.9587 78.5544 23.7602 78.8889 23.4874C79.2286 23.2147 79.5174 22.8568 79.7542 22.4142H79.8469V24.0822H83.8313V15.9582C83.8313 15.4076 83.7054 14.8981 83.4534 14.4298C83.2063 13.9562 82.8459 13.5436 82.3723 13.1935C81.8987 12.8383 81.324 12.563 80.6497 12.3673C79.9754 12.1667 79.2137 12.0666 78.3645 12.0666ZM78.0793 18.0314C79.2246 18.0314 80.1534 18.9594 80.1536 20.1046C80.1536 21.25 78.0793 22.1789 78.0793 22.1789C78.0557 22.1682 76.0061 21.2434 76.0061 20.1046C76.0063 18.9595 76.9342 18.0315 78.0793 18.0314Z" fill="white"/>
<path d="M98.3749 12.0666C99.5538 12.0666 100.538 12.2516 101.325 12.6222C102.113 12.9877 102.712 13.4774 103.124 14.09C103.531 14.6974 103.76 15.3615 103.811 16.0822H99.8886C99.8372 15.7169 99.6855 15.4467 99.4335 15.2716C99.1762 15.0915 98.8439 15.0012 98.4374 15.0011C98.0668 15.0011 97.7621 15.0835 97.5253 15.2482C97.2889 15.4129 97.1709 15.6496 97.1708 15.9582V15.9894C97.1709 16.2159 97.2612 16.3983 97.4413 16.5373C97.6215 16.671 97.9147 16.7774 98.3212 16.8546C98.7227 16.9267 99.2559 16.9877 99.9199 17.0392C100.532 17.0855 101.104 17.1866 101.634 17.341C102.159 17.4954 102.62 17.7194 103.017 18.0128C103.413 18.3062 103.721 18.6845 103.942 19.1476C104.164 19.6058 104.274 20.1591 104.274 20.8078C104.274 21.5954 104.11 22.2444 103.78 22.7541C103.451 23.2634 102.998 23.6444 102.422 23.8966C101.84 24.1437 101.171 24.2667 100.414 24.2667C99.8993 24.2667 99.4281 24.2057 99.0009 24.0822C98.5686 23.9587 98.1851 23.7602 97.8505 23.4874C97.5108 23.2147 97.2221 22.8568 96.9853 22.4142H96.8925V24.0822H92.9081V15.9582C92.9082 15.4076 93.034 14.8981 93.2861 14.4298C93.5332 13.9562 93.8936 13.5436 94.3671 13.1935C94.8407 12.8383 95.4154 12.563 96.0898 12.3673C96.764 12.1666 97.5258 12.0666 98.3749 12.0666ZM98.6601 18.0314C97.5148 18.0314 96.5861 18.9594 96.5859 20.1046C96.5859 21.25 98.6601 22.1789 98.6601 22.1789C98.675 22.1722 100.734 21.2459 100.734 20.1046C100.734 18.9594 99.8053 18.0314 98.6601 18.0314Z" fill="white"/>
<path d="M111.695 12.221V15.3097H103.881V12.221H111.695ZM105.394 9.37931H109.657V20.2672C109.657 20.4319 109.685 20.5709 109.742 20.6842C109.798 20.7923 109.886 20.8747 110.004 20.9313C110.122 20.9828 110.274 21.0085 110.46 21.0085C110.588 21.0085 110.738 20.9931 110.908 20.9622C111.083 20.9313 111.211 20.9056 111.294 20.885L111.911 23.8811C111.721 23.9377 111.448 24.0072 111.093 24.0896C110.743 24.1719 110.326 24.226 109.842 24.2517C108.864 24.3032 108.043 24.2028 107.379 23.9506C106.715 23.6932 106.215 23.2891 105.881 22.7382C105.546 22.1874 105.384 21.4976 105.394 20.6687V9.37931Z" fill="#181818"/>
<path d="M84.5233 24.0827V12.2218H88.6622V14.4766H88.7857C89.0019 13.6427 89.3443 13.0326 89.8127 12.6465C90.2863 12.2604 90.8397 12.0674 91.4729 12.0674C91.6583 12.0674 91.841 12.0828 92.0212 12.1137C92.2065 12.1395 92.3841 12.1781 92.554 12.2296V15.8666C92.3429 15.7945 92.083 15.7404 91.7741 15.7044C91.4652 15.6684 91.2001 15.6504 90.9787 15.6504C90.5617 15.6504 90.1859 15.7456 89.8513 15.9361C89.5219 16.1214 89.2619 16.3839 89.0714 16.7237C88.881 17.0583 88.7857 17.4521 88.7857 17.9052V24.0827H84.5233Z" fill="#181818"/>
<path d="M72.3117 12.221V15.3097H64.4972V12.221H72.3117ZM66.0107 9.37931H70.2731V20.2672C70.2731 20.4319 70.3015 20.5709 70.3581 20.6842C70.4147 20.7923 70.5022 20.8747 70.6206 20.9313C70.739 20.9828 70.8909 21.0085 71.0762 21.0085C71.2049 21.0085 71.3542 20.9931 71.5241 20.9622C71.6991 20.9313 71.8278 20.9056 71.9102 20.885L72.5279 23.8811C72.3375 23.9377 72.0646 24.0072 71.7094 24.0896C71.3594 24.1719 70.9424 24.226 70.4585 24.2517C69.4804 24.3032 68.6593 24.2028 67.9952 23.9506C67.3311 23.6932 66.8318 23.2891 66.4972 22.7382C66.1625 22.1874 66.0004 21.4976 66.0107 20.6687V9.37931Z" fill="#181818"/>
<path d="M56.7481 17.411V24.0827H52.4857V12.2218H56.5319V14.4766H56.6555C56.9129 13.725 57.3659 13.1356 58.0145 12.7083C58.6683 12.281 59.4302 12.0674 60.3002 12.0674C61.1393 12.0674 61.8677 12.2604 62.4855 12.6465C63.1084 13.0275 63.5897 13.5526 63.9295 14.2218C64.2744 14.891 64.4442 15.6555 64.4391 16.5152V24.0827H60.1766V17.411C60.1818 16.8241 60.0325 16.3633 59.7288 16.0287C59.4302 15.6941 59.0132 15.5268 58.4778 15.5268C58.1278 15.5268 57.8215 15.604 57.5589 15.7585C57.3015 15.9078 57.1033 16.124 56.9643 16.4071C56.8253 16.6851 56.7533 17.0197 56.7481 17.411Z" fill="#181818"/>
<path d="M40.2019 24.0814V8.26694H51.5994V11.7264H44.4953V14.4445H51.0125V17.9039H44.4953V20.622H51.5685V24.0814H40.2019Z" fill="#181818"/>
<path d="M78.3645 12.0666C77.1856 12.0666 76.2019 12.2516 75.4143 12.6222C74.6267 12.9877 74.0273 13.4774 73.6155 14.09C73.2088 14.6974 72.9795 15.3615 72.928 16.0822H76.8508C76.9023 15.7169 77.054 15.4467 77.3059 15.2716C77.5632 15.0915 77.8955 15.0012 78.302 15.0011C78.6727 15.0011 78.9773 15.0835 79.2141 15.2482C79.4506 15.4129 79.5685 15.6496 79.5686 15.9582V15.9894C79.5686 16.2157 79.4789 16.3983 79.2991 16.5373C79.1189 16.6711 78.8249 16.7774 78.4182 16.8546C78.0167 16.9267 77.4836 16.9877 76.8196 17.0392C76.2071 17.0855 75.6359 17.1865 75.1057 17.341C74.5807 17.4954 74.1202 17.7194 73.7239 18.0128C73.3275 18.3063 73.0185 18.6843 72.7971 19.1476C72.5758 19.6058 72.4651 20.1591 72.4651 20.8078C72.4651 21.5954 72.6298 22.2444 72.9592 22.7541C73.2886 23.2634 73.7413 23.6444 74.3176 23.8966C74.8993 24.1437 75.5688 24.2667 76.3254 24.2667C76.8401 24.2667 77.3113 24.2057 77.7385 24.0822C78.1708 23.9587 78.5544 23.7602 78.8889 23.4874C79.2286 23.2147 79.5174 22.8568 79.7542 22.4142H79.8469V24.0822H83.8313V15.9582C83.8313 15.4076 83.7054 14.8981 83.4534 14.4298C83.2063 13.9562 82.8459 13.5436 82.3723 13.1935C81.8987 12.8383 81.324 12.563 80.6497 12.3673C79.9754 12.1667 79.2137 12.0666 78.3645 12.0666ZM78.0793 18.0314C79.2246 18.0314 80.1534 18.9594 80.1536 20.1046C80.1536 21.25 78.0793 22.1789 78.0793 22.1789C78.0557 22.1682 76.0061 21.2434 76.0061 20.1046C76.0063 18.9595 76.9342 18.0315 78.0793 18.0314Z" fill="#181818"/>
<path d="M98.3749 12.0666C99.5538 12.0666 100.538 12.2516 101.325 12.6222C102.113 12.9877 102.712 13.4774 103.124 14.09C103.531 14.6974 103.76 15.3615 103.811 16.0822H99.8886C99.8372 15.7169 99.6855 15.4467 99.4335 15.2716C99.1762 15.0915 98.8439 15.0012 98.4374 15.0011C98.0668 15.0011 97.7621 15.0835 97.5253 15.2482C97.2889 15.4129 97.1709 15.6496 97.1708 15.9582V15.9894C97.1709 16.2159 97.2612 16.3983 97.4413 16.5373C97.6215 16.671 97.9147 16.7774 98.3212 16.8546C98.7227 16.9267 99.2559 16.9877 99.9199 17.0392C100.532 17.0855 101.104 17.1866 101.634 17.341C102.159 17.4954 102.62 17.7194 103.017 18.0128C103.413 18.3062 103.721 18.6845 103.942 19.1476C104.164 19.6058 104.274 20.1591 104.274 20.8078C104.274 21.5954 104.11 22.2444 103.78 22.7541C103.451 23.2634 102.998 23.6444 102.422 23.8966C101.84 24.1437 101.171 24.2667 100.414 24.2667C99.8993 24.2667 99.4281 24.2057 99.0009 24.0822C98.5686 23.9587 98.1851 23.7602 97.8505 23.4874C97.5108 23.2147 97.2221 22.8568 96.9853 22.4142H96.8925V24.0822H92.9081V15.9582C92.9082 15.4076 93.034 14.8981 93.2861 14.4298C93.5332 13.9562 93.8936 13.5436 94.3671 13.1935C94.8407 12.8383 95.4154 12.563 96.0898 12.3673C96.764 12.1666 97.5258 12.0666 98.3749 12.0666ZM98.6601 18.0314C97.5148 18.0314 96.5861 18.9594 96.5859 20.1046C96.5859 21.25 98.6601 22.1789 98.6601 22.1789C98.675 22.1722 100.734 21.2459 100.734 20.1046C100.734 18.9594 99.8053 18.0314 98.6601 18.0314Z" fill="#181818"/>
</svg>
