<svg width="266" height="30" viewBox="0 0 266 30" fill="none" xmlns="http://www.w3.org/2000/svg">
<path d="M29 7.37758C29 3.30306 32.303 0 36.3775 0H53.4959C57.5704 0 60.8734 3.30306 60.8734 7.37758V22.1271C60.8734 26.2016 57.5704 29.5046 53.4959 29.5046H36.3775C32.303 29.5046 29 26.2016 29 22.1271V7.37758Z" fill="#FFAD0D"/>
<path d="M33.9887 17.1383C33.9888 15.6462 35.3701 14.5377 36.8268 14.8607L43.7785 16.4017C44.8465 16.6385 45.9545 16.6282 47.0179 16.3716L53.0167 14.9236C54.4782 14.5709 55.8847 15.6785 55.8847 17.1819C55.8847 18.2549 55.1497 19.1882 54.1067 19.44L47.7837 20.9661C46.2164 21.3443 44.5835 21.3596 43.0095 21.0106L35.8168 19.4161C34.7488 19.1793 33.9887 18.2322 33.9887 17.1383Z" fill="black"/>
<path d="M49.818 8.25922C51.2913 8.25922 52.4856 9.45358 52.4856 10.9268C52.4856 12.07 50.8794 13.0453 50.1597 13.4249C49.9446 13.5384 49.6914 13.5384 49.4763 13.4249C48.7567 13.0453 47.1506 12.07 47.1506 10.9268C47.1506 9.4536 48.3448 8.25926 49.818 8.25922Z" fill="white"/>
<path d="M39.877 8.25922C38.4038 8.25922 37.2094 9.4536 37.2094 10.9269C37.2094 12.0701 38.8156 13.0453 39.5353 13.4249C39.7504 13.5384 40.0036 13.5384 40.2187 13.4249C40.9384 13.0453 42.5444 12.07 42.5444 10.9269C42.5444 9.45363 41.3502 8.25926 39.877 8.25922Z" fill="black"/>
<path d="M140.367 10.7064V13.7952H132.552V10.7064H140.367ZM134.066 7.86477H138.328V18.7527C138.328 18.9174 138.357 19.0564 138.413 19.1697C138.47 19.2778 138.557 19.3601 138.676 19.4168C138.794 19.4682 138.946 19.494 139.131 19.494C139.26 19.494 139.409 19.4785 139.579 19.4476C139.754 19.4168 139.883 19.391 139.965 19.3704L140.583 22.3665C140.393 22.4232 140.12 22.4927 139.764 22.575C139.414 22.6574 138.997 22.7114 138.514 22.7372C137.535 22.7887 136.714 22.6883 136.05 22.436C135.386 22.1786 134.887 21.7745 134.552 21.2237C134.218 20.6729 134.055 19.983 134.066 19.1542V7.86477Z" fill="white"/>
<path d="M113.195 22.5681V10.7073H117.334V12.9621H117.457C117.674 12.1281 118.016 11.5181 118.484 11.132C118.958 10.7459 119.511 10.5528 120.144 10.5528C120.33 10.5528 120.513 10.5683 120.693 10.5992C120.878 10.6249 121.056 10.6635 121.226 10.715V14.352C121.014 14.28 120.755 14.2259 120.446 14.1899C120.137 14.1538 119.872 14.1358 119.65 14.1358C119.233 14.1358 118.858 14.2311 118.523 14.4215C118.193 14.6069 117.933 14.8694 117.743 15.2092C117.553 15.5438 117.457 15.9376 117.457 16.3906V22.5681H113.195Z" fill="white"/>
<path d="M100.983 10.7064V13.7952H93.1689V10.7064H100.983ZM94.6824 7.86477H98.9449V18.7527C98.9449 18.9174 98.9732 19.0564 99.0298 19.1697C99.0865 19.2778 99.174 19.3601 99.2924 19.4168C99.4108 19.4682 99.5626 19.494 99.748 19.494C99.8767 19.494 100.026 19.4785 100.196 19.4476C100.371 19.4168 100.5 19.391 100.582 19.3704L101.2 22.3665C101.009 22.4232 100.736 22.4927 100.381 22.575C100.031 22.6574 99.6141 22.7114 99.1302 22.7372C98.1521 22.7887 97.331 22.6883 96.6669 22.436C96.0029 22.1786 95.5035 21.7745 95.1689 21.2237C94.8343 20.6729 94.6721 19.983 94.6824 19.1542V7.86477Z" fill="white"/>
<path d="M85.4199 15.8964V22.5681H81.1575V10.7073H85.2037V12.9621H85.3273C85.5847 12.2105 86.0377 11.621 86.6863 11.1938C87.3401 10.7665 88.102 10.5528 88.972 10.5528C89.8111 10.5528 90.5395 10.7459 91.1573 11.132C91.7802 11.5129 92.2615 12.038 92.6013 12.7073C92.9462 13.3765 93.1161 14.141 93.1109 15.0007V22.5681H88.8484V15.8964C88.8536 15.3095 88.7043 14.8488 88.4006 14.5142C88.102 14.1796 87.685 14.0123 87.1496 14.0123C86.7996 14.0123 86.4933 14.0895 86.2307 14.2439C85.9733 14.3932 85.7751 14.6094 85.6361 14.8926C85.4972 15.1706 85.4251 15.5052 85.4199 15.8964Z" fill="white"/>
<path d="M68.8735 22.5669V6.7524H80.271V10.2118H73.1669V12.9299H79.6841V16.3894H73.1669V19.1075H80.2401V22.5669H68.8735Z" fill="white"/>
<path d="M107.036 10.552C105.858 10.552 104.874 10.737 104.086 11.1077C103.299 11.4732 102.699 11.9629 102.287 12.5754C101.881 13.1829 101.651 13.847 101.6 14.5676H105.523C105.574 14.2024 105.726 13.9321 105.978 13.7571C106.235 13.577 106.567 13.4866 106.974 13.4866C107.345 13.4866 107.649 13.5689 107.886 13.7337C108.122 13.8983 108.24 14.135 108.24 14.4436V14.4749C108.24 14.7011 108.151 14.8838 107.971 15.0227C107.791 15.1566 107.497 15.2629 107.09 15.3401C106.689 15.4122 106.155 15.4732 105.491 15.5247C104.879 15.571 104.308 15.672 103.778 15.8264C103.253 15.9808 102.792 16.2049 102.396 16.4983C101.999 16.7917 101.69 17.1698 101.469 17.6331C101.248 18.0912 101.137 18.6446 101.137 19.2932C101.137 20.0809 101.302 20.7299 101.631 21.2395C101.96 21.7489 102.413 22.1299 102.99 22.3821C103.571 22.6292 104.241 22.7522 104.997 22.7522C105.512 22.7522 105.983 22.6911 106.41 22.5676C106.843 22.4441 107.226 22.2456 107.561 21.9729C107.9 21.7001 108.189 21.3423 108.426 20.8997H108.519V22.5676H112.503V14.4436C112.503 13.8931 112.377 13.3836 112.125 12.9153C111.878 12.4417 111.518 12.029 111.044 11.679C110.571 11.3238 109.996 11.0484 109.322 10.8528C108.647 10.6521 107.886 10.552 107.036 10.552ZM106.751 16.5169C107.896 16.5169 108.825 17.4449 108.825 18.5901C108.825 19.7355 106.751 20.6643 106.751 20.6643C106.728 20.6537 104.678 19.7289 104.678 18.5901C104.678 17.4449 105.606 16.517 106.751 16.5169Z" fill="white"/>
<path d="M127.047 10.552C128.226 10.552 129.209 10.737 129.997 11.1077C130.784 11.4732 131.384 11.9628 131.796 12.5754C132.202 13.1829 132.432 13.847 132.483 14.5676H128.56C128.509 14.2024 128.357 13.9321 128.105 13.7571C127.848 13.577 127.516 13.4866 127.109 13.4866C126.738 13.4866 126.434 13.5689 126.197 13.7337C125.961 13.8983 125.843 14.135 125.843 14.4436V14.4749C125.843 14.7013 125.933 14.8837 126.113 15.0227C126.293 15.1565 126.586 15.2629 126.993 15.3401C127.394 15.4122 127.928 15.4732 128.592 15.5247C129.204 15.571 129.775 15.672 130.305 15.8264C130.831 15.9809 131.292 16.2049 131.688 16.4983C132.084 16.7917 132.393 17.17 132.614 17.6331C132.835 18.0912 132.946 18.6446 132.946 19.2932C132.946 20.0809 132.781 20.7299 132.452 21.2395C132.123 21.7489 131.67 22.1299 131.094 22.3821C130.512 22.6292 129.842 22.7522 129.086 22.7522C128.571 22.7522 128.1 22.6911 127.673 22.5676C127.24 22.4441 126.857 22.2456 126.522 21.9729C126.183 21.7001 125.894 21.3423 125.657 20.8997H125.564V22.5676H121.58V14.4436C121.58 13.8931 121.706 13.3836 121.958 12.9153C122.205 12.4417 122.565 12.029 123.039 11.679C123.512 11.3238 124.087 11.0484 124.761 10.8528C125.436 10.6521 126.197 10.552 127.047 10.552ZM127.332 16.5169C126.187 16.5169 125.258 17.4449 125.258 18.5901C125.258 19.7355 127.332 20.6643 127.332 20.6643C127.347 20.6576 129.406 19.7314 129.406 18.5901C129.406 17.4449 128.477 16.5169 127.332 16.5169Z" fill="white"/>
</svg>
