<svg width="341" height="348" viewBox="0 0 341 348" fill="none" xmlns="http://www.w3.org/2000/svg">
<g filter="url(#filter0_g_8_479)">
<g filter="url(#filter1_g_8_479)">
<path d="M96.7359 120.842C97.9007 118.621 98.3481 115.283 97.0099 111.262C87.6771 102.299 54.448 96.8934 39 95.3109C63.6196 92.0092 83.6191 97.8982 90.5414 101.255C84.3018 94.7676 73.3349 87.6285 55.0009 80.9123C63.761 82.0628 80.5262 86.4192 97.7472 95.7318C97.1557 95.4137 94.6228 92.3654 108.223 87.4462C106.111 90.9175 102.975 98.576 107.333 101.439C109.398 102.791 111.45 104.22 113.475 105.729C109.467 102.474 110.07 91.1709 144.541 72C134.259 79.2683 117.324 98.271 131.835 116.135L96.7359 120.842Z" fill="#1F1F1F"/>
<path d="M211.997 129.804C210.832 127.583 210.385 124.244 211.723 120.224C221.056 111.261 254.285 105.855 269.733 104.273C245.114 100.971 225.114 106.86 218.192 110.217C224.431 103.729 235.398 96.5904 253.732 89.8742C244.972 91.0247 228.207 95.3811 210.986 104.694C211.578 104.376 214.11 101.327 200.51 96.4081C202.623 99.8794 205.759 107.538 201.401 110.401C199.335 111.753 197.283 113.182 195.258 114.69C199.266 111.435 198.663 100.133 164.192 80.9619C174.474 88.2302 191.409 107.233 176.898 125.097L211.997 129.804Z" fill="#1F1F1F"/>
<path d="M140.407 130.795C139.497 128.608 139.293 125.302 140.72 121.294C149.56 112.265 179.492 106.417 193.353 104.622C171.601 101.704 153.433 107.839 147.067 111.271C153.006 104.743 163.197 97.4996 179.929 90.5685C172.054 91.8378 156.857 96.4045 140.966 105.895C141.512 105.571 143.947 102.51 132.11 97.8271C133.792 101.241 136.141 108.794 132.09 111.698C130.171 113.069 128.259 114.517 126.366 116.043C130.127 112.755 130.248 101.55 100.639 83.0308C109.38 90.0925 123.369 108.7 109.395 126.636L140.407 130.795Z" fill="#1F1F1F"/>
<path d="M72.8393 127.484C72.8393 113.988 83.7801 103.047 97.2762 103.047H234.19C247.687 103.047 258.627 113.988 258.627 127.484V235.82C258.627 249.316 247.687 260.257 234.19 260.257H97.2762C83.7801 260.257 72.8393 249.316 72.8393 235.82V127.484Z" fill="#FA0201"/>
<path d="M159.139 155.736C159.139 168.222 149.017 178.344 136.531 178.344C124.045 178.344 113.922 168.222 113.922 155.736C113.922 143.249 124.045 133.127 136.531 133.127C149.017 133.127 159.139 143.249 159.139 155.736Z" fill="white"/>
<path d="M151.136 155.736C151.136 163.802 144.597 170.341 136.531 170.341C128.465 170.341 121.926 163.802 121.926 155.736C121.926 147.67 128.465 141.131 136.531 141.131C144.597 141.131 151.136 147.67 151.136 155.736Z" fill="#1F1F1F"/>
<path d="M136.531 147.33L138.801 153.466L144.936 155.736L138.801 158.006L136.531 164.141L134.261 158.006L128.126 155.736L134.261 153.466L136.531 147.33Z" fill="white"/>
<path d="M221.289 155.736C221.289 168.222 211.167 178.344 198.681 178.344C186.194 178.344 176.072 168.222 176.072 155.736C176.072 143.249 186.194 133.127 198.681 133.127C211.167 133.127 221.289 143.249 221.289 155.736Z" fill="white"/>
<path d="M213.286 155.736C213.286 163.802 206.747 170.341 198.681 170.341C190.614 170.341 184.076 163.802 184.076 155.736C184.076 147.67 190.614 141.131 198.681 141.131C206.747 141.131 213.286 147.67 213.286 155.736Z" fill="#1F1F1F"/>
<path d="M198.681 147.33L200.951 153.466L207.086 155.736L200.951 158.006L198.681 164.141L196.41 158.006L190.275 155.736L196.41 153.466L198.681 147.33Z" fill="white"/>
<path d="M153.514 202.412C154.013 199.743 156.343 197.809 159.058 197.809H171.858C174.489 197.809 176.77 199.628 177.356 202.192L183.368 228.509C184.174 232.04 181.492 235.404 177.87 235.404H154.139C150.609 235.404 147.947 232.198 148.595 228.729L153.514 202.412Z" fill="white"/>
<path d="M178.592 203.116C177.996 200.363 179.522 197.593 182.168 196.626L195.703 191.681C198.173 190.779 200.94 191.704 202.371 193.912L217.048 216.567C219.018 219.607 217.652 223.688 214.251 224.93L191.66 233.184C188.447 234.358 184.937 232.424 184.213 229.081L178.592 203.116Z" fill="white"/>
<path d="M152.862 203.116C153.458 200.363 151.931 197.593 149.286 196.626L135.751 191.681C133.28 190.779 130.513 191.704 129.083 193.912L114.405 216.567C112.436 219.607 113.801 223.688 117.203 224.93L139.794 233.184C143.007 234.358 146.517 232.424 147.241 229.081L152.862 203.116Z" fill="white"/>
<path d="M72.8393 127.484C72.8393 113.988 83.7801 103.047 97.2762 103.047H234.19C247.687 103.047 258.627 113.988 258.627 127.484V235.82C258.627 249.316 247.687 260.257 234.19 260.257H97.2762C83.7801 260.257 72.8393 249.316 72.8393 235.82V127.484Z" fill="#FA0201"/>
<path d="M159.139 155.736C159.139 168.222 149.017 178.344 136.531 178.344C124.045 178.344 113.922 168.222 113.922 155.736C113.922 143.249 124.045 133.127 136.531 133.127C149.017 133.127 159.139 143.249 159.139 155.736Z" fill="white"/>
<path d="M151.136 155.736C151.136 163.802 144.597 170.341 136.531 170.341C128.465 170.341 121.926 163.802 121.926 155.736C121.926 147.67 128.465 141.131 136.531 141.131C144.597 141.131 151.136 147.67 151.136 155.736Z" fill="#1F1F1F"/>
<path d="M136.531 147.33L138.801 153.466L144.936 155.736L138.801 158.006L136.531 164.141L134.261 158.006L128.126 155.736L134.261 153.466L136.531 147.33Z" fill="white"/>
<path d="M221.274 155.736C221.274 168.222 211.152 178.344 198.666 178.344C186.179 178.344 176.057 168.222 176.057 155.736C176.057 143.249 186.179 133.127 198.666 133.127C211.152 133.127 221.274 143.249 221.274 155.736Z" fill="white"/>
<path d="M213.271 155.736C213.271 163.802 206.732 170.341 198.666 170.341C190.6 170.341 184.061 163.802 184.061 155.736C184.061 147.67 190.6 141.131 198.666 141.131C206.732 141.131 213.271 147.67 213.271 155.736Z" fill="#1F1F1F"/>
<path d="M198.666 147.33L200.936 153.466L207.071 155.736L200.936 158.006L198.666 164.141L196.396 158.006L190.261 155.736L196.396 153.466L198.666 147.33Z" fill="white"/>
<path d="M168.232 213.283C151.934 214.125 136.144 206.972 129.597 203.761C126.786 202.808 125.017 202.582 126.106 206.119C126.976 208.948 131.88 213.888 134.223 216.004C148.098 226.932 163.001 227.432 168.549 226.932C192.628 224.76 203.144 209.719 204.735 207.298C206.821 204.123 205.232 202.561 202.322 203.577C199.411 204.594 188.604 212.231 168.232 213.283Z" fill="white"/>
<path d="M247.394 148.444C247.394 152.135 248.648 151.076 244.958 151.076C241.268 151.076 242.048 152.418 242.048 148.727C242.048 145.037 240.231 144.869 243.922 144.869C247.612 144.869 247.394 144.754 247.394 148.444Z" fill="#1F1F1F"/>
<path d="M176.364 109.359C174.136 108.09 172.049 106.129 171.353 103.691C175.947 97.9957 205.439 93.4288 219.61 91.8573C194.14 90.9096 177.696 95.2204 172.657 97.4943C175.484 93.3927 182.564 88.7112 196.986 83.9783C189.075 85.0195 175.003 88.2892 162.945 94.5155C163.36 94.3028 164.302 92.392 148.697 90.0336C152.463 92.0047 159.293 96.4159 156.492 98.2916C155.162 99.1778 153.884 100.109 152.671 101.086C154.938 98.9924 148.755 92.3172 105.885 82.3667C119.44 86.2535 145.25 96.8234 140.051 108.008L176.364 109.359Z" fill="#1F1F1F"/>
<path d="M198.495 109.359C196.267 108.09 194.18 106.129 193.484 103.691C198.079 97.9957 227.57 93.4288 241.742 91.8573C216.271 90.9096 199.827 95.2204 194.788 97.4943C197.615 93.3927 204.695 88.7112 219.117 83.9783C211.207 85.0195 197.134 88.2892 185.076 94.5155C185.491 94.3028 186.433 92.392 170.829 90.0336C174.594 92.0047 181.424 96.4159 178.624 98.2916C177.294 99.1778 176.015 100.109 174.802 101.086C177.069 98.9924 170.887 92.3172 128.017 82.3667C141.571 86.2535 167.381 96.8234 162.183 108.008L198.495 109.359Z" fill="#1F1F1F"/>
<path d="M221.008 109.359C218.78 108.09 216.693 106.129 215.997 103.691C220.592 97.9957 250.083 93.4288 264.255 91.8573C238.784 90.9096 222.34 95.2204 217.301 97.4943C220.128 93.3927 227.208 88.7112 241.63 83.9783C233.72 85.0195 219.647 88.2892 207.589 94.5155C208.004 94.3028 208.946 92.392 193.342 90.0336C197.107 92.0047 203.937 96.4159 201.137 98.2916C199.807 99.1778 198.528 100.109 197.315 101.086C199.582 98.9924 193.4 92.3172 150.53 82.3667C164.084 86.2535 189.894 96.8234 184.696 108.008L221.008 109.359Z" fill="#1F1F1F"/>
<path d="M149.857 113.599C147.628 112.33 145.541 110.37 144.845 107.932C149.44 102.236 178.931 97.6693 193.103 96.0978C167.632 95.1501 151.188 99.4609 146.15 101.735C148.976 97.6332 156.057 92.9517 170.479 88.2187C162.568 89.2599 148.495 92.5297 136.437 98.756C136.852 98.5432 137.794 96.6324 122.19 94.2741C125.955 96.2452 132.785 100.656 129.985 102.532C128.655 103.418 127.376 104.349 126.163 105.327C128.431 103.233 122.248 96.5577 79.3778 86.6071C92.9325 90.494 118.742 101.064 113.544 112.248L149.857 113.599Z" fill="#1F1F1F"/>
<path d="M124.92 115.991C122.692 114.722 120.605 112.761 119.908 110.323C124.503 104.628 153.995 100.061 168.166 98.4893C142.696 97.5416 126.251 101.852 121.213 104.126C124.04 100.025 131.12 95.3432 145.542 90.6103C137.631 91.6515 123.559 94.9212 111.5 101.148C111.916 100.935 112.858 99.024 97.2534 96.6656C101.019 98.6367 107.849 103.048 105.048 104.924C103.718 105.81 102.44 106.741 101.227 107.718C103.494 105.624 97.3112 98.9492 54.4413 88.9987C67.996 92.8855 93.8059 103.455 88.6074 114.64L124.92 115.991Z" fill="#1F1F1F"/>
<path d="M180.652 112.142C178.424 110.873 176.337 108.912 175.641 106.474C180.236 100.779 209.727 96.2117 223.899 94.6402C198.428 93.6925 181.984 98.0034 176.945 100.277C179.772 96.1756 186.852 91.4941 201.274 86.7612C193.364 87.8024 179.291 91.0721 167.233 97.2985C167.648 97.0857 168.59 95.1749 152.986 92.8165C156.751 94.7877 163.581 99.1988 160.781 101.075C159.451 101.961 158.172 102.892 156.959 103.869C159.226 101.775 153.043 95.1002 110.174 85.1496C123.728 89.0365 149.538 99.6063 144.34 110.791L180.652 112.142Z" fill="#1F1F1F"/>
<path d="M213.416 118.839C211.188 117.569 209.101 115.609 208.404 113.171C212.999 107.475 242.491 102.908 256.662 101.337C231.192 100.389 214.747 104.7 209.709 106.974C212.535 102.872 219.616 98.1908 234.038 93.4578C226.127 94.499 212.055 97.7688 199.996 103.995C200.412 103.782 201.354 101.872 185.749 99.5132C189.514 101.484 196.345 105.895 193.544 107.771C192.214 108.657 190.936 109.588 189.723 110.566C191.99 108.472 185.807 101.797 142.937 91.8462C156.492 95.7331 182.302 106.303 177.103 117.487L213.416 118.839Z" fill="#1F1F1F"/>
<path d="M232.346 118.839C230.117 117.569 228.03 115.609 227.334 113.171C231.929 107.475 261.421 102.908 275.592 101.337C250.122 100.389 233.677 104.7 228.639 106.974C231.465 102.872 238.546 98.1908 252.968 93.4578C245.057 94.499 230.984 97.7688 218.926 103.995C219.341 103.782 220.283 101.872 204.679 99.5132C208.444 101.484 215.275 105.895 212.474 107.771C211.144 108.657 209.865 109.588 208.652 110.566C210.92 108.472 204.737 101.797 161.867 91.8462C175.422 95.7331 201.232 106.303 196.033 117.487L232.346 118.839Z" fill="#1F1F1F"/>
<path d="M152.787 117.487C150.558 116.218 148.471 114.258 147.775 111.82C152.37 106.124 181.862 101.557 196.033 99.9858C170.563 99.0381 154.118 103.349 149.08 105.623C151.906 101.521 158.987 96.8397 173.409 92.1067C165.498 93.148 151.426 96.4177 139.367 102.644C139.782 102.431 140.724 100.52 125.12 98.1621C128.885 100.133 135.716 104.544 132.915 106.42C131.585 107.306 130.306 108.237 129.094 109.215C131.361 107.121 125.178 100.446 82.3081 90.4952C95.8628 94.382 124.694 99.6063 119.495 110.791L152.787 117.487Z" fill="#1F1F1F"/>
<path d="M258.618 118.985C256.39 117.716 254.303 115.756 253.607 113.318C258.202 107.622 287.693 103.055 301.865 101.484C276.394 100.536 259.95 104.847 254.911 107.121C257.738 103.019 264.818 98.3376 279.24 93.6047C271.33 94.6459 257.257 97.9156 245.199 104.142C245.614 103.929 246.556 102.018 230.952 99.6601C234.717 101.631 241.547 106.042 238.747 107.918C237.417 108.804 236.138 109.735 234.925 110.713C237.192 108.619 231.009 101.944 188.14 91.9931C201.694 95.88 227.504 106.45 222.306 117.634L258.618 118.985Z" fill="#1F1F1F"/>
<path d="M129.958 107.901C127.729 106.632 125.642 104.672 124.946 102.234C129.541 96.5381 159.032 91.9712 173.204 90.3997C147.733 89.4521 131.289 93.7629 126.251 96.0368C129.077 91.9352 136.157 87.2537 150.58 82.5207C142.669 83.5619 128.596 86.8317 116.538 93.058C116.953 92.8452 117.895 90.9344 102.291 88.5761C106.056 90.5472 112.886 94.9583 110.086 96.8341C108.756 97.7202 107.477 98.6513 106.264 99.6287C108.531 97.5349 102.349 90.8597 59.4788 80.9091C73.0335 84.796 98.8433 95.3658 93.6449 106.55L129.958 107.901Z" fill="#1F1F1F"/>
<path d="M110.103 118.839C107.874 117.569 105.787 115.609 105.091 113.171C109.686 107.475 139.177 102.908 153.349 101.337C127.878 100.389 111.434 104.7 106.396 106.974C109.222 102.872 116.303 98.1908 130.725 93.4578C122.814 94.499 108.741 97.7688 96.683 103.995C97.0981 103.782 98.0401 101.872 82.4359 99.5132C86.2011 101.484 93.0313 105.895 90.2308 107.771C88.9008 108.657 87.6222 109.588 86.4092 110.566C88.6765 108.472 82.4937 101.797 39.6238 91.8462C53.1785 95.7331 78.9884 106.303 73.7899 117.487L110.103 118.839Z" fill="#1F1F1F"/>
<path d="M257.649 113.599C255.421 112.33 253.334 110.37 252.638 107.932C257.232 102.236 286.724 97.6693 300.895 96.0978C275.425 95.1501 258.981 99.4609 253.942 101.735C256.769 97.6332 263.849 92.9517 278.271 88.2187C270.36 89.2599 256.288 92.5297 244.23 98.756C244.645 98.5432 245.587 96.6324 229.982 94.2741C233.748 96.2452 240.578 100.656 237.777 102.532C236.447 103.418 235.169 104.349 233.956 105.327C236.223 103.233 230.04 96.5577 187.17 86.6071C200.725 90.494 226.535 101.064 221.336 112.248L257.649 113.599Z" fill="#1F1F1F"/>
<path d="M184.764 118.489C182.536 117.22 180.449 115.259 179.753 112.821C184.348 107.126 213.839 102.559 228.011 100.987C202.54 100.039 186.096 104.35 181.057 106.624C183.884 102.523 190.964 97.8411 205.386 93.1081C197.476 94.1493 183.403 97.4191 171.345 103.645C171.76 103.433 172.702 101.522 157.098 99.1635C160.863 101.135 167.693 105.546 164.893 107.422C163.563 108.308 162.284 109.239 161.071 110.216C163.338 108.122 157.156 101.447 114.286 91.4965C127.84 95.3834 153.65 105.953 148.452 117.138L184.764 118.489Z" fill="#1F1F1F"/>
</g>
</g>
<defs>
<filter id="filter0_g_8_479" x="-1.8" y="-1.8" width="344.194" height="351.554" filterUnits="userSpaceOnUse" color-interpolation-filters="sRGB">
<feFlood flood-opacity="0" result="BackgroundImageFix"/>
<feBlend mode="normal" in="SourceGraphic" in2="BackgroundImageFix" result="shape"/>
<feTurbulence type="fractalNoise" baseFrequency="0.40000000596046448 0.40000000596046448" numOctaves="3" seed="4640" />
<feDisplacementMap in="shape" scale="3.5999999046325684" xChannelSelector="R" yChannelSelector="G" result="displacedImage" width="100%" height="100%" />
<feMerge result="effect1_texture_8_479">
<feMergeNode in="displacedImage"/>
</feMerge>
</filter>
<filter id="filter1_g_8_479" x="37.2" y="70.2" width="266.465" height="191.857" filterUnits="userSpaceOnUse" color-interpolation-filters="sRGB">
<feFlood flood-opacity="0" result="BackgroundImageFix"/>
<feBlend mode="normal" in="SourceGraphic" in2="BackgroundImageFix" result="shape"/>
<feTurbulence type="fractalNoise" baseFrequency="0.40000000596046448 0.40000000596046448" numOctaves="3" seed="4640" />
<feDisplacementMap in="shape" scale="3.5999999046325684" xChannelSelector="R" yChannelSelector="G" result="displacedImage" width="100%" height="100%" />
<feMerge result="effect1_texture_8_479">
<feMergeNode in="displacedImage"/>
</feMerge>
</filter>
</defs>
</svg>
