<svg width="256" height="203" viewBox="0 0 256 203" fill="none" xmlns="http://www.w3.org/2000/svg">
<g filter="url(#filter0_g_8_470)">
<path d="M197.219 88.095C195.373 87.7434 193.501 87.2737 191.611 86.7001C190.919 85.5187 190.266 84.3254 189.65 83.1276C192.292 85.5075 195.045 87.1633 197.219 88.095ZM181.233 56.621C178.478 69.0156 183.791 77.8512 189.65 83.1276C184.55 73.2132 182.009 62.9873 181.233 56.621Z" fill="#1F1F1F"/>
<path d="M28.9716 66.412C28.977 66.3584 28.9802 66.3079 28.9812 66.2606L28.9716 66.412Z" fill="#1F1F1F"/>
<path d="M28.9716 66.412C28.977 66.3584 28.9802 66.3079 28.9812 66.2606L28.9716 66.412ZM181.233 56.621C178.478 69.0156 183.791 77.8512 189.65 83.1276C184.55 73.2132 182.009 62.9873 181.233 56.621Z" fill="#1F1F1F"/>
<path d="M213.023 107.579C203.545 103.046 196.58 95.1797 191.611 86.7001C193.501 87.2737 195.373 87.7434 197.219 88.095C195.045 87.1633 192.292 85.5075 189.65 83.1276C184.55 73.2132 182.009 62.9873 181.233 56.621C178.478 69.0156 183.791 77.8512 189.65 83.1276C190.266 84.3254 190.919 85.5187 191.611 86.7001C167.724 79.449 141.062 55.5907 130.029 43.7421C120.495 63.2682 93.8281 70.4803 81.6862 71.6456C77.8911 84.7747 64.7192 104.639 58.6077 112.93C63.5311 104.93 62.8815 92.4163 61.9413 87.1595C59.6704 92.7677 54.0943 98.8405 47.0356 104.75C33.0512 116.457 13.2478 127.522 1.7998 133.06C21.2236 115.988 28.9812 90.5022 28.9716 66.412C28.977 66.3584 28.9802 66.3079 28.9812 66.2606L28.9716 66.412C28.736 68.7357 24.2135 77.0724 7.57681 93.3138C13.2482 76.092 12.0168 69.0931 10.7463 61.8715C9.66146 55.7058 8.54812 49.3779 11.6778 36.3868C17.1141 13.8211 41.3807 6.12765 52.8344 5.10161C73.0293 -0.0714474 130.969 2.08915 162.298 3.25739C171.346 3.5948 178.174 3.84944 181.233 3.8207C192.15 3.71813 210.789 10.9572 218.743 14.5895C234.437 20.1283 232.89 67.6701 230.154 90.7486C237.232 108.083 248.489 117.46 253.233 119.981C230.052 117.725 216.767 110.773 213.023 107.579Z" fill="#1F1F1F"/>
<path d="M191.611 86.7001C196.58 95.1797 203.545 103.046 213.023 107.579L213.023 175.073C213.023 188.986 201.745 200.264 187.832 200.264H72.2274C58.3147 200.264 47.0362 188.986 47.0361 175.073L47.0356 104.75C54.0943 98.8405 59.6704 92.7677 61.9413 87.1595C62.8815 92.4163 63.5311 104.93 58.6077 112.93C64.7192 104.639 77.8911 84.7747 81.6862 71.6456C93.8281 70.4803 120.495 63.2682 130.029 43.7421C141.062 55.5907 167.724 79.449 191.611 86.7001Z" fill="#002FFF"/>
<path d="M124.139 106.883C124.139 118.038 115.095 127.082 103.94 127.082C92.7842 127.082 83.7408 118.038 83.7408 106.883C83.7408 95.727 92.7842 86.6836 103.94 86.6836C115.095 86.6836 124.139 95.727 124.139 106.883Z" fill="white"/>
<path d="M116.988 106.883C116.988 114.089 111.146 119.931 103.94 119.931C96.7333 119.931 90.8914 114.089 90.8914 106.883C90.8914 99.6762 96.7333 93.8342 103.94 93.8342C111.146 93.8342 116.988 99.6762 116.988 106.883Z" fill="#1F1F1F"/>
<path d="M103.94 99.3732L105.968 104.854L111.449 106.883L105.968 108.911L103.94 114.392L101.912 108.911L96.4303 106.883L101.912 104.854L103.94 99.3732Z" fill="white"/>
<path d="M179.652 106.883C179.652 118.038 170.608 127.082 159.453 127.082C148.297 127.082 139.254 118.038 139.254 106.883C139.254 95.727 148.297 86.6836 159.453 86.6836C170.608 86.6836 179.652 95.727 179.652 106.883Z" fill="white"/>
<path d="M172.501 106.883C172.501 114.089 166.659 119.931 159.453 119.931C152.246 119.931 146.404 114.089 146.404 106.883C146.404 99.6762 152.246 93.8342 159.453 93.8342C166.659 93.8342 172.501 99.6762 172.501 106.883Z" fill="#1F1F1F"/>
<path d="M159.453 99.3732L161.481 104.854L166.962 106.883L161.481 108.911L159.453 114.392L157.424 108.911L151.943 106.883L157.424 104.854L159.453 99.3732Z" fill="white"/>
<path d="M132.897 149.201C132.364 146.742 133.728 144.267 136.092 143.403L148.184 138.985C150.392 138.179 152.864 139.005 154.142 140.978L167.255 161.219C169.014 163.934 167.795 167.58 164.756 168.691L144.572 176.065C141.702 177.114 138.566 175.386 137.919 172.399L132.897 149.201Z" fill="white"/>
<path d="M130.509 149.201C131.041 146.742 129.677 144.267 127.313 143.403L115.221 138.985C113.014 138.179 110.542 139.005 109.264 140.978L96.1503 161.219C94.3911 163.934 95.6108 167.58 98.6498 168.691L118.833 176.065C121.704 177.114 124.84 175.386 125.486 172.399L130.509 149.201Z" fill="white"/>
</g>
<defs>
<filter id="filter0_g_8_470" x="-0.000195265" y="4.88758e-05" width="255.033" height="202.064" filterUnits="userSpaceOnUse" color-interpolation-filters="sRGB">
<feFlood flood-opacity="0" result="BackgroundImageFix"/>
<feBlend mode="normal" in="SourceGraphic" in2="BackgroundImageFix" result="shape"/>
<feTurbulence type="fractalNoise" baseFrequency="0.40000000596046448 0.40000000596046448" numOctaves="3" seed="4640" />
<feDisplacementMap in="shape" scale="3.5999999046325684" xChannelSelector="R" yChannelSelector="G" result="displacedImage" width="100%" height="100%" />
<feMerge result="effect1_texture_8_470">
<feMergeNode in="displacedImage"/>
</feMerge>
</filter>
</defs>
</svg>
