<svg width="212" height="245" viewBox="0 0 212 245" fill="none" xmlns="http://www.w3.org/2000/svg">
<g filter="url(#filter0_g_8_483)">
<path d="M159.042 159.959L158.029 152.525L156.983 144.84" stroke="#1F1F1F" stroke-width="5" stroke-linecap="round" stroke-linejoin="round"/>
<path d="M130.49 149.473V156.963V164.705" stroke="#1F1F1F" stroke-width="5" stroke-linecap="round" stroke-linejoin="round"/>
<path d="M98.9683 149.473V156.963V164.705" stroke="#1F1F1F" stroke-width="5" stroke-linecap="round" stroke-linejoin="round"/>
<path d="M72.0371 144.85L70.9372 152.274L69.8004 159.948" stroke="#1F1F1F" stroke-width="5" stroke-linecap="round" stroke-linejoin="round"/>
<path d="M48.8311 148.326C67.553 154.939 119.607 164.196 178.047 148.326" stroke="#1F1F1F" stroke-width="5" stroke-linecap="round" stroke-linejoin="round"/>
<g filter="url(#filter1_n_8_483)">
<path d="M154.389 13.3987C132.037 2.96457 119.38 2.40212 109.28 1.95339C81.4237 0.351948 57.5487 11.6889 49.0933 17.5575C34.869 25.2857 24.0977 38.6275 17.2935 49.7876C11.8521 58.7123 7.80209 67.687 5.01523 77.7614C2.78026 85.8406 1.7998 95.0282 1.7998 103.411V183.714C1.7998 210.642 11.6938 252.833 33.5195 237.061C35.1594 235.876 36.6067 234.576 37.7927 233.311C39.9278 230.346 42.1982 228.45 44.4815 227.349C56.6922 221.461 65.8369 244.318 79.2412 242.293C84.9091 241.436 89.856 237.016 92.6165 233.311C102.829 220.588 113.473 228.01 117.519 233.311C129.238 250.722 142.352 240.566 147.444 233.311C149.27 230.423 151.242 228.529 153.271 227.405C168.097 219.192 188.18 249.444 200.731 238.053C210.669 229.035 209.178 216.269 209.178 202.849C209.178 202.849 211.313 124.23 209.178 100.846C207.043 77.4607 205.411 78.3145 203.318 70.2926C194.738 42.251 170.633 20.9813 154.389 13.3987Z" fill="#00F7FF"/>
</g>
<ellipse cx="77.9041" cy="96.8625" rx="25.8397" ry="23.3047" fill="white"/>
<ellipse cx="77.9042" cy="96.8625" rx="16.6923" ry="15.0547" fill="#1F1F1F"/>
<path d="M83.9039 92.1985L84.6668 97.6255L87.8112 92.9475L86.0607 98.1852L91.0429 95.0652L87.0816 99.2079L93.0402 98.1852L87.5531 100.517L93.4578 101.768L87.3936 101.885L92.2234 105.195L86.6307 103.077L89.5504 107.872L85.3963 103.886L85.9012 109.337L83.9039 104.172L81.9066 109.337L82.4114 103.886L78.2573 107.872L81.177 103.077L75.5844 105.195L80.4141 101.885L74.35 101.768L80.2546 100.517L74.7675 98.1852L80.7261 99.2079L76.7648 95.0652L81.7471 98.1852L79.9966 92.9475L83.141 97.6255L83.9039 92.1985Z" fill="white"/>
<ellipse cx="134.018" cy="96.8625" rx="25.8397" ry="23.3047" fill="white"/>
<ellipse cx="134.018" cy="96.8625" rx="16.6923" ry="15.0547" fill="#1F1F1F"/>
<path d="M140.019 92.1985L140.782 97.6255L143.926 92.9475L142.175 98.1852L147.158 95.0652L143.196 99.2079L149.155 98.1852L143.668 100.517L149.573 101.768L143.508 101.885L148.338 105.195L142.745 103.077L145.665 107.872L141.511 103.886L142.016 109.337L140.019 104.172L138.021 109.337L138.526 103.886L134.372 107.872L137.292 103.077L131.699 105.195L136.529 101.885L130.465 101.768L136.369 100.517L130.882 98.1852L136.841 99.2079L132.88 95.0652L137.862 98.1852L136.111 92.9475L139.256 97.6255L140.019 92.1985Z" fill="white"/>
<path d="M29.765 165.66C27.7968 151.302 40.1759 139.081 54.5076 141.234L87.2598 146.153C99.0747 147.927 111.087 147.946 122.907 146.21L156.437 141.284C171.036 139.139 183.452 151.916 180.888 166.447C179.275 175.59 172.012 182.683 162.803 183.856C147.276 185.834 123.086 188.489 105.079 188.489C87.3375 188.489 63.5916 185.912 48.0454 183.944C38.4941 182.735 31.0725 175.199 29.765 165.66Z" fill="#FFDD00"/>
<path d="M34.6479 166.023C32.8045 154.84 42.2374 145.03 53.4837 146.435L90.8559 151.102C100.341 152.287 109.935 152.3 119.423 151.14L157.491 146.49C168.997 145.084 178.466 155.421 176.06 166.759C174.568 173.792 168.8 179.106 161.653 179.882C147.327 181.437 122.986 183.754 105.137 183.754C87.555 183.754 63.6739 181.506 49.2708 179.952C41.8088 179.147 35.8687 173.428 34.6479 166.023Z" fill="#1F1F1F"/>
<path d="M145.387 172.414L144.512 164.98L143.608 157.295" stroke="#FFA900" stroke-width="5" stroke-linecap="round" stroke-linejoin="round"/>
<path d="M120.709 161.928V169.418V177.16" stroke="#FFA900" stroke-width="5" stroke-linecap="round" stroke-linejoin="round"/>
<path d="M93.4556 161.928V169.418V177.16" stroke="#FFA900" stroke-width="5" stroke-linecap="round" stroke-linejoin="round"/>
<path d="M70.1855 157.305L69.2349 164.729L68.2523 172.403" stroke="#FFA900" stroke-width="5" stroke-linecap="round" stroke-linejoin="round"/>
<path d="M50.1201 160.781C66.3022 167.394 111.294 176.651 161.806 160.781" stroke="#FFA900" stroke-width="5" stroke-linecap="round" stroke-linejoin="round"/>
</g>
<defs>
<filter id="filter0_g_8_483" x="-0.000195265" y="4.88758e-05" width="211.927" height="244.725" filterUnits="userSpaceOnUse" color-interpolation-filters="sRGB">
<feFlood flood-opacity="0" result="BackgroundImageFix"/>
<feBlend mode="normal" in="SourceGraphic" in2="BackgroundImageFix" result="shape"/>
<feTurbulence type="fractalNoise" baseFrequency="0.40000000596046448 0.40000000596046448" numOctaves="3" seed="4640" />
<feDisplacementMap in="shape" scale="3.5999999046325684" xChannelSelector="R" yChannelSelector="G" result="displacedImage" width="100%" height="100%" />
<feMerge result="effect1_texture_8_483">
<feMergeNode in="displacedImage"/>
</feMerge>
</filter>
<filter id="filter1_n_8_483" x="1.7998" y="1.80005" width="208.327" height="241.125" filterUnits="userSpaceOnUse" color-interpolation-filters="sRGB">
<feFlood flood-opacity="0" result="BackgroundImageFix"/>
<feBlend mode="normal" in="SourceGraphic" in2="BackgroundImageFix" result="shape"/>
<feTurbulence type="fractalNoise" baseFrequency="0.38461539149284363 0.38461539149284363" stitchTiles="stitch" numOctaves="3" result="noise" seed="1179" />
<feColorMatrix in="noise" type="luminanceToAlpha" result="alphaNoise" />
<feComponentTransfer in="alphaNoise" result="coloredNoise1">
<feFuncA type="discrete" tableValues="0 0 0 0 0 0 0 0 0 0 0 0 0 0 0 1 1 1 1 1 1 1 1 1 1 1 1 1 1 1 1 1 1 1 1 0 0 0 0 0 0 0 0 0 0 0 0 0 0 0 0 0 0 0 0 0 0 0 0 0 0 0 0 0 0 0 0 0 0 0 0 0 0 0 0 0 0 0 0 0 0 0 0 0 0 0 0 0 0 0 0 0 0 0 0 0 0 0 0 0 "/>
</feComponentTransfer>
<feComposite operator="in" in2="shape" in="coloredNoise1" result="noise1Clipped" />
<feComponentTransfer in="alphaNoise" result="coloredNoise2">
<feFuncA type="discrete" tableValues="0 0 0 0 0 0 0 0 0 0 0 0 0 0 0 0 0 0 0 0 0 0 0 0 0 0 0 0 0 0 0 0 0 0 0 0 0 0 0 0 0 0 0 0 0 0 0 0 0 0 0 0 0 0 0 0 0 0 0 0 0 0 0 0 0 1 1 1 1 1 1 1 1 1 1 1 1 1 1 1 1 1 1 1 1 0 0 0 0 0 0 0 0 0 0 0 0 0 0 0 "/>
</feComponentTransfer>
<feComposite operator="in" in2="shape" in="coloredNoise2" result="noise2Clipped" />
<feFlood flood-color="rgba(0, 0, 0, 0.25)" result="color1Flood" />
<feComposite operator="in" in2="noise1Clipped" in="color1Flood" result="color1" />
<feFlood flood-color="rgba(0, 119, 255, 0.45)" result="color2Flood" />
<feComposite operator="in" in2="noise2Clipped" in="color2Flood" result="color2" />
<feMerge result="effect1_noise_8_483">
<feMergeNode in="shape" />
<feMergeNode in="color1" />
<feMergeNode in="color2" />
</feMerge>
</filter>
</defs>
</svg>
