<svg width="218" height="185" viewBox="0 0 218 185" fill="none" xmlns="http://www.w3.org/2000/svg">
<g filter="url(#filter0_g_8_485)">
<path d="M1.7998 29.9001C1.7998 14.3809 14.3806 1.80005 29.8999 1.80005H187.338C202.857 1.80005 215.438 14.3809 215.438 29.9001V154.476C215.438 169.995 202.857 182.576 187.338 182.576H29.8999C14.3806 182.576 1.7998 169.995 1.7998 154.476V29.9001Z" fill="#002FFF"/>
<path d="M101.037 62.3866C101.037 76.7447 89.397 88.3842 75.039 88.3842C60.6809 88.3842 49.0413 76.7447 49.0413 62.3866C49.0413 48.0285 60.6809 36.389 75.039 36.389C89.397 36.389 101.037 48.0285 101.037 62.3866Z" fill="white"/>
<path d="M91.8333 62.3866C91.8333 71.6618 84.3142 79.1809 75.039 79.1809C65.7637 79.1809 58.2447 71.6618 58.2447 62.3866C58.2447 53.1113 65.7637 45.5923 75.039 45.5923C84.3142 45.5923 91.8333 53.1113 91.8333 62.3866Z" fill="#1F1F1F"/>
<path d="M75.039 52.7214L77.6494 59.7761L84.7042 62.3866L77.6494 64.9971L75.039 72.0518L72.4285 64.9971L65.3737 62.3866L72.4285 59.7761L75.039 52.7214Z" fill="white"/>
<path d="M172.503 62.3866C172.503 76.7447 160.863 88.3842 146.505 88.3842C132.147 88.3842 120.507 76.7447 120.507 62.3866C120.507 48.0285 132.147 36.389 146.505 36.389C160.863 36.389 172.503 48.0285 172.503 62.3866Z" fill="white"/>
<path d="M163.299 62.3866C163.299 71.6618 155.78 79.1809 146.505 79.1809C137.23 79.1809 129.711 71.6618 129.711 62.3866C129.711 53.1113 137.23 45.5923 146.505 45.5923C155.78 45.5923 163.299 53.1113 163.299 62.3866Z" fill="#1F1F1F"/>
<path d="M146.505 52.7214L149.115 59.7761L156.17 62.3866L149.115 64.9971L146.505 72.0518L143.894 64.9971L136.84 62.3866L143.894 59.7761L146.505 52.7214Z" fill="white"/>
<path d="M94.5684 116.06C95.142 112.991 97.8208 110.767 100.943 110.767H115.662C118.687 110.767 121.31 112.858 121.984 115.807L128.897 146.069C129.824 150.129 126.739 153.998 122.575 153.998H95.2862C91.2275 153.998 88.1663 150.311 88.912 146.322L94.5684 116.06Z" fill="white"/>
<path d="M123.405 116.87C122.719 113.704 124.475 110.518 127.517 109.407L143.081 103.721C145.922 102.682 149.103 103.747 150.748 106.285L167.626 132.337C169.891 135.832 168.321 140.525 164.409 141.954L138.432 151.445C134.737 152.795 130.701 150.571 129.869 146.726L123.405 116.87Z" fill="white"/>
<path d="M93.818 116.87C94.5033 113.704 92.7478 110.518 89.7055 109.407L74.1422 103.721C71.3009 102.682 68.1193 103.747 66.4746 106.285L49.5964 132.337C47.3322 135.832 48.902 140.525 52.8134 141.954L78.791 151.445C82.4858 152.795 86.5219 150.571 87.3542 146.726L93.818 116.87Z" fill="white"/>
<path d="M1.7998 29.9001C1.7998 14.3809 14.3806 1.80005 29.8999 1.80005H187.338C202.857 1.80005 215.438 14.3809 215.438 29.9001V154.476C215.438 169.995 202.857 182.576 187.338 182.576H29.8999C14.3806 182.576 1.7998 169.995 1.7998 154.476V29.9001Z" fill="#002FFF"/>
<path d="M101.037 62.3866C101.037 76.7447 89.397 88.3842 75.039 88.3842C60.6809 88.3842 49.0413 76.7447 49.0413 62.3866C49.0413 48.0285 60.6809 36.389 75.039 36.389C89.397 36.389 101.037 48.0285 101.037 62.3866Z" fill="white"/>
<path d="M91.8333 62.3866C91.8333 71.6618 84.3142 79.1809 75.039 79.1809C65.7637 79.1809 58.2447 71.6618 58.2447 62.3866C58.2447 53.1113 65.7637 45.5923 75.039 45.5923C84.3142 45.5923 91.8333 53.1113 91.8333 62.3866Z" fill="#1F1F1F"/>
<path d="M75.039 52.7214L77.6494 59.7761L84.7042 62.3866L77.6494 64.9971L75.039 72.0518L72.4285 64.9971L65.3737 62.3866L72.4285 59.7761L75.039 52.7214Z" fill="white"/>
<path d="M172.486 62.3866C172.486 76.7447 160.846 88.3842 146.488 88.3842C132.13 88.3842 120.49 76.7447 120.49 62.3866C120.49 48.0285 132.13 36.389 146.488 36.389C160.846 36.389 172.486 48.0285 172.486 62.3866Z" fill="white"/>
<path d="M163.282 62.3866C163.282 71.6618 155.763 79.1809 146.488 79.1809C137.213 79.1809 129.694 71.6618 129.694 62.3866C129.694 53.1113 137.213 45.5923 146.488 45.5923C155.763 45.5923 163.282 53.1113 163.282 62.3866Z" fill="#1F1F1F"/>
<path d="M146.488 52.7214L149.099 59.7761L156.153 62.3866L149.099 64.9971L146.488 72.0518L143.878 64.9971L136.823 62.3866L143.878 59.7761L146.488 52.7214Z" fill="white"/>
<path d="M204.005 106.39C204.005 121.14 192.048 133.097 177.299 133.097C162.549 133.097 150.592 121.14 150.592 106.39C150.592 91.6402 162.549 79.6832 177.299 79.6832C192.048 79.6832 204.005 91.6402 204.005 106.39Z" fill="#FFA900"/>
<path d="M68.0139 106.39C68.0139 121.14 56.0569 133.097 41.3071 133.097C26.5573 133.097 14.6002 121.14 14.6002 106.39C14.6002 91.6402 26.5573 79.6832 41.3071 79.6832C56.0569 79.6832 68.0139 91.6402 68.0139 106.39Z" fill="#FFA900"/>
<path d="M111.492 128.561C92.7511 129.528 74.5946 121.304 67.0661 117.611C63.8334 116.516 61.7996 116.255 63.0511 120.322C64.0522 123.576 69.6906 129.256 72.3846 131.689C88.3404 144.255 105.477 144.831 111.857 144.255C139.545 141.758 151.637 124.462 153.467 121.678C155.865 118.028 154.038 116.231 150.692 117.4C147.345 118.569 134.918 127.351 111.492 128.561Z" fill="white"/>
<path d="M48.9822 107.171C48.9822 111.415 45.5422 114.855 41.2986 114.855C37.0551 114.855 33.615 111.415 33.615 107.171C33.615 102.928 37.0551 99.4874 41.2986 99.4874C45.5422 99.4874 48.9822 102.928 48.9822 107.171Z" fill="#1F1F1F"/>
</g>
<defs>
<filter id="filter0_g_8_485" x="-0.000195265" y="4.88758e-05" width="217.238" height="184.376" filterUnits="userSpaceOnUse" color-interpolation-filters="sRGB">
<feFlood flood-opacity="0" result="BackgroundImageFix"/>
<feBlend mode="normal" in="SourceGraphic" in2="BackgroundImageFix" result="shape"/>
<feTurbulence type="fractalNoise" baseFrequency="0.40000000596046448 0.40000000596046448" numOctaves="3" seed="4640" />
<feDisplacementMap in="shape" scale="3.5999999046325684" xChannelSelector="R" yChannelSelector="G" result="displacedImage" width="100%" height="100%" />
<feMerge result="effect1_texture_8_485">
<feMergeNode in="displacedImage"/>
</feMerge>
</filter>
</defs>
</svg>
