<svg width="1412" height="877" viewBox="0 0 1412 877" fill="none" xmlns="http://www.w3.org/2000/svg">
<g filter="url(#filter0_g_2005_2461)">
<path d="M100.216 312.693C100.216 300.451 92.588 292.874 85.7422 292.874C78.8963 292.874 71.2679 300.451 71.2679 312.693C71.2679 324.934 78.8963 332.511 85.7422 332.511V338.242C74.6063 338.242 65.579 326.803 65.579 312.693C65.579 298.582 74.6063 287.143 85.7422 287.143C96.878 287.143 105.905 298.582 105.905 312.693C105.905 326.803 96.878 338.242 85.7422 338.242V332.511C92.588 332.511 100.216 324.934 100.216 312.693Z" fill="url(#paint0_linear_2005_2461)"/>
<path d="M88.62 288.858C88.62 291.863 86.2015 294.299 83.2181 294.299C80.2347 294.299 77.8162 291.863 77.8162 288.858C77.8162 285.852 80.2347 283.416 83.2181 283.416C86.2015 283.416 88.62 285.852 88.62 288.858Z" fill="url(#paint1_linear_2005_2461)"/>
<path d="M85.7426 253.326C85.7426 239.611 96.7797 228.493 110.395 228.493H248.515C262.13 228.493 273.167 239.611 273.167 253.326V363.418C273.167 377.133 262.13 388.251 248.515 388.251H110.395C96.7797 388.251 85.7426 377.133 85.7426 363.418V253.326Z" fill="#E20000"/>
<path d="M141.469 274.54C141.469 287.229 131.257 297.515 118.661 297.515C106.065 297.515 95.8534 287.229 95.8534 274.54C95.8534 261.851 106.065 251.565 118.661 251.565C131.257 251.565 141.469 261.851 141.469 274.54Z" fill="white"/>
<path d="M133.395 274.54C133.395 282.737 126.798 289.382 118.661 289.382C110.524 289.382 103.927 282.737 103.927 274.54C103.927 266.343 110.524 259.698 118.661 259.698C126.798 259.698 133.395 266.343 133.395 274.54Z" fill="black"/>
<path d="M118.661 265.999L120.951 272.233L127.14 274.54L120.951 276.847L118.661 283.082L116.371 276.847L110.182 274.54L116.371 272.233L118.661 265.999Z" fill="white"/>
<path d="M204.166 274.54C204.166 287.229 193.955 297.515 181.358 297.515C168.762 297.515 158.55 287.229 158.55 274.54C158.55 261.851 168.762 251.565 181.358 251.565C193.955 251.565 204.166 261.851 204.166 274.54Z" fill="white"/>
<path d="M196.092 274.54C196.092 282.737 189.495 289.382 181.358 289.382C173.221 289.382 166.625 282.737 166.625 274.54C166.625 266.343 173.221 259.698 181.358 259.698C189.495 259.698 196.092 266.343 196.092 274.54Z" fill="black"/>
<path d="M181.358 265.999L183.648 272.233L189.837 274.54L183.648 276.847L181.358 283.082L179.068 276.847L172.879 274.54L179.068 272.233L181.358 265.999Z" fill="white"/>
<path d="M156.431 327.132C135.662 328.161 115.541 319.422 107.198 315.499C103.616 314.335 101.362 314.059 102.749 318.38C103.858 321.837 110.107 327.871 113.092 330.457C130.774 343.808 149.765 344.419 156.835 343.808C187.519 341.155 200.919 322.778 202.947 319.82C205.605 315.942 203.58 314.032 199.872 315.275C196.163 316.517 182.391 325.847 156.431 327.132Z" fill="white"/>
<path d="M255.922 318.412C255.922 306.17 248.294 298.593 241.448 298.593C234.602 298.593 226.974 306.17 226.974 318.412C226.974 330.654 234.602 338.231 241.448 338.231V343.961C230.312 343.961 221.285 332.523 221.285 318.412C221.285 304.301 230.312 292.863 241.448 292.863C252.584 292.863 261.611 304.301 261.611 318.412C261.611 332.523 252.584 343.961 241.448 343.961V338.231C248.294 338.231 255.922 330.654 255.922 318.412Z" fill="url(#paint2_linear_2005_2461)"/>
<path d="M247.748 296.073C247.748 299.078 245.329 301.515 242.346 301.515C239.363 301.515 236.944 299.078 236.944 296.073C236.944 293.068 239.363 290.632 242.346 290.632C245.329 290.632 247.748 293.068 247.748 296.073Z" fill="url(#paint3_linear_2005_2461)"/>
<path d="M246.206 284.504C244.122 284.104 242.008 283.57 239.874 282.917C239.092 281.573 238.354 280.216 237.659 278.854C240.642 281.561 243.751 283.444 246.206 284.504ZM228.155 248.704C225.045 262.802 231.044 272.852 237.659 278.854C231.9 267.577 229.031 255.945 228.155 248.704Z" fill="black"/>
<path d="M88.5513 258.018C88.5575 257.957 88.561 257.9 88.5621 257.846L88.5513 258.018Z" fill="black"/>
<path d="M88.5513 258.018C88.5575 257.957 88.561 257.9 88.5621 257.846L88.5513 258.018ZM228.155 248.704C225.045 262.802 231.044 272.852 237.659 278.854C231.9 267.577 229.031 255.945 228.155 248.704Z" fill="black"/>
<path d="M264.051 306.666C253.348 301.51 245.484 292.562 239.874 282.917C242.008 283.57 244.122 284.104 246.206 284.504C243.751 283.444 240.642 281.561 237.659 278.854C231.9 267.577 229.031 255.945 228.155 248.704C225.045 262.802 231.044 272.852 237.659 278.854C238.354 280.216 239.092 281.573 239.874 282.917C212.901 274.67 182.796 247.532 170.338 234.055C159.573 256.265 129.462 264.468 115.752 265.794C111.467 280.727 96.5936 303.322 89.6927 312.753C95.252 303.652 94.5185 289.419 93.4568 283.44C90.8928 289.819 84.5964 296.726 76.6261 303.447C60.8356 316.763 56.8015 319.894 43.875 326.194C65.8074 306.775 88.5621 285.419 88.5513 258.018C88.5575 257.957 88.561 257.9 88.5621 257.846L88.5513 258.018C88.2853 260.661 95.3194 273.526 56.9214 304.665C79.8636 254.795 75.4427 259.966 74.0081 251.752C72.7832 244.739 71.526 237.541 75.0599 222.765C81.1982 197.098 108.599 188.347 121.532 187.18C144.335 181.296 171.4 186.678 206.774 188.007C216.991 188.39 224.702 188.68 228.155 188.647C240.482 188.531 261.528 196.765 270.51 200.896C288.23 207.196 286.483 261.272 283.395 287.522C291.386 307.239 304.097 317.904 309.454 320.772C283.279 318.206 268.279 310.298 264.051 306.666Z" fill="black"/>
</g>
<g filter="url(#filter1_g_2005_2461)">
<path d="M662.906 189.555L662.141 183.932L661.35 178.12" stroke="black" stroke-width="5" stroke-linecap="round" stroke-linejoin="round"/>
<path d="M641.396 181.65V187.314V193.17" stroke="black" stroke-width="5" stroke-linecap="round" stroke-linejoin="round"/>
<path d="M617.642 181.65V187.314V193.17" stroke="black" stroke-width="5" stroke-linecap="round" stroke-linejoin="round"/>
<path d="M597.347 178.165L596.515 183.78L595.655 189.584" stroke="black" stroke-width="5" stroke-linecap="round" stroke-linejoin="round"/>
<path d="M579.861 180.789C593.969 185.772 633.194 192.748 677.231 180.789" stroke="black" stroke-width="5" stroke-linecap="round" stroke-linejoin="round"/>
<g filter="url(#filter2_n_2005_2461)">
<path d="M659.404 79.1149C642.56 71.2523 633.022 70.8284 625.412 70.4903C604.421 69.2835 586.43 77.8264 580.059 82.2487C569.34 88.0722 561.223 98.1259 556.096 106.536C551.996 113.261 548.944 120.024 546.844 127.615C545.16 133.703 544.421 140.626 544.421 146.943V207.455C544.421 227.747 551.876 259.539 568.323 247.655C569.559 246.762 570.649 245.782 571.543 244.829C573.152 242.594 574.863 241.166 576.583 240.336C585.785 235.899 592.676 253.123 602.776 251.597C607.047 250.952 610.775 247.621 612.855 244.829C620.551 235.241 628.572 240.834 631.62 244.829C640.451 257.949 650.333 250.296 654.17 244.829C655.546 242.652 657.032 241.225 658.561 240.378C669.733 234.19 684.866 256.986 694.324 248.402C701.813 241.606 700.689 231.987 700.689 221.874C700.689 221.874 702.298 162.632 700.689 145.01C699.081 127.389 697.851 128.032 696.274 121.987C689.809 100.856 671.644 84.8287 659.404 79.1149Z" fill="url(#paint4_linear_2005_2461)"/>
</g>
<ellipse cx="625.129" cy="142.005" rx="19.4713" ry="17.5612" fill="white"/>
<ellipse cx="625.13" cy="142.009" rx="12.5784" ry="11.3444" fill="black"/>
<path d="M625.13 135.477L625.705 139.568L628.075 136.042L626.756 139.99L630.511 137.638L627.525 140.76L632.016 139.99L627.881 141.747L632.331 142.69L627.76 142.778L631.401 145.273L627.185 143.677L629.386 147.291L626.255 144.286L626.635 148.395L625.13 144.502L623.625 148.395L624.005 144.286L620.874 147.291L623.075 143.677L618.86 145.273L622.5 142.778L617.929 142.69L622.38 141.747L618.244 139.99L622.735 140.76L619.749 137.638L623.505 139.99L622.185 136.042L624.555 139.568L625.13 135.477Z" fill="white"/>
<ellipse cx="667.414" cy="142.005" rx="19.4713" ry="17.5612" fill="white"/>
<ellipse cx="667.418" cy="142.009" rx="12.5784" ry="11.3444" fill="black"/>
<path d="M667.414 135.477L667.989 139.568L670.359 136.042L669.04 139.99L672.795 137.638L669.809 140.76L674.3 139.99L670.165 141.747L674.615 142.69L670.045 142.778L673.685 145.273L669.47 143.677L671.67 147.291L668.539 144.286L668.92 148.395L667.414 144.502L665.909 148.395L666.289 144.286L663.158 147.291L665.359 143.677L661.144 145.273L664.784 142.778L660.213 142.69L664.664 141.747L660.528 139.99L665.019 140.76L662.034 137.638L665.789 139.99L664.469 136.042L666.839 139.568L667.414 135.477Z" fill="white"/>
<path d="M588.101 193.851C586.618 183.031 595.946 173.822 606.746 175.444L631.426 179.151C640.329 180.488 649.38 180.502 658.288 179.194L683.554 175.481C694.555 173.865 703.91 183.494 701.978 194.443C700.763 201.333 695.29 206.678 688.351 207.562C676.651 209.053 658.422 211.053 644.853 211.053C631.484 211.053 613.591 209.111 601.876 207.628C594.679 206.717 589.086 201.038 588.101 193.851Z" fill="#FFDD00"/>
<path d="M591.78 194.123C590.391 185.697 597.499 178.305 605.973 179.363L634.135 182.88C641.282 183.773 648.512 183.782 655.661 182.909L684.348 179.404C693.017 178.345 700.153 186.134 698.34 194.678C697.216 199.978 692.869 203.982 687.483 204.567C676.688 205.738 658.346 207.484 644.896 207.484C631.648 207.484 613.652 205.79 602.799 204.62C597.176 204.013 592.7 199.703 591.78 194.123Z" fill="black"/>
<path d="M675.225 198.938L674.563 193.316L673.879 187.504" stroke="#FFA900" stroke-width="5" stroke-linecap="round" stroke-linejoin="round"/>
<path d="M656.631 191.04V196.705V202.56" stroke="#FFA900" stroke-width="5" stroke-linecap="round" stroke-linejoin="round"/>
<path d="M636.09 191.04V196.705V202.56" stroke="#FFA900" stroke-width="5" stroke-linecap="round" stroke-linejoin="round"/>
<path d="M618.564 187.556L617.845 193.171L617.102 198.975" stroke="#FFA900" stroke-width="5" stroke-linecap="round" stroke-linejoin="round"/>
<path d="M603.439 190.176C615.633 195.159 649.537 202.135 687.6 190.176" stroke="#FFA900" stroke-width="5" stroke-linecap="round" stroke-linejoin="round"/>
</g>
<g filter="url(#filter3_g_2005_2461)">
<path d="M1048.97 74.7754C1047.7 74.5328 1046.42 74.2089 1045.13 73.8132C1044.65 72.9983 1044.21 72.1751 1043.78 71.3489C1045.59 72.9905 1047.48 74.1327 1048.97 74.7754ZM1038.02 53.0649C1036.13 61.6146 1039.77 67.7093 1043.78 71.3489C1040.29 64.51 1038.55 57.4563 1038.02 53.0649Z" fill="black"/>
<path d="M933.758 59.8186C933.761 59.7816 933.764 59.7468 933.764 59.7142L933.758 59.8186Z" fill="black"/>
<path d="M933.758 59.8186C933.761 59.7816 933.764 59.7468 933.764 59.7142L933.758 59.8186ZM1038.02 53.0649C1036.13 61.6146 1039.77 67.7093 1043.78 71.3489C1040.29 64.51 1038.55 57.4563 1038.02 53.0649Z" fill="black"/>
<path d="M1059.79 88.2152C1053.3 85.0885 1048.53 79.6623 1045.13 73.8132C1046.42 74.2089 1047.7 74.5328 1048.97 74.7754C1047.48 74.1327 1045.59 72.9905 1043.78 71.3489C1040.29 64.51 1038.55 57.4563 1038.02 53.0649C1036.13 61.6146 1039.77 67.7093 1043.78 71.3489C1044.21 72.1751 1044.65 72.9983 1045.13 73.8132C1028.77 68.8114 1010.51 52.3542 1002.96 44.1811C996.43 57.6501 978.169 62.6249 969.855 63.4287C967.256 72.485 958.236 86.1875 954.051 91.9066C957.423 86.3879 956.978 77.7561 956.334 74.13C954.779 77.9986 950.961 82.1875 946.127 86.2636C936.551 94.339 922.991 101.971 915.151 105.792C928.452 94.0154 933.764 76.4358 933.758 59.8186C933.761 59.7816 933.764 59.7468 933.764 59.7142L933.758 59.8186C933.596 61.4215 930.499 67.172 919.107 78.3752C922.991 66.4958 922.148 61.668 921.278 56.6866C920.535 52.4336 919.772 48.0686 921.915 39.1075C925.638 23.542 942.255 18.2351 950.098 17.5273C963.927 13.959 1003.6 15.4494 1025.05 16.2552C1031.25 16.4879 1035.93 16.6636 1038.02 16.6438C1045.5 16.573 1058.26 21.5664 1063.71 24.072C1074.45 27.8926 1073.39 60.6864 1071.52 76.6057C1076.37 88.5629 1084.08 95.0309 1087.32 96.7702C1071.45 95.2137 1062.35 90.4183 1059.79 88.2152Z" fill="black"/>
<path d="M1045.13 73.8132C1048.53 79.6623 1053.3 85.0885 1059.79 88.2152L1059.79 134.772C1059.79 144.369 1052.07 152.149 1042.54 152.149H963.378C953.851 152.149 946.128 144.369 946.128 134.772L946.127 86.2636C950.961 82.1875 954.779 77.9986 956.334 74.13C956.978 77.7561 957.423 86.3879 954.051 91.9066C958.236 86.1875 967.256 72.485 969.855 63.4287C978.169 62.6249 996.43 57.6501 1002.96 44.1811C1010.51 52.3542 1028.77 68.8114 1045.13 73.8132Z" fill="#00C327"/>
<path d="M998.925 87.7349C998.925 95.4299 992.732 101.668 985.093 101.668C977.454 101.668 971.262 95.4299 971.262 87.7349C971.262 80.0399 977.454 73.8018 985.093 73.8018C992.732 73.8018 998.925 80.0399 998.925 87.7349Z" fill="white"/>
<path d="M994.028 87.7349C994.028 92.7058 990.028 96.7355 985.093 96.7355C980.159 96.7355 976.158 92.7058 976.158 87.7349C976.158 82.7639 980.159 78.7342 985.093 78.7342C990.028 78.7342 994.028 82.7639 994.028 87.7349Z" fill="black"/>
<path d="M985.093 82.5549L986.482 86.3358L990.236 87.7349L986.482 89.1339L985.093 92.9148L983.704 89.1339L979.951 87.7349L983.704 86.3358L985.093 82.5549Z" fill="white"/>
<path d="M1036.94 87.7349C1036.94 95.4299 1030.75 101.668 1023.11 101.668C1015.47 101.668 1009.28 95.4299 1009.28 87.7349C1009.28 80.0399 1015.47 73.8018 1023.11 73.8018C1030.75 73.8018 1036.94 80.0399 1036.94 87.7349Z" fill="white"/>
<path d="M1032.04 87.7349C1032.04 92.7058 1028.04 96.7355 1023.11 96.7355C1018.17 96.7355 1014.17 92.7058 1014.17 87.7349C1014.17 82.7639 1018.17 78.7342 1023.11 78.7342C1028.04 78.7342 1032.04 82.7639 1032.04 87.7349Z" fill="black"/>
<path d="M1023.11 82.5549L1024.5 86.3358L1028.25 87.7349L1024.5 89.1339L1023.11 92.9148L1021.72 89.1339L1017.96 87.7349L1021.72 86.3358L1023.11 82.5549Z" fill="white"/>
<path d="M1004.92 116.926C1004.56 115.229 1005.49 113.522 1007.11 112.926L1015.39 109.879C1016.9 109.323 1018.59 109.893 1019.47 111.253L1028.45 125.215C1029.65 127.088 1028.82 129.604 1026.74 130.369L1012.92 135.456C1010.95 136.18 1008.8 134.988 1008.36 132.927L1004.92 116.926Z" fill="white"/>
<path d="M1003.29 116.926C1003.65 115.229 1002.72 113.522 1001.1 112.926L992.819 109.879C991.307 109.323 989.614 109.893 988.739 111.253L979.759 125.215C978.555 127.088 979.39 129.604 981.471 130.369L995.292 135.456C997.258 136.18 999.405 134.988 999.848 132.927L1003.29 116.926Z" fill="white"/>
</g>
<g filter="url(#filter4_g_2005_2461)">
<path d="M1048.97 74.7754C1047.7 74.5328 1046.42 74.2089 1045.13 73.8132C1044.65 72.9983 1044.21 72.1751 1043.78 71.3489C1045.59 72.9905 1047.48 74.1327 1048.97 74.7754ZM1038.02 53.0649C1036.13 61.6146 1039.77 67.7093 1043.78 71.3489C1040.29 64.51 1038.55 57.4563 1038.02 53.0649Z" fill="black"/>
<path d="M933.758 59.8186C933.761 59.7816 933.764 59.7468 933.764 59.7142L933.758 59.8186Z" fill="black"/>
<path d="M933.758 59.8186C933.761 59.7816 933.764 59.7468 933.764 59.7142L933.758 59.8186ZM1038.02 53.0649C1036.13 61.6146 1039.77 67.7093 1043.78 71.3489C1040.29 64.51 1038.55 57.4563 1038.02 53.0649Z" fill="black"/>
<path d="M1059.79 88.2152C1053.3 85.0885 1048.53 79.6623 1045.13 73.8132C1046.42 74.2089 1047.7 74.5328 1048.97 74.7754C1047.48 74.1327 1045.59 72.9905 1043.78 71.3489C1040.29 64.51 1038.55 57.4563 1038.02 53.0649C1036.13 61.6146 1039.77 67.7093 1043.78 71.3489C1044.21 72.1751 1044.65 72.9983 1045.13 73.8132C1028.77 68.8114 1010.51 52.3542 1002.96 44.1811C996.43 57.6501 978.169 62.6249 969.855 63.4287C967.256 72.485 958.236 86.1875 954.051 91.9066C957.423 86.3879 956.978 77.7561 956.334 74.13C954.779 77.9986 950.961 82.1875 946.127 86.2636C936.551 94.339 922.991 101.971 915.151 105.792C928.452 94.0154 933.764 76.4358 933.758 59.8186C933.761 59.7816 933.764 59.7468 933.764 59.7142L933.758 59.8186C933.596 61.4215 930.499 67.172 919.107 78.3752C922.991 66.4958 922.148 61.668 921.278 56.6866C920.535 52.4336 919.772 48.0686 921.915 39.1075C925.638 23.542 942.255 18.2351 950.098 17.5273C963.927 13.959 1003.6 15.4494 1025.05 16.2552C1031.25 16.4879 1035.93 16.6636 1038.02 16.6438C1045.5 16.573 1058.26 21.5664 1063.71 24.072C1074.45 27.8926 1073.39 60.6864 1071.52 76.6057C1076.37 88.5629 1084.08 95.0309 1087.32 96.7702C1071.45 95.2137 1062.35 90.4183 1059.79 88.2152Z" fill="black"/>
<path d="M1045.13 73.8132C1048.53 79.6623 1053.3 85.0885 1059.79 88.2152L1059.79 134.772C1059.79 144.369 1052.07 152.149 1042.54 152.149H963.378C953.851 152.149 946.128 144.369 946.128 134.772L946.127 86.2636C950.961 82.1875 954.779 77.9986 956.334 74.13C956.978 77.7561 957.423 86.3879 954.051 91.9066C958.236 86.1875 967.256 72.485 969.855 63.4287C978.169 62.6249 996.43 57.6501 1002.96 44.1811C1010.51 52.3542 1028.77 68.8114 1045.13 73.8132Z" fill="#00C327"/>
<path d="M998.925 87.7349C998.925 95.4299 992.732 101.668 985.093 101.668C977.454 101.668 971.262 95.4299 971.262 87.7349C971.262 80.0399 977.454 73.8018 985.093 73.8018C992.732 73.8018 998.925 80.0399 998.925 87.7349Z" fill="white"/>
<path d="M994.028 87.7349C994.028 92.7058 990.028 96.7355 985.093 96.7355C980.159 96.7355 976.158 92.7058 976.158 87.7349C976.158 82.7639 980.159 78.7342 985.093 78.7342C990.028 78.7342 994.028 82.7639 994.028 87.7349Z" fill="black"/>
<path d="M985.093 82.5549L986.482 86.3358L990.236 87.7349L986.482 89.1339L985.093 92.9148L983.704 89.1339L979.951 87.7349L983.704 86.3358L985.093 82.5549Z" fill="white"/>
<path d="M1036.94 87.7349C1036.94 95.4299 1030.75 101.668 1023.11 101.668C1015.47 101.668 1009.28 95.4299 1009.28 87.7349C1009.28 80.0399 1015.47 73.8018 1023.11 73.8018C1030.75 73.8018 1036.94 80.0399 1036.94 87.7349Z" fill="white"/>
<path d="M1032.04 87.7349C1032.04 92.7058 1028.04 96.7355 1023.11 96.7355C1018.17 96.7355 1014.17 92.7058 1014.17 87.7349C1014.17 82.7639 1018.17 78.7342 1023.11 78.7342C1028.04 78.7342 1032.04 82.7639 1032.04 87.7349Z" fill="black"/>
<path d="M1023.11 82.5549L1024.5 86.3358L1028.25 87.7349L1024.5 89.1339L1023.11 92.9148L1021.72 89.1339L1017.96 87.7349L1021.72 86.3358L1023.11 82.5549Z" fill="white"/>
<path d="M1004.92 116.926C1004.56 115.229 1005.49 113.522 1007.11 112.926L1015.39 109.879C1016.9 109.323 1018.59 109.893 1019.47 111.253L1028.45 125.215C1029.65 127.088 1028.82 129.604 1026.74 130.369L1012.92 135.456C1010.95 136.18 1008.8 134.988 1008.36 132.927L1004.92 116.926Z" fill="white"/>
<path d="M1003.29 116.926C1003.65 115.229 1002.72 113.522 1001.1 112.926L992.819 109.879C991.307 109.323 989.614 109.893 988.739 111.253L979.759 125.215C978.555 127.088 979.39 129.604 981.471 130.369L995.292 135.456C997.258 136.18 999.405 134.988 999.848 132.927L1003.29 116.926Z" fill="white"/>
</g>
<g filter="url(#filter5_g_2005_2461)">
<path d="M1201.13 403.291C1202.32 401.012 1202.78 397.588 1201.41 393.464C1191.91 384.27 1158.07 378.725 1142.34 377.101C1167.41 373.715 1187.78 379.755 1194.83 383.199C1188.47 376.544 1177.3 369.221 1158.63 362.332C1167.56 363.512 1184.63 367.98 1202.16 377.533C1201.56 377.207 1198.98 374.08 1212.83 369.034C1210.68 372.595 1207.49 380.451 1211.92 383.388C1214.03 384.774 1216.12 386.24 1218.18 387.788C1214.1 384.449 1214.71 372.855 1249.81 353.19C1239.34 360.645 1222.1 380.138 1236.88 398.463L1201.13 403.291Z" fill="black"/>
<path d="M1318.51 412.484C1317.32 410.205 1316.86 406.781 1318.23 402.657C1327.73 393.463 1361.57 387.918 1377.3 386.294C1352.23 382.908 1331.86 388.948 1324.81 392.392C1331.17 385.737 1342.34 378.414 1361 371.525C1352.08 372.705 1335.01 377.173 1317.48 386.726C1318.08 386.4 1320.66 383.273 1306.81 378.227C1308.96 381.788 1312.15 389.644 1307.72 392.58C1305.61 393.967 1303.52 395.433 1301.46 396.981C1305.54 393.642 1304.93 382.048 1269.83 362.382C1280.3 369.838 1297.54 389.331 1282.76 407.656L1318.51 412.484Z" fill="black"/>
<path d="M1245.6 413.501C1244.68 411.257 1244.47 407.866 1245.92 403.754C1254.92 394.492 1285.41 388.494 1299.52 386.652C1277.37 383.66 1258.87 389.952 1252.39 393.473C1258.43 386.776 1268.81 379.347 1285.85 372.237C1277.83 373.539 1262.36 378.223 1246.17 387.959C1246.73 387.626 1249.21 384.486 1237.16 379.683C1238.87 383.184 1241.26 390.932 1237.14 393.911C1235.18 395.318 1233.23 396.803 1231.31 398.368C1235.14 394.996 1235.26 383.501 1205.11 364.505C1214.01 371.749 1228.25 390.836 1214.03 409.235L1245.6 413.501Z" fill="black"/>
<path d="M1176.8 410.104C1176.8 396.26 1187.94 385.037 1201.68 385.037H1341.11C1354.85 385.037 1365.99 396.26 1365.99 410.104V521.233C1365.99 535.077 1354.85 546.3 1341.11 546.3H1201.68C1187.94 546.3 1176.8 535.077 1176.8 521.233V410.104Z" fill="#00C327"/>
<path d="M1264.68 439.084C1264.68 451.892 1254.37 462.275 1241.66 462.275C1228.94 462.275 1218.64 451.892 1218.64 439.084C1218.64 426.276 1228.94 415.893 1241.66 415.893C1254.37 415.893 1264.68 426.276 1264.68 439.084Z" fill="white"/>
<path d="M1256.53 439.084C1256.53 447.358 1249.87 454.066 1241.66 454.066C1233.44 454.066 1226.79 447.358 1226.79 439.084C1226.79 430.81 1233.44 424.103 1241.66 424.103C1249.87 424.103 1256.53 430.81 1256.53 439.084Z" fill="black"/>
<path d="M1241.66 430.462L1243.97 436.755L1250.22 439.084L1243.97 441.413L1241.66 447.706L1239.35 441.413L1233.1 439.084L1239.35 436.755L1241.66 430.462Z" fill="white"/>
<path d="M1327.97 439.084C1327.97 451.892 1317.66 462.275 1304.95 462.275C1292.23 462.275 1281.92 451.892 1281.92 439.084C1281.92 426.276 1292.23 415.893 1304.95 415.893C1317.66 415.893 1327.97 426.276 1327.97 439.084Z" fill="white"/>
<path d="M1319.82 439.084C1319.82 447.358 1313.16 454.066 1304.95 454.066C1296.73 454.066 1290.07 447.358 1290.07 439.084C1290.07 430.81 1296.73 424.103 1304.95 424.103C1313.16 424.103 1319.82 430.81 1319.82 439.084Z" fill="black"/>
<path d="M1304.95 430.462L1307.26 436.755L1313.5 439.084L1307.26 441.413L1304.95 447.706L1302.63 441.413L1296.39 439.084L1302.63 436.755L1304.95 430.462Z" fill="white"/>
<path d="M1258.95 486.964C1259.46 484.226 1261.83 482.242 1264.6 482.242H1277.63C1280.31 482.242 1282.63 484.108 1283.23 486.738L1289.35 513.734C1290.17 517.355 1287.44 520.807 1283.75 520.807H1259.59C1255.99 520.807 1253.28 517.518 1253.94 513.959L1258.95 486.964Z" fill="white"/>
<path d="M1284.49 487.686C1283.88 484.862 1285.44 482.02 1288.13 481.029L1301.91 475.956C1304.43 475.03 1307.25 475.98 1308.7 478.244L1323.65 501.484C1325.65 504.602 1324.26 508.788 1320.8 510.063L1297.8 518.529C1294.52 519.734 1290.95 517.75 1290.21 514.32L1284.49 487.686Z" fill="white"/>
<path d="M1258.29 487.686C1258.89 484.862 1257.34 482.02 1254.65 481.029L1240.86 475.956C1238.35 475.03 1235.53 475.98 1234.07 478.244L1219.13 501.484C1217.12 504.602 1218.51 508.788 1221.98 510.063L1244.98 518.529C1248.25 519.734 1251.83 517.75 1252.56 514.32L1258.29 487.686Z" fill="white"/>
<path d="M1176.8 410.104C1176.8 396.26 1187.94 385.037 1201.68 385.037H1341.11C1354.85 385.037 1365.99 396.26 1365.99 410.104V521.233C1365.99 535.077 1354.85 546.3 1341.11 546.3H1201.68C1187.94 546.3 1176.8 535.077 1176.8 521.233V410.104Z" fill="#00C327"/>
<path d="M1264.68 439.084C1264.68 451.892 1254.37 462.275 1241.66 462.275C1228.94 462.275 1218.64 451.892 1218.64 439.084C1218.64 426.276 1228.94 415.893 1241.66 415.893C1254.37 415.893 1264.68 426.276 1264.68 439.084Z" fill="white"/>
<path d="M1256.53 439.084C1256.53 447.358 1249.87 454.066 1241.66 454.066C1233.44 454.066 1226.79 447.358 1226.79 439.084C1226.79 430.81 1233.44 424.103 1241.66 424.103C1249.87 424.103 1256.53 430.81 1256.53 439.084Z" fill="black"/>
<path d="M1241.66 430.462L1243.97 436.755L1250.22 439.084L1243.97 441.413L1241.66 447.706L1239.35 441.413L1233.1 439.084L1239.35 436.755L1241.66 430.462Z" fill="white"/>
<path d="M1327.95 439.084C1327.95 451.892 1317.65 462.275 1304.93 462.275C1292.22 462.275 1281.91 451.892 1281.91 439.084C1281.91 426.276 1292.22 415.893 1304.93 415.893C1317.65 415.893 1327.95 426.276 1327.95 439.084Z" fill="white"/>
<path d="M1319.8 439.084C1319.8 447.358 1313.14 454.066 1304.93 454.066C1296.72 454.066 1290.06 447.358 1290.06 439.084C1290.06 430.81 1296.72 424.103 1304.93 424.103C1313.14 424.103 1319.8 430.81 1319.8 439.084Z" fill="black"/>
<path d="M1304.93 430.462L1307.24 436.755L1313.49 439.084L1307.24 441.413L1304.93 447.706L1302.62 441.413L1296.37 439.084L1302.62 436.755L1304.93 430.462Z" fill="white"/>
<path d="M1273.94 498.115C1257.34 498.978 1241.26 491.641 1234.6 488.347C1231.73 487.37 1229.93 487.138 1231.04 490.766C1231.93 493.669 1236.92 498.736 1239.31 500.906C1253.44 512.116 1268.61 512.629 1274.26 512.116C1298.78 509.888 1309.49 494.459 1311.11 491.975C1313.23 488.719 1311.62 487.116 1308.65 488.159C1305.69 489.202 1294.68 497.036 1273.94 498.115Z" fill="white"/>
<path d="M1354.55 431.605C1354.55 435.39 1355.83 434.304 1352.07 434.304C1348.31 434.304 1349.11 435.681 1349.11 431.895C1349.11 428.11 1347.26 427.937 1351.01 427.937C1354.77 427.937 1354.55 427.819 1354.55 431.605Z" fill="black"/>
<path d="M1282.22 391.512C1279.95 390.21 1277.83 388.199 1277.12 385.698C1281.8 379.855 1311.83 375.171 1326.26 373.559C1300.32 372.587 1283.58 377.009 1278.45 379.341C1281.32 375.134 1288.53 370.332 1303.22 365.477C1295.16 366.545 1280.83 369.899 1268.55 376.286C1268.98 376.067 1269.94 374.107 1254.05 371.688C1257.88 373.71 1264.84 378.235 1261.98 380.159C1260.63 381.068 1259.33 382.023 1258.09 383.026C1260.4 380.878 1254.11 374.031 1210.45 363.823C1224.25 367.811 1250.54 378.653 1245.24 390.126L1282.22 391.512Z" fill="black"/>
<path d="M1304.76 391.512C1302.49 390.21 1300.36 388.199 1299.65 385.698C1304.33 379.855 1334.36 375.171 1348.79 373.559C1322.86 372.587 1306.11 377.009 1300.98 379.341C1303.86 375.134 1311.07 370.332 1325.76 365.477C1317.7 366.545 1303.37 369.899 1291.09 376.286C1291.51 376.067 1292.47 374.107 1276.58 371.688C1280.42 373.71 1287.37 378.235 1284.52 380.159C1283.17 381.068 1281.86 382.023 1280.63 383.026C1282.94 380.878 1276.64 374.031 1232.99 363.823C1246.79 367.811 1273.07 378.653 1267.78 390.126L1304.76 391.512Z" fill="black"/>
<path d="M1327.68 391.512C1325.41 390.21 1323.29 388.199 1322.58 385.698C1327.26 379.855 1357.29 375.171 1371.72 373.559C1345.78 372.587 1329.04 377.009 1323.91 379.341C1326.79 375.134 1334 370.332 1348.68 365.477C1340.63 366.545 1326.3 369.899 1314.02 376.286C1314.44 376.067 1315.4 374.107 1299.51 371.688C1303.34 373.71 1310.3 378.235 1307.45 380.159C1306.09 381.068 1304.79 382.023 1303.55 383.026C1305.86 380.878 1299.57 374.031 1255.91 363.823C1269.72 367.811 1296 378.653 1290.7 390.126L1327.68 391.512Z" fill="black"/>
<path d="M1255.23 395.861C1252.96 394.56 1250.83 392.549 1250.12 390.048C1254.8 384.205 1284.83 379.521 1299.27 377.909C1273.33 376.936 1256.58 381.358 1251.45 383.691C1254.33 379.484 1261.54 374.681 1276.23 369.826C1268.17 370.894 1253.84 374.249 1241.56 380.635C1241.98 380.417 1242.94 378.457 1227.05 376.038C1230.89 378.06 1237.84 382.585 1234.99 384.509C1233.64 385.418 1232.34 386.373 1231.1 387.375C1233.41 385.228 1227.11 378.38 1183.46 368.173C1197.26 372.16 1223.54 383.003 1218.25 394.476L1255.23 395.861Z" fill="black"/>
<path d="M1229.83 398.315C1227.56 397.013 1225.44 395.002 1224.73 392.501C1229.41 386.658 1259.44 381.974 1273.87 380.362C1247.94 379.39 1231.19 383.812 1226.06 386.144C1228.94 381.937 1236.15 377.135 1250.83 372.28C1242.78 373.348 1228.45 376.702 1216.17 383.089C1216.59 382.87 1217.55 380.91 1201.66 378.491C1205.49 380.513 1212.45 385.038 1209.6 386.962C1208.24 387.871 1206.94 388.826 1205.71 389.829C1208.02 387.681 1201.72 380.834 1158.06 370.626C1171.87 374.614 1198.15 385.456 1192.86 396.929L1229.83 398.315Z" fill="black"/>
<path d="M1286.59 394.366C1284.32 393.064 1282.19 391.053 1281.48 388.553C1286.16 382.71 1316.19 378.025 1330.63 376.413C1304.69 375.441 1287.94 379.863 1282.81 382.196C1285.69 377.988 1292.9 373.186 1307.59 368.331C1299.53 369.399 1285.2 372.753 1272.92 379.14C1273.34 378.922 1274.3 376.962 1258.41 374.543C1262.25 376.565 1269.2 381.09 1266.35 383.014C1265 383.923 1263.69 384.878 1262.46 385.88C1264.77 383.733 1258.47 376.885 1214.82 366.678C1228.62 370.665 1254.9 381.508 1249.61 392.98L1286.59 394.366Z" fill="black"/>
<path d="M1319.95 401.236C1317.68 399.934 1315.56 397.923 1314.85 395.422C1319.53 389.579 1349.56 384.895 1363.99 383.283C1338.05 382.311 1321.31 386.733 1316.18 389.065C1319.05 384.858 1326.26 380.056 1340.95 375.201C1332.89 376.269 1318.56 379.623 1306.29 386.01C1306.71 385.791 1307.67 383.831 1291.78 381.412C1295.61 383.434 1302.57 387.959 1299.71 389.883C1298.36 390.792 1297.06 391.747 1295.82 392.75C1298.13 390.602 1291.84 383.755 1248.18 373.547C1261.98 377.535 1288.27 388.377 1282.97 399.85L1319.95 401.236Z" fill="black"/>
<path d="M1339.23 401.236C1336.96 399.934 1334.83 397.923 1334.12 395.422C1338.8 389.579 1368.83 384.895 1383.27 383.283C1357.33 382.311 1340.58 386.733 1335.45 389.065C1338.33 384.858 1345.54 380.056 1360.23 375.201C1352.17 376.269 1337.84 379.623 1325.56 386.01C1325.98 385.791 1326.94 383.831 1311.05 381.412C1314.89 383.434 1321.84 387.959 1318.99 389.883C1317.64 390.792 1316.33 391.747 1315.1 392.75C1317.41 390.602 1311.11 383.755 1267.46 373.547C1281.26 377.535 1307.54 388.377 1302.25 399.85L1339.23 401.236Z" fill="black"/>
<path d="M1258.21 399.85C1255.94 398.548 1253.82 396.537 1253.11 394.036C1257.79 388.193 1287.82 383.509 1302.25 381.897C1276.31 380.925 1259.57 385.347 1254.44 387.679C1257.31 383.472 1264.52 378.67 1279.21 373.815C1271.16 374.883 1256.82 378.237 1244.55 384.624C1244.97 384.405 1245.93 382.445 1230.04 380.026C1233.87 382.048 1240.83 386.573 1237.98 388.497C1236.62 389.406 1235.32 390.361 1234.08 391.364C1236.39 389.216 1230.1 382.369 1186.44 372.162C1200.24 376.149 1229.6 381.508 1224.31 392.98L1258.21 399.85Z" fill="black"/>
<path d="M1365.98 401.386C1363.71 400.084 1361.59 398.073 1360.88 395.572C1365.56 389.73 1395.59 385.045 1410.02 383.433C1384.08 382.461 1367.34 386.883 1362.21 389.216C1365.08 385.008 1372.29 380.206 1386.98 375.351C1378.92 376.419 1364.59 379.773 1352.32 386.16C1352.74 385.942 1353.7 383.982 1337.81 381.563C1341.64 383.585 1348.6 388.11 1345.74 390.034C1344.39 390.943 1343.09 391.898 1341.85 392.9C1344.16 390.752 1337.87 383.905 1294.21 373.698C1308.01 377.685 1334.3 388.528 1329 400L1365.98 401.386Z" fill="black"/>
<path d="M1234.96 390.017C1232.69 388.715 1230.57 386.704 1229.86 384.203C1234.54 378.36 1264.57 373.676 1279 372.064C1253.07 371.092 1236.32 375.514 1231.19 377.846C1234.07 373.639 1241.28 368.836 1255.96 363.981C1247.91 365.05 1233.58 368.404 1221.3 374.79C1221.72 374.572 1222.68 372.612 1206.79 370.193C1210.62 372.215 1217.58 376.74 1214.73 378.664C1213.37 379.573 1212.07 380.528 1210.84 381.531C1213.15 379.383 1206.85 372.535 1163.19 362.328C1177 366.315 1203.28 377.158 1197.99 388.631L1234.96 390.017Z" fill="black"/>
<path d="M1214.75 401.236C1212.48 399.934 1210.35 397.923 1209.64 395.422C1214.32 389.579 1244.35 384.895 1258.78 383.283C1232.85 382.311 1216.1 386.733 1210.97 389.065C1213.85 384.858 1221.06 380.056 1235.74 375.201C1227.69 376.269 1213.36 379.623 1201.08 386.01C1201.5 385.791 1202.46 383.831 1186.57 381.412C1190.41 383.434 1197.36 387.959 1194.51 389.883C1193.16 390.792 1191.85 391.747 1190.62 392.75C1192.93 390.602 1186.63 383.755 1142.98 373.547C1156.78 377.535 1183.06 388.377 1177.77 399.85L1214.75 401.236Z" fill="black"/>
<path d="M1364.99 395.861C1362.72 394.56 1360.6 392.549 1359.89 390.048C1364.57 384.205 1394.6 379.521 1409.03 377.909C1383.09 376.936 1366.35 381.358 1361.22 383.691C1364.1 379.484 1371.31 374.681 1385.99 369.826C1377.94 370.894 1363.61 374.249 1351.33 380.635C1351.75 380.417 1352.71 378.457 1336.82 376.038C1340.65 378.06 1347.61 382.585 1344.76 384.509C1343.4 385.418 1342.1 386.373 1340.87 387.375C1343.18 385.228 1336.88 378.38 1293.22 368.173C1307.03 372.16 1333.31 383.003 1328.02 394.476L1364.99 395.861Z" fill="black"/>
<path d="M1290.77 400.877C1288.51 399.575 1286.38 397.564 1285.67 395.063C1290.35 389.221 1320.38 384.536 1334.81 382.924C1308.88 381.952 1292.13 386.374 1287 388.706C1289.88 384.499 1297.09 379.697 1311.77 374.842C1303.72 375.91 1289.39 379.264 1277.11 385.651C1277.53 385.433 1278.49 383.472 1262.6 381.053C1266.44 383.075 1273.39 387.6 1270.54 389.524C1269.18 390.433 1267.88 391.388 1266.65 392.391C1268.96 390.243 1262.66 383.396 1219.01 373.189C1232.81 377.176 1259.09 388.018 1253.8 399.491L1290.77 400.877Z" fill="black"/>
</g>
<g filter="url(#filter6_g_2005_2461)">
<path d="M506.889 648.823L506.012 642.38L505.105 635.721" stroke="black" stroke-width="5" stroke-linecap="round" stroke-linejoin="round"/>
<path d="M482.234 639.768V646.259V652.968" stroke="black" stroke-width="5" stroke-linecap="round" stroke-linejoin="round"/>
<path d="M455.016 639.768V646.259V652.968" stroke="black" stroke-width="5" stroke-linecap="round" stroke-linejoin="round"/>
<path d="M431.77 635.777L430.816 642.211L429.831 648.862" stroke="black" stroke-width="5" stroke-linecap="round" stroke-linejoin="round"/>
<path d="M411.725 638.779C427.89 644.488 472.836 652.481 523.295 638.779" stroke="black" stroke-width="5" stroke-linecap="round" stroke-linejoin="round"/>
<g filter="url(#filter7_n_2005_2461)">
<path d="M502.866 522.276C483.566 513.266 472.637 512.781 463.917 512.393C439.864 511.01 419.249 520.799 411.949 525.866C399.667 532.539 390.366 544.059 384.491 553.695C379.793 561.401 376.296 569.151 373.89 577.849C371.96 584.825 371.113 592.758 371.113 599.996V669.334C371.113 692.584 379.656 729.014 398.502 715.396C399.917 714.372 401.167 713.25 402.191 712.158C404.035 709.598 405.995 707.961 407.967 707.01C418.51 701.926 426.406 721.662 437.98 719.913C442.874 719.173 447.145 715.357 449.529 712.158C458.346 701.172 467.537 707.581 471.031 712.158C481.149 727.191 492.473 718.422 496.869 712.158C498.446 709.664 500.148 708.029 501.9 707.058C514.702 699.967 532.042 726.088 542.88 716.253C551.461 708.465 550.173 697.443 550.173 685.856C550.173 685.856 552.016 617.973 550.173 597.781C548.33 577.59 546.92 578.327 545.114 571.4C537.705 547.188 516.891 528.823 502.866 522.276Z" fill="url(#paint5_linear_2005_2461)"/>
</g>
<ellipse cx="436.829" cy="594.342" rx="22.3112" ry="20.1223" fill="white"/>
<ellipse cx="436.831" cy="594.339" rx="14.4129" ry="12.9989" fill="black"/>
<path d="M442.015 590.315L442.674 595.001L445.389 590.962L443.878 595.484L448.18 592.79L444.759 596.367L449.904 595.484L445.166 597.498L450.265 598.578L445.029 598.679L449.199 601.537L444.37 599.708L446.891 603.848L443.304 600.407L443.74 605.114L442.015 600.654L440.291 605.114L440.727 600.407L437.14 603.848L439.661 599.708L434.832 601.537L439.002 598.679L433.766 598.578L438.864 597.498L434.127 595.484L439.272 596.367L435.851 592.79L440.153 595.484L438.642 590.962L441.357 595.001L442.015 590.315Z" fill="white"/>
<ellipse cx="485.286" cy="594.342" rx="22.3112" ry="20.1223" fill="white"/>
<ellipse cx="485.28" cy="594.339" rx="14.4129" ry="12.9989" fill="black"/>
<path d="M490.46 590.315L491.118 595.001L493.833 590.962L492.322 595.484L496.624 592.79L493.204 596.367L498.348 595.484L493.611 597.498L498.709 598.578L493.473 598.679L497.643 601.537L492.814 599.708L495.335 603.848L491.748 600.407L492.184 605.114L490.46 600.654L488.735 605.114L489.171 600.407L485.584 603.848L488.105 599.708L483.276 601.537L487.447 598.679L482.21 598.578L487.309 597.498L482.571 595.484L487.716 596.367L484.296 592.79L488.597 595.484L487.086 590.962L489.801 595.001L490.46 590.315Z" fill="white"/>
<path d="M395.27 653.746C393.571 641.349 404.259 630.796 416.634 632.655L444.914 636.902C455.115 638.434 465.487 638.451 475.693 636.951L504.645 632.698C517.25 630.846 527.97 641.879 525.756 654.425C524.364 662.32 518.093 668.444 510.141 669.457C496.735 671.165 475.847 673.457 460.3 673.457C444.981 673.457 424.478 671.232 411.054 669.533C402.807 668.489 396.399 661.982 395.27 653.746Z" fill="#FFDD00"/>
<path d="M399.481 654.059C397.889 644.403 406.034 635.933 415.744 637.146L448.013 641.176C456.203 642.199 464.487 642.21 472.679 641.209L505.549 637.193C515.483 635.98 523.66 644.905 521.583 654.695C520.294 660.767 515.313 665.356 509.142 666.025C496.773 667.368 475.755 669.369 460.344 669.369C445.163 669.369 424.543 667.427 412.107 666.086C405.664 665.391 400.535 660.453 399.481 654.059Z" fill="black"/>
<path d="M495.098 659.579L494.34 653.136L493.556 646.476" stroke="#FFA900" stroke-width="5" stroke-linecap="round" stroke-linejoin="round"/>
<path d="M473.792 650.524V657.015V663.724" stroke="#FFA900" stroke-width="5" stroke-linecap="round" stroke-linejoin="round"/>
<path d="M450.26 650.524V657.015V663.724" stroke="#FFA900" stroke-width="5" stroke-linecap="round" stroke-linejoin="round"/>
<path d="M430.164 646.533L429.34 652.967L428.489 659.617" stroke="#FFA900" stroke-width="5" stroke-linecap="round" stroke-linejoin="round"/>
<path d="M412.837 649.54C426.809 655.249 465.657 663.242 509.272 649.54" stroke="#FFA900" stroke-width="5" stroke-linecap="round" stroke-linejoin="round"/>
</g>
<g filter="url(#filter8_g_2005_2461)">
<path d="M684.87 478.938C684.87 463.018 697.681 450.113 713.485 450.113H873.805C889.609 450.113 902.42 463.018 902.42 478.938V606.725C902.42 622.645 889.609 635.55 873.805 635.55H713.485C697.681 635.55 684.87 622.645 684.87 606.725V478.938Z" fill="url(#paint6_radial_2005_2461)"/>
<path d="M785.924 512.262C785.924 526.99 774.071 538.929 759.45 538.929C744.829 538.929 732.977 526.99 732.977 512.262C732.977 497.533 744.829 485.594 759.45 485.594C774.071 485.594 785.924 497.533 785.924 512.262Z" fill="white"/>
<path d="M776.552 512.262C776.552 521.776 768.895 529.489 759.45 529.489C750.005 529.489 742.348 521.776 742.348 512.262C742.348 502.747 750.005 495.034 759.45 495.034C768.895 495.034 776.552 502.747 776.552 512.262Z" fill="black"/>
<path d="M759.45 502.347L762.109 509.584L769.293 512.262L762.109 514.939L759.45 522.176L756.792 514.939L749.608 512.262L756.792 509.584L759.45 502.347Z" fill="white"/>
<path d="M858.699 512.262C858.699 526.99 846.846 538.929 832.225 538.929C817.604 538.929 805.751 526.99 805.751 512.262C805.751 497.533 817.604 485.594 832.225 485.594C846.846 485.594 858.699 497.533 858.699 512.262Z" fill="white"/>
<path d="M849.327 512.262C849.327 521.776 841.67 529.489 832.225 529.489C822.78 529.489 815.123 521.776 815.123 512.262C815.123 502.747 822.78 495.034 832.225 495.034C841.67 495.034 849.327 502.747 849.327 512.262Z" fill="black"/>
<path d="M832.225 502.347L834.883 509.584L842.067 512.262L834.883 514.939L832.225 522.176L829.567 514.939L822.383 512.262L829.567 509.584L832.225 502.347Z" fill="white"/>
<path d="M779.337 567.319C779.921 564.171 782.649 561.889 785.828 561.889H800.817C803.897 561.889 806.569 564.035 807.255 567.06L814.294 598.101C815.239 602.266 812.097 606.235 807.857 606.235H780.068C775.935 606.235 772.818 602.453 773.577 598.361L779.337 567.319Z" fill="white"/>
<path d="M808.702 568.149C808.004 564.902 809.792 561.634 812.889 560.494L828.738 554.661C831.631 553.596 834.871 554.688 836.546 557.292L853.733 584.015C856.039 587.601 854.44 592.414 850.457 593.88L824.004 603.616C820.241 605.001 816.131 602.719 815.284 598.776L808.702 568.149Z" fill="white"/>
<path d="M778.573 568.149C779.271 564.902 777.483 561.634 774.385 560.494L758.537 554.661C755.644 553.596 752.404 554.688 750.729 557.292L733.542 584.015C731.236 587.601 732.835 592.414 736.818 593.88L763.271 603.616C767.034 605.001 771.143 602.719 771.991 598.776L778.573 568.149Z" fill="white"/>
<path d="M684.87 478.938C684.87 463.018 697.681 450.113 713.485 450.113H873.805C889.609 450.113 902.42 463.018 902.42 478.938V606.725C902.42 622.645 889.609 635.55 873.805 635.55H713.485C697.681 635.55 684.87 622.645 684.87 606.725V478.938Z" fill="url(#paint7_radial_2005_2461)"/>
<path d="M785.924 512.262C785.924 526.99 774.071 538.929 759.45 538.929C744.829 538.929 732.977 526.99 732.977 512.262C732.977 497.533 744.829 485.594 759.45 485.594C774.071 485.594 785.924 497.533 785.924 512.262Z" fill="white"/>
<path d="M776.552 512.262C776.552 521.776 768.895 529.489 759.45 529.489C750.005 529.489 742.348 521.776 742.348 512.262C742.348 502.747 750.005 495.034 759.45 495.034C768.895 495.034 776.552 502.747 776.552 512.262Z" fill="black"/>
<path d="M759.45 502.347L762.109 509.584L769.293 512.262L762.109 514.939L759.45 522.176L756.792 514.939L749.608 512.262L756.792 509.584L759.45 502.347Z" fill="white"/>
<path d="M858.681 512.262C858.681 526.99 846.829 538.929 832.208 538.929C817.587 538.929 805.734 526.99 805.734 512.262C805.734 497.533 817.587 485.594 832.208 485.594C846.829 485.594 858.681 497.533 858.681 512.262Z" fill="white"/>
<path d="M849.31 512.262C849.31 521.776 841.653 529.489 832.208 529.489C822.763 529.489 815.106 521.776 815.106 512.262C815.106 502.747 822.763 495.034 832.208 495.034C841.653 495.034 849.31 502.747 849.31 512.262Z" fill="black"/>
<path d="M832.208 502.347L834.866 509.584L842.05 512.262L834.866 514.939L832.208 522.176L829.549 514.939L822.365 512.262L829.549 509.584L832.208 502.347Z" fill="white"/>
<path d="M890.778 557.4C890.778 572.53 878.602 584.795 863.582 584.795C848.562 584.795 836.386 572.53 836.386 557.4C836.386 542.269 848.562 530.004 863.582 530.004C878.602 530.004 890.778 542.269 890.778 557.4Z" fill="#E60000"/>
<path d="M752.297 557.4C752.297 572.53 740.121 584.795 725.101 584.795C710.081 584.795 697.905 572.53 697.905 557.4C697.905 542.269 710.081 530.004 725.101 530.004C740.121 530.004 752.297 542.269 752.297 557.4Z" fill="#E60000"/>
<path d="M796.571 580.142C777.487 581.134 758.998 572.698 751.331 568.91C748.04 567.786 745.969 567.519 747.243 571.691C748.262 575.029 754.004 580.855 756.747 583.351C772.995 596.241 790.446 596.831 796.942 596.241C825.138 593.68 837.451 575.937 839.314 573.081C841.757 569.337 839.896 567.494 836.488 568.693C833.081 569.893 820.425 578.901 796.571 580.142Z" fill="white"/>
<path d="M732.916 558.201C732.916 562.554 729.413 566.082 725.092 566.082C720.771 566.082 717.268 562.554 717.268 558.201C717.268 553.848 720.771 550.319 725.092 550.319C729.413 550.319 732.916 553.848 732.916 558.201Z" fill="black"/>
</g>
<g filter="url(#filter9_g_2005_2461)">
<path d="M1021.73 386.8L1021.34 383.908L1020.94 380.918" stroke="black" stroke-width="5" stroke-linecap="round" stroke-linejoin="round"/>
<path d="M1010.71 382.721V385.635V388.647" stroke="black" stroke-width="5" stroke-linecap="round" stroke-linejoin="round"/>
<path d="M998.532 382.721V385.635V388.647" stroke="black" stroke-width="5" stroke-linecap="round" stroke-linejoin="round"/>
<path d="M988.132 380.923L987.707 383.811L987.268 386.797" stroke="black" stroke-width="5" stroke-linecap="round" stroke-linejoin="round"/>
<path d="M979.171 382.275C986.401 384.847 1006.5 388.448 1029.07 382.275" stroke="black" stroke-width="5" stroke-linecap="round" stroke-linejoin="round"/>
<path d="M1019.94 329.787C1011.3 325.728 1006.42 325.509 1002.52 325.334C991.759 324.711 982.539 329.122 979.273 331.404C973.78 334.411 969.621 339.601 966.993 343.942C964.892 347.414 963.328 350.905 962.251 354.824C961.388 357.967 961.01 361.541 961.01 364.802V396.041C961.01 406.516 964.831 422.929 973.259 416.794C973.892 416.333 974.451 415.827 974.909 415.335C975.734 414.181 976.611 413.444 977.492 413.016C982.208 410.725 985.739 419.617 990.916 418.829C993.105 418.496 995.015 416.776 996.081 415.335C1000.02 410.385 1004.14 413.273 1005.7 415.335C1010.22 422.108 1015.29 418.157 1017.25 415.335C1017.96 414.211 1018.72 413.475 1019.5 413.037C1025.23 409.842 1032.99 421.611 1037.83 417.18C1041.67 413.671 1041.09 408.705 1041.09 403.485C1041.09 403.485 1041.92 372.901 1041.09 363.804C1040.27 354.707 1039.64 355.04 1038.83 351.919C1035.52 341.01 1026.21 332.736 1019.94 329.787Z" fill="#E200B5"/>
<ellipse cx="982.247" cy="362.256" rx="9.979" ry="9.06604" fill="white"/>
<ellipse cx="983.149" cy="363.733" rx="6.44637" ry="5.85661" fill="black"/>
<path d="M984.424 360.362L984.718 362.474L985.933 360.654L985.257 362.691L987.181 361.477L985.651 363.089L987.952 362.691L985.833 363.598L988.113 364.085L985.772 364.131L987.637 365.418L985.477 364.594L986.604 366.46L985 364.909L985.195 367.03L984.424 365.02L983.652 367.03L983.847 364.909L982.243 366.46L983.371 364.594L981.211 365.418L983.076 364.131L980.734 364.085L983.014 363.598L980.895 362.691L983.197 363.089L981.667 361.477L983.591 362.691L982.915 360.654L984.129 362.474L984.424 360.362Z" fill="white"/>
<ellipse cx="1020.94" cy="362.256" rx="9.979" ry="9.06604" fill="white"/>
<ellipse cx="1020.08" cy="363.733" rx="6.44637" ry="5.85661" fill="black"/>
<path d="M1019.48 360.362L1019.78 362.474L1020.99 360.654L1020.31 362.691L1022.24 361.477L1020.71 363.089L1023.01 362.691L1020.89 363.598L1023.17 364.085L1020.83 364.131L1022.69 365.418L1020.53 364.594L1021.66 366.46L1020.06 364.909L1020.25 367.03L1019.48 365.02L1018.71 367.03L1018.91 364.909L1017.3 366.46L1018.43 364.594L1016.27 365.418L1018.13 364.131L1015.79 364.085L1018.07 363.598L1015.95 362.691L1018.25 363.089L1016.72 361.477L1018.65 362.691L1017.97 360.654L1019.19 362.474L1019.48 360.362Z" fill="white"/>
<path d="M971.807 389.019C971.047 383.434 975.867 378.685 981.441 379.528L993.97 381.424C998.559 382.118 1003.23 382.125 1007.82 381.446L1020.65 379.547C1026.32 378.707 1031.16 383.671 1030.17 389.323C1029.55 392.881 1026.72 395.644 1023.14 396.103C1017.14 396.872 1007.83 397.899 1000.89 397.899C994.057 397.899 984.914 396.901 978.909 396.137C975.195 395.663 972.312 392.729 971.807 389.019Z" fill="#0DFF96"/>
<path d="M973.696 389.158C972.984 384.808 976.657 380.997 981.03 381.547L995.367 383.351C999.054 383.814 1002.78 383.819 1006.47 383.366L1021.08 381.568C1025.55 381.018 1029.24 385.032 1028.31 389.442C1027.73 392.18 1025.49 394.251 1022.71 394.555C1017.17 395.16 1007.8 396.057 1000.92 396.057C994.143 396.057 984.945 395.186 979.379 394.582C976.476 394.267 974.168 392.039 973.696 389.158Z" fill="black"/>
<path d="M1016.46 391.646L1016.12 388.754L1015.77 385.764" stroke="#00F7FF" stroke-width="5" stroke-linecap="round" stroke-linejoin="round"/>
<path d="M1006.93 387.567V390.481V393.493" stroke="#00F7FF" stroke-width="5" stroke-linecap="round" stroke-linejoin="round"/>
<path d="M996.405 387.567V390.481V393.493" stroke="#00F7FF" stroke-width="5" stroke-linecap="round" stroke-linejoin="round"/>
<path d="M987.417 385.768L987.05 388.657L986.67 391.643" stroke="#00F7FF" stroke-width="5" stroke-linecap="round" stroke-linejoin="round"/>
<path d="M979.667 387.121C985.916 389.693 1003.29 393.294 1022.8 387.121" stroke="#00F7FF" stroke-width="5" stroke-linecap="round" stroke-linejoin="round"/>
</g>
<g filter="url(#filter10_g_2005_2461)">
<path d="M1144.68 698.26H1109.76C1112.36 693.68 1114.82 686.41 1115.72 677.097C1110.72 654.445 1077.29 632.574 1061.21 624.47C1090.28 624.47 1108.84 643.478 1114.49 652.982C1111.44 636.738 1103.57 617.645 1087.33 597.298C1096.3 602.455 1112.21 617.102 1125.69 642.875C1125.22 641.994 1124.23 634.481 1142.12 627.617C1137.74 634.687 1129.77 650.738 1132.88 658.383C1134.36 661.995 1135.78 665.774 1137.12 669.722C1134.63 661.312 1141.96 636.426 1191.25 604.164C1175.63 617.224 1145.76 654.328 1151.21 698.26H1144.68Z" fill="black"/>
<path d="M1023.97 699.893C1023.97 684.385 1036.45 671.813 1051.84 671.813H1208.02C1223.42 671.813 1235.9 684.385 1235.9 699.893V824.379C1235.9 839.887 1223.42 852.458 1208.02 852.458H1051.84C1036.45 852.458 1023.97 839.887 1023.97 824.379V699.893Z" fill="url(#paint8_radial_2005_2461)"/>
<path d="M1122.41 732.356C1122.41 746.704 1110.86 758.335 1096.62 758.335C1082.38 758.335 1070.83 746.704 1070.83 732.356C1070.83 718.008 1082.38 706.377 1096.62 706.377C1110.86 706.377 1122.41 718.008 1122.41 732.356Z" fill="white"/>
<path d="M1113.28 732.356C1113.28 741.625 1105.82 749.138 1096.62 749.138C1087.42 749.138 1079.96 741.625 1079.96 732.356C1079.96 723.088 1087.42 715.574 1096.62 715.574C1105.82 715.574 1113.28 723.088 1113.28 732.356Z" fill="black"/>
<path d="M1096.62 722.698L1099.21 729.747L1106.21 732.356L1099.21 734.965L1096.62 742.014L1094.03 734.965L1087.03 732.356L1094.03 729.747L1096.62 722.698Z" fill="white"/>
<path d="M1193.3 732.356C1193.3 746.704 1181.76 758.335 1167.51 758.335C1153.27 758.335 1141.73 746.704 1141.73 732.356C1141.73 718.008 1153.27 706.377 1167.51 706.377C1181.76 706.377 1193.3 718.008 1193.3 732.356Z" fill="white"/>
<path d="M1184.17 732.356C1184.17 741.625 1176.72 749.138 1167.51 749.138C1158.31 749.138 1150.86 741.625 1150.86 732.356C1150.86 723.088 1158.31 715.574 1167.51 715.574C1176.72 715.574 1184.17 723.088 1184.17 732.356Z" fill="black"/>
<path d="M1167.51 722.698L1170.1 729.747L1177.1 732.356L1170.1 734.965L1167.51 742.014L1164.93 734.965L1157.93 732.356L1164.93 729.747L1167.51 722.698Z" fill="white"/>
<path d="M1115.99 785.991C1116.56 782.924 1119.22 780.701 1122.32 780.701H1136.92C1139.92 780.701 1142.52 782.791 1143.19 785.738L1150.05 815.978C1150.97 820.035 1147.91 823.901 1143.78 823.901H1116.71C1112.68 823.901 1109.64 820.217 1110.38 816.23L1115.99 785.991Z" fill="white"/>
<path d="M1144.6 786.8C1143.92 783.636 1145.66 780.453 1148.68 779.342L1164.12 773.66C1166.94 772.623 1170.09 773.686 1171.72 776.223L1188.47 802.256C1190.71 805.748 1189.16 810.438 1185.28 811.866L1159.51 821.35C1155.84 822.699 1151.84 820.476 1151.01 816.635L1144.6 786.8Z" fill="white"/>
<path d="M1115.25 786.8C1115.93 783.636 1114.19 780.453 1111.17 779.342L1095.73 773.66C1092.91 772.623 1089.76 773.686 1088.12 776.223L1071.38 802.256C1069.14 805.748 1070.69 810.438 1074.57 811.866L1100.34 821.35C1104.01 822.699 1108.01 820.476 1108.84 816.635L1115.25 786.8Z" fill="white"/>
<path d="M1023.97 699.893C1023.97 684.385 1036.45 671.813 1051.84 671.813H1208.02C1223.42 671.813 1235.9 684.385 1235.9 699.893V824.379C1235.9 839.887 1223.42 852.458 1208.02 852.458H1051.84C1036.45 852.458 1023.97 839.887 1023.97 824.379V699.893Z" fill="url(#paint9_radial_2005_2461)"/>
<path d="M1122.41 732.356C1122.41 746.704 1110.86 758.335 1096.62 758.335C1082.38 758.335 1070.83 746.704 1070.83 732.356C1070.83 718.008 1082.38 706.377 1096.62 706.377C1110.86 706.377 1122.41 718.008 1122.41 732.356Z" fill="white"/>
<path d="M1113.28 732.356C1113.28 741.625 1105.82 749.138 1096.62 749.138C1087.42 749.138 1079.96 741.625 1079.96 732.356C1079.96 723.088 1087.42 715.574 1096.62 715.574C1105.82 715.574 1113.28 723.088 1113.28 732.356Z" fill="black"/>
<path d="M1096.62 722.698L1099.21 729.747L1106.21 732.356L1099.21 734.965L1096.62 742.014L1094.03 734.965L1087.03 732.356L1094.03 729.747L1096.62 722.698Z" fill="white"/>
<path d="M1193.29 732.356C1193.29 746.704 1181.74 758.335 1167.5 758.335C1153.26 758.335 1141.71 746.704 1141.71 732.356C1141.71 718.008 1153.26 706.377 1167.5 706.377C1181.74 706.377 1193.29 718.008 1193.29 732.356Z" fill="white"/>
<path d="M1184.16 732.356C1184.16 741.625 1176.7 749.138 1167.5 749.138C1158.3 749.138 1150.84 741.625 1150.84 732.356C1150.84 723.088 1158.3 715.574 1167.5 715.574C1176.7 715.574 1184.16 723.088 1184.16 732.356Z" fill="black"/>
<path d="M1167.5 722.698L1170.09 729.747L1177.09 732.356L1170.09 734.965L1167.5 742.014L1164.91 734.965L1157.91 732.356L1164.91 729.747L1167.5 722.698Z" fill="white"/>
<path d="M1224.56 776.328C1224.56 791.067 1212.69 803.015 1198.06 803.015C1183.43 803.015 1171.57 791.067 1171.57 776.328C1171.57 761.589 1183.43 749.64 1198.06 749.64C1212.69 749.64 1224.56 761.589 1224.56 776.328Z" fill="#92002C"/>
<path d="M1089.65 776.328C1089.65 791.067 1077.79 803.015 1063.16 803.015C1048.53 803.015 1036.67 791.067 1036.67 776.328C1036.67 761.589 1048.53 749.64 1063.16 749.64C1077.79 749.64 1089.65 761.589 1089.65 776.328Z" fill="#92002C"/>
<path d="M1132.78 798.482C1114.19 799.449 1096.18 791.23 1088.71 787.54C1085.5 786.446 1083.49 786.186 1084.73 790.25C1085.72 793.501 1091.32 799.177 1093.99 801.609C1109.82 814.166 1126.82 814.741 1133.14 814.166C1160.61 811.67 1172.61 794.386 1174.42 791.604C1176.8 787.957 1174.99 786.161 1171.67 787.33C1168.35 788.498 1156.02 797.273 1132.78 798.482Z" fill="white"/>
<path d="M1070.77 777.108C1070.77 781.349 1067.36 784.786 1063.15 784.786C1058.94 784.786 1055.53 781.349 1055.53 777.108C1055.53 772.868 1058.94 769.43 1063.15 769.43C1067.36 769.43 1070.77 772.868 1070.77 777.108Z" fill="black"/>
</g>
<path d="M785.761 391.48C789.903 391.48 793.261 388.122 793.261 383.98C793.261 379.838 789.904 376.48 785.761 376.48L785.761 383.98L785.761 391.48ZM793.903 214.645L748.977 288.684L835.559 290.571L793.903 214.645ZM785.761 383.98L785.761 376.48C786.166 376.48 789.237 376.46 791.46 379.263C793.845 382.273 792.902 385.461 792.72 386.029C792.444 386.893 792.074 387.452 792.047 387.494C791.961 387.628 791.92 387.676 791.987 387.587C792.134 387.395 792.358 387.121 792.806 386.572C793.215 386.072 793.73 385.438 794.307 384.695C796.65 381.685 799.939 376.992 802.862 370.36C808.758 356.979 812.81 336.503 806 307.031L798.692 308.72L791.385 310.408C797.506 336.899 793.655 354.053 789.135 364.311C786.849 369.499 784.302 373.128 782.468 375.485C782.002 376.084 781.577 376.607 781.185 377.088C780.833 377.519 780.396 378.05 780.057 378.495C779.882 378.725 779.642 379.049 779.406 379.419C779.228 379.697 778.755 380.45 778.43 381.469C778.199 382.193 777.259 385.496 779.705 388.582C781.988 391.462 785.177 391.48 785.761 391.48L785.761 383.98ZM798.692 308.72L806 307.031C803.697 297.066 801.561 288.196 799.733 280.417L792.432 282.133L785.131 283.849C786.987 291.745 789.087 300.465 791.385 310.408L798.692 308.72Z" fill="#FFA900"/>
<path fill-rule="evenodd" clip-rule="evenodd" d="M1164.76 179.684C1171.47 171.042 1189.43 159.42 1207.66 182.068H1199.75C1198.68 201.254 1197.4 241.646 1200.83 249.724L1209.15 250.868C1209.08 253.318 1207.57 259.002 1202.12 262.138C1198.45 265.441 1187.03 270.175 1170.77 262.682C1167.31 261.847 1160.07 255.168 1158.77 235.131C1158.09 223.733 1157.13 199.391 1158.77 193.205C1160.42 187.02 1163.45 181.614 1164.76 179.684Z" fill="#FF0004"/>
<path fill-rule="evenodd" clip-rule="evenodd" d="M1199.75 182.068H1207.66C1209.33 175.909 1215.05 160.91 1224.52 150.182C1233.98 139.454 1233.59 129.025 1232.21 125.151C1227.97 108.662 1227.12 78.9613 1257.65 92.0731C1262.78 93.8613 1273.33 102.98 1274.51 125.151C1274.02 132.203 1272.74 147.083 1271.55 150.182C1270.17 150.878 1269.72 152.388 1278.95 152.865C1289.89 153.858 1312.67 156.202 1316.22 157.632C1323.22 158.725 1335.92 166.036 1330.72 186.538C1328.99 187.736 1325.69 189.311 1320.89 190.647C1318.96 190.572 1317.29 191.122 1316.22 191.756L1287.53 192.796C1299.37 193.977 1308.99 193.208 1316.22 191.756C1317.91 191.418 1319.46 191.043 1320.89 190.647C1323.95 190.765 1327.67 192.452 1330.72 197.862C1332.39 201.835 1334.09 211.57 1327.46 218.722C1325.52 219.548 1322.33 220.576 1318.24 221.446C1317.5 221.521 1316.82 221.667 1316.22 221.847C1308.68 223.246 1298.57 224.009 1287.53 222.298C1292.26 223.19 1304.63 224.348 1316.22 221.847C1316.92 221.719 1317.59 221.584 1318.24 221.446C1322.16 221.045 1327.46 222.611 1327.46 231.237C1327.73 234.684 1326.09 242.521 1317.38 246.299C1319.6 247.771 1322.94 252.117 1318.59 257.723C1317.48 260.515 1312.03 266.252 1299.08 266.862C1298.17 266.905 1297.19 266.954 1296.16 267.006L1296.15 267.007C1278.95 267.878 1246.21 269.537 1219.4 255.743C1218.17 255.235 1214.91 253.549 1211.68 250.868H1209.15L1200.83 249.724C1197.4 241.646 1198.68 201.254 1199.75 182.068Z" fill="#FFAD0D"/>
<path d="M1207.66 182.068C1189.43 159.42 1171.47 171.042 1164.76 179.684C1163.45 181.614 1160.42 187.02 1158.77 193.205C1157.13 199.391 1158.09 223.733 1158.77 235.131C1160.07 255.168 1167.31 261.847 1170.77 262.682C1187.03 270.175 1198.45 265.441 1202.12 262.138C1207.57 259.002 1209.08 253.318 1209.15 250.868M1207.66 182.068H1199.75C1198.68 201.254 1197.4 241.646 1200.83 249.724L1209.15 250.868M1207.66 182.068C1209.33 175.909 1215.05 160.91 1224.52 150.182C1233.98 139.454 1233.59 129.025 1232.21 125.151C1227.97 108.662 1227.12 78.9613 1257.65 92.0731C1262.78 93.8613 1273.33 102.98 1274.51 125.151C1274.02 132.203 1272.74 147.083 1271.55 150.182C1270.17 150.878 1269.72 152.388 1278.95 152.865C1289.89 153.858 1312.67 156.202 1316.22 157.632C1323.22 158.725 1335.92 166.036 1330.72 186.538C1328.99 187.736 1325.69 189.311 1320.89 190.647M1209.15 250.868H1211.68C1214.91 253.549 1218.17 255.235 1219.4 255.743C1246.21 269.537 1278.95 267.878 1296.15 267.007L1296.16 267.006C1297.19 266.954 1298.17 266.905 1299.08 266.862C1312.03 266.252 1317.48 260.515 1318.59 257.723C1322.94 252.117 1319.6 247.771 1317.38 246.299M1320.89 190.647C1318.96 190.572 1317.29 191.122 1316.22 191.756M1320.89 190.647C1319.46 191.043 1317.91 191.418 1316.22 191.756M1320.89 190.647C1323.95 190.765 1327.67 192.452 1330.72 197.862C1332.39 201.835 1334.09 211.57 1327.46 218.722C1325.52 219.548 1322.33 220.576 1318.24 221.446M1316.22 191.756L1287.53 192.796C1299.37 193.977 1308.99 193.208 1316.22 191.756ZM1318.24 221.446C1317.5 221.521 1316.82 221.667 1316.22 221.847M1318.24 221.446C1317.59 221.584 1316.92 221.719 1316.22 221.847M1318.24 221.446C1322.16 221.045 1327.46 222.611 1327.46 231.237C1327.73 234.684 1326.09 242.521 1317.38 246.299M1316.22 221.847C1308.68 223.246 1298.57 224.009 1287.53 222.298C1292.26 223.19 1304.63 224.348 1316.22 221.847ZM1317.38 246.299L1285.93 247.517" stroke="black" stroke-width="10"/>
<path d="M1180.33 230.181C1185.26 230.181 1189.33 234.223 1189.33 239.287C1189.33 244.35 1185.26 248.393 1180.33 248.393C1175.39 248.393 1171.32 244.35 1171.32 239.287C1171.32 234.223 1175.39 230.181 1180.33 230.181Z" fill="#FFAD0D" stroke="black" stroke-width="10"/>
<ellipse opacity="0.46" cx="5.85462" cy="9.85094" rx="5.85462" ry="9.85094" transform="matrix(0.776155 -0.630543 0.624981 0.780639 1241.58 100.937)" fill="white"/>
<ellipse opacity="0.46" cx="2.73893" cy="4.60137" rx="2.73893" ry="4.60137" transform="matrix(0.776155 -0.630543 0.624981 0.780639 1174.59 235.562)" fill="white"/>
<g style="mix-blend-mode:overlay">
<path d="M1209.15 185.359H1201.63L1198.16 196.436L1201.63 248.323L1221.31 255.319L1242.14 263.481L1281.5 269.311L1313.91 263.481L1320.27 255.319C1323.94 248.517 1322.24 237.596 1286.13 248.323C1250.01 259.05 1219.76 243.853 1209.15 234.914V185.359Z" fill="black"/>
</g>
<path fill-rule="evenodd" clip-rule="evenodd" d="M448.665 371.557C455.37 380.199 473.337 391.821 491.559 369.173H483.65C482.581 349.987 481.3 309.594 484.731 301.517L493.056 300.372C492.984 297.923 491.477 292.239 486.029 289.103C482.353 285.8 470.937 281.066 454.678 288.559C451.219 289.393 443.976 296.073 442.679 316.11C441.994 327.508 441.036 351.85 442.679 358.035C444.322 364.221 447.354 369.627 448.665 371.557Z" fill="#002FFF"/>
<path fill-rule="evenodd" clip-rule="evenodd" d="M483.65 369.173H491.559C493.236 375.332 498.955 390.331 508.421 401.059C517.888 411.786 517.493 422.216 516.113 426.09C511.873 442.579 511.025 472.28 541.554 459.168C546.681 457.38 557.233 448.261 558.416 426.09C557.923 419.037 556.641 404.158 555.458 401.059C554.077 400.363 553.624 398.853 562.853 398.376C573.799 397.383 596.577 395.039 600.127 393.608C607.128 392.516 619.829 385.205 614.623 364.703C612.896 363.504 609.592 361.93 604.791 360.594C602.861 360.669 601.195 360.119 600.127 359.485L571.432 358.445C583.274 357.264 592.894 358.033 600.127 359.485C601.812 359.823 603.368 360.198 604.791 360.594C607.852 360.476 611.575 358.789 614.623 353.379C616.299 349.406 617.995 339.671 611.369 332.519C609.419 331.693 606.239 330.665 602.146 329.795C601.409 329.719 600.721 329.574 600.127 329.393C592.582 327.994 582.473 327.232 571.432 328.943C576.165 328.051 588.531 326.893 600.127 329.393C600.822 329.522 601.496 329.657 602.146 329.795C606.061 330.196 611.369 328.63 611.369 320.003C611.635 316.557 609.992 308.719 601.282 304.942C603.5 303.47 606.847 299.123 602.492 293.518C601.383 290.726 595.929 284.988 582.986 284.379C582.072 284.336 581.098 284.287 580.069 284.235L580.058 284.234C562.853 283.363 530.116 281.704 503.299 295.498C502.072 296.006 498.81 297.692 495.588 300.372H493.056L484.731 301.517C481.3 309.594 482.581 349.987 483.65 369.173Z" fill="#E60000"/>
<path d="M491.559 369.173C473.337 391.821 455.37 380.199 448.665 371.557C447.354 369.627 444.322 364.221 442.679 358.035C441.036 351.85 441.994 327.508 442.679 316.11C443.976 296.073 451.219 289.393 454.678 288.559C470.937 281.066 482.353 285.8 486.029 289.103C491.477 292.239 492.984 297.923 493.056 300.372M491.559 369.173H483.65C482.581 349.987 481.3 309.594 484.731 301.517L493.056 300.372M491.559 369.173C493.236 375.332 498.955 390.331 508.421 401.059C517.888 411.786 517.493 422.216 516.113 426.09C511.873 442.579 511.025 472.28 541.554 459.168C546.681 457.38 557.233 448.261 558.416 426.09C557.923 419.037 556.641 404.158 555.458 401.059C554.077 400.363 553.624 398.853 562.853 398.376C573.799 397.383 596.577 395.039 600.127 393.608C607.128 392.516 619.829 385.205 614.623 364.703C612.896 363.504 609.592 361.93 604.791 360.594M493.056 300.372H495.588C498.81 297.692 502.072 296.006 503.299 295.498C530.116 281.704 562.853 283.363 580.058 284.234L580.069 284.235C581.098 284.287 582.072 284.336 582.986 284.379C595.929 284.988 601.383 290.726 602.492 293.518C606.847 299.123 603.5 303.47 601.282 304.942M604.791 360.594C602.861 360.669 601.195 360.119 600.127 359.485M604.791 360.594C603.368 360.198 601.812 359.823 600.127 359.485M604.791 360.594C607.852 360.476 611.575 358.789 614.623 353.379C616.299 349.406 617.995 339.671 611.369 332.519C609.419 331.693 606.239 330.665 602.146 329.795M600.127 359.485L571.432 358.445C583.274 357.264 592.894 358.033 600.127 359.485ZM602.146 329.795C601.409 329.719 600.721 329.574 600.127 329.393M602.146 329.795C601.496 329.657 600.822 329.522 600.127 329.393M602.146 329.795C606.061 330.196 611.369 328.63 611.369 320.003C611.635 316.557 609.992 308.719 601.282 304.942M600.127 329.393C592.582 327.994 582.473 327.232 571.432 328.943C576.165 328.051 588.531 326.893 600.127 329.393ZM601.282 304.942L569.831 303.723" stroke="black" stroke-width="10"/>
<path d="M464.229 321.06C469.166 321.06 473.231 317.017 473.231 311.954C473.231 306.89 469.166 302.848 464.229 302.848C459.291 302.848 455.226 306.891 455.226 311.954C455.226 317.017 459.291 321.059 464.229 321.06Z" fill="#E60000" stroke="black" stroke-width="10"/>
<ellipse opacity="0.46" cx="5.85462" cy="9.85094" rx="5.85462" ry="9.85094" transform="matrix(0.776155 0.630543 0.624981 -0.780639 525.487 450.304)" fill="white"/>
<ellipse opacity="0.46" cx="2.73893" cy="4.60137" rx="2.73893" ry="4.60137" transform="matrix(0.776155 0.630543 0.624981 -0.780639 458.491 315.679)" fill="white"/>
<g style="mix-blend-mode:overlay">
<path d="M493.059 365.882H485.535L482.062 354.805L485.535 302.918L505.213 295.922L526.048 287.76L565.403 281.93L597.814 287.76L604.18 295.922C607.845 302.724 606.148 313.645 570.033 302.918C533.919 292.191 503.669 307.388 493.059 316.327V365.882Z" fill="black"/>
</g>
<path d="M181.632 871.949C178.272 872.106 175.271 872.011 172.768 871.745L167.386 849.233L157.525 807.986C150.825 807.67 149.985 805.613 144.303 802.015C138.511 798.348 130.169 782.29 126.721 774.72C126.556 771.886 120.171 760.899 117 755.76C112.863 751.093 97.6258 728.812 90.5243 718.255C86.8839 697.752 98.3842 699.85 104.589 703.462L133.826 739.145C133.829 739.139 133.832 739.134 133.835 739.129L100.66 678.459C97.9706 664.915 104.589 664.915 105.831 663.665C112.78 660.831 117.827 666.096 119.482 669.082L148.531 722.966L122.998 649.497C121.344 639.996 126.17 635.954 128.79 635.12C136.898 630.62 142.648 638.523 144.51 643.038L169.951 712.562L159.402 646.163C164.366 630.328 175.26 635.954 180.086 640.746L194.565 708.254L196.013 715.963C196.358 712.977 197.461 704.545 199.116 694.711C200.771 684.876 211.113 676.723 216.077 673.875C232.293 668.708 232.624 678.806 230.762 684.501C228.28 688.043 222.902 710.129 222.489 715.963C222.158 720.63 224.144 736.521 225.178 743.883C226.998 759.385 220.601 776.501 217.175 783.121L236.366 814.33L247.059 831.717C234.179 854.98 213.951 865.593 196.782 869.746C192.008 870.97 186.953 871.748 181.632 871.949Z" fill="#FFAD0D"/>
<path d="M172.768 871.745C189.181 873.486 227.017 867.916 247.059 831.717M172.768 871.745L167.386 849.233M172.768 871.745C211.953 874.993 238.622 846.413 247.059 831.717M247.059 831.717L236.366 814.33M217.175 783.121L210.285 788.889M217.175 783.121C220.601 776.501 226.998 759.385 225.178 743.883C224.144 736.521 222.158 720.63 222.489 715.963C222.902 710.129 228.28 688.043 230.762 684.501C232.624 678.806 232.293 668.708 216.077 673.875C211.113 676.723 200.771 684.876 199.116 694.711C197.461 704.545 196.358 712.977 196.013 715.963M217.175 783.121L236.366 814.33M196.013 715.963C187.257 721.728 169.786 737.758 169.951 755.76C169.813 748.398 174.833 730.131 196.013 715.963ZM196.013 715.963L194.565 708.254M194.565 708.254C176.432 709.018 138.222 718.047 130.445 748.051C131.668 741.59 136.863 731.438 148.531 722.966M194.565 708.254L180.086 640.746C175.26 635.954 164.366 630.328 159.402 646.163L169.951 712.562M194.565 708.254C185.148 708.871 176.99 710.406 169.951 712.562M169.951 712.562L144.51 643.038C142.648 638.523 136.898 630.62 128.79 635.12C126.17 635.954 121.344 639.996 122.998 649.497L148.531 722.966M169.951 712.562C161.153 715.257 154.103 718.92 148.531 722.966M148.531 722.966L119.482 669.082C117.827 666.096 112.78 660.831 105.831 663.665C104.589 664.915 97.9706 664.915 100.66 678.459L133.879 739.209L104.589 703.462C98.3842 699.85 86.8839 697.752 90.5243 718.255C97.6258 728.812 112.863 751.093 117 755.76C120.171 760.899 126.556 771.886 126.721 774.72C130.169 782.29 138.511 798.348 144.303 802.015C149.985 805.613 150.825 807.67 157.525 807.986M157.525 807.986C159.361 808.073 161.637 808.028 164.573 807.849L157.525 807.986ZM157.525 807.986L167.386 849.233M167.386 849.233C183.69 844.591 220.312 831.111 236.366 814.33" stroke="black" stroke-width="8" stroke-linecap="round" stroke-linejoin="round"/>
<g style="mix-blend-mode:soft-light">
<path d="M219.187 786.702L245.277 828.199C246.555 830.232 246.525 832.825 245.199 834.827C242.509 838.892 236.377 838.329 234.473 833.842L219.363 798.237C214.495 786.765 218.332 772.068 218.741 759.612C219.218 745.105 213.806 728.687 214.291 727.546C214.817 726.311 220.646 698.206 224.524 679.298C225.118 676.401 228.787 675.462 230.703 677.714C231.483 678.63 231.745 679.879 231.4 681.031L227.973 692.464L226.331 699.835C223.792 711.226 223.005 722.938 223.996 734.567L225.356 750.51C225.77 755.365 225.201 760.253 223.683 764.884L218.005 782.208C217.553 783.585 217.859 785.099 218.809 786.193C218.948 786.353 219.074 786.523 219.187 786.702Z" fill="white"/>
</g>
<ellipse opacity="0.46" cx="3.49135" cy="5.86543" rx="3.49135" ry="5.86543" transform="matrix(0.727429 0.686183 -0.680859 0.732415 216.008 678.988)" fill="white"/>
<path d="M300.468 685.655C309.706 696.078 320.976 724.852 292.153 756.567" stroke="#FFAD0D" stroke-width="8" stroke-linecap="round"/>
<path d="M274.937 701.848C278.865 706.28 283.657 718.514 271.401 731.999" stroke="#FFAD0D" stroke-width="8" stroke-linecap="round"/>
<path d="M39.5825 620.776C26.7784 626.149 4.26353 647.184 16.6371 688.335" stroke="#FFAD0D" stroke-width="8" stroke-linecap="round"/>
<path d="M55.6324 646.489C50.1645 648.769 40.5585 657.716 45.8776 675.261" stroke="#FFAD0D" stroke-width="8" stroke-linecap="round"/>
<path d="M352 255.588C348.64 255.745 345.639 255.65 343.136 255.385L337.754 232.873L327.893 191.626C321.193 191.31 320.353 189.252 314.671 185.654C308.88 181.987 300.537 165.93 297.09 158.36C296.924 155.526 290.54 144.539 287.368 139.399C283.231 134.732 267.994 112.452 260.892 101.894C257.252 81.3918 268.752 83.4894 274.958 87.101L304.194 122.784C304.197 122.779 304.2 122.773 304.203 122.768L271.028 62.0981C268.339 48.5548 274.958 48.5548 276.199 47.3046C283.149 44.471 288.195 49.7355 289.85 52.722L318.899 106.605L293.367 33.1363C291.712 23.6352 296.538 19.5931 299.158 18.7597C307.266 14.259 313.016 22.1628 314.878 26.6773L340.319 96.2014L329.77 29.8027C334.735 13.9675 345.628 19.5933 350.455 24.3856L364.933 91.8936L366.381 99.6026C366.726 96.6162 367.829 88.1848 369.484 78.3503C371.139 68.5158 381.481 60.362 386.445 57.5145C402.661 52.3472 402.992 62.4456 401.131 68.1407C398.648 71.6828 393.271 93.7686 392.857 99.6026C392.526 104.27 394.512 120.161 395.546 127.523C397.366 143.025 390.969 160.14 387.543 166.761L406.734 197.969L417.427 215.356C404.548 238.619 384.319 249.233 367.151 253.386C362.376 254.609 357.321 255.388 352 255.588Z" fill="url(#paint10_radial_2005_2461)"/>
<path d="M343.136 255.385C359.549 257.125 397.385 251.556 417.427 215.356M343.136 255.385L337.754 232.873M343.136 255.385C382.321 258.632 408.99 230.052 417.427 215.356M417.427 215.356L406.734 197.969M387.543 166.761L380.653 172.528M387.543 166.761C390.969 160.14 397.366 143.025 395.546 127.523C394.512 120.161 392.526 104.27 392.857 99.6026C393.271 93.7686 398.649 71.6828 401.131 68.1407C402.992 62.4456 402.661 52.3472 386.445 57.5145C381.481 60.362 371.139 68.5158 369.484 78.3503C367.829 88.1848 366.726 96.6162 366.381 99.6026M387.543 166.761L406.734 197.969M366.381 99.6026C357.625 105.367 340.154 121.397 340.319 139.399C340.182 132.037 345.201 113.771 366.381 99.6026ZM366.381 99.6026L364.933 91.8936M364.933 91.8936C346.8 92.6576 308.59 101.686 300.813 131.69C302.036 125.229 307.231 115.077 318.899 106.605M364.933 91.8936L350.455 24.3856C345.628 19.5933 334.735 13.9675 329.77 29.8027L340.319 96.2014M364.933 91.8936C355.516 92.51 347.358 94.0459 340.319 96.2014M340.319 96.2014L314.878 26.6773C313.016 22.1628 307.266 14.259 299.158 18.7597C296.538 19.5931 291.712 23.6352 293.367 33.1363L318.899 106.605M340.319 96.2014C331.521 98.896 324.471 102.559 318.899 106.605M318.899 106.605L289.85 52.722C288.195 49.7355 283.149 44.471 276.199 47.3046C274.958 48.5548 268.339 48.5548 271.028 62.0981L304.247 122.849L274.958 87.101C268.752 83.4894 257.252 81.3918 260.892 101.894C267.994 112.452 283.231 134.732 287.368 139.399C290.54 144.539 296.924 155.526 297.09 158.36C300.537 165.93 308.88 181.987 314.671 185.654C320.353 189.252 321.193 191.31 327.893 191.626M327.893 191.626C329.729 191.712 332.005 191.668 334.941 191.488L327.893 191.626ZM327.893 191.626L337.754 232.873M337.754 232.873C354.058 228.23 390.68 214.751 406.734 197.969" stroke="black" stroke-width="8" stroke-linecap="round" stroke-linejoin="round"/>
<g style="mix-blend-mode:soft-light">
<path d="M389.544 170.342L415.634 211.838C416.912 213.871 416.882 216.464 415.557 218.467C412.867 222.532 406.734 221.968 404.83 217.481L389.721 181.876C384.852 170.404 388.69 155.707 389.099 143.252C389.576 128.745 384.163 112.326 384.649 111.185C385.174 109.95 391.004 81.8458 394.881 62.9372C395.476 60.0403 399.144 59.1012 401.061 61.3535C401.84 62.2696 402.102 63.5182 401.757 64.6704L398.331 76.1037L396.688 83.4739C394.15 94.8654 393.362 106.577 394.354 118.206L395.713 134.149C396.127 139.004 395.558 143.893 394.041 148.523L388.362 165.847C387.91 167.225 388.216 168.738 389.167 169.833C389.305 169.992 389.432 170.162 389.544 170.342Z" fill="white"/>
</g>
<ellipse opacity="0.46" cx="3.49135" cy="5.86543" rx="3.49135" ry="5.86543" transform="matrix(0.727429 0.686183 -0.680859 0.732415 386.37 62.6274)" fill="white"/>
<path d="M470.833 69.2953C480.071 79.718 491.342 108.492 462.519 140.206" stroke="url(#paint11_radial_2005_2461)" stroke-width="8" stroke-linecap="round"/>
<path d="M445.299 85.4878C449.227 89.9194 454.019 102.154 441.764 115.639" stroke="url(#paint12_radial_2005_2461)" stroke-width="8" stroke-linecap="round"/>
<path d="M209.969 4.41591C197.165 9.78931 174.65 30.824 187.024 71.9755" stroke="url(#paint13_radial_2005_2461)" stroke-width="8" stroke-linecap="round"/>
<path d="M226.016 30.1295C220.548 32.4095 210.942 41.3559 216.261 58.9015" stroke="url(#paint14_radial_2005_2461)" stroke-width="8" stroke-linecap="round"/>
<defs>
<filter id="filter0_g_2005_2461" x="42.075" y="182.683" width="269.179" height="207.368" filterUnits="userSpaceOnUse" color-interpolation-filters="sRGB">
<feFlood flood-opacity="0" result="BackgroundImageFix"/>
<feBlend mode="normal" in="SourceGraphic" in2="BackgroundImageFix" result="shape"/>
<feTurbulence type="fractalNoise" baseFrequency="0.40000000596046448 0.40000000596046448" numOctaves="3" seed="4640" />
<feDisplacementMap in="shape" scale="3.5999999046325684" xChannelSelector="R" yChannelSelector="G" result="displacedImage" width="100%" height="100%" />
<feMerge result="effect1_texture_2005_2461">
<feMergeNode in="displacedImage"/>
</feMerge>
</filter>
<filter id="filter1_g_2005_2461" x="542.621" y="68.5747" width="161.412" height="185.299" filterUnits="userSpaceOnUse" color-interpolation-filters="sRGB">
<feFlood flood-opacity="0" result="BackgroundImageFix"/>
<feBlend mode="normal" in="SourceGraphic" in2="BackgroundImageFix" result="shape"/>
<feTurbulence type="fractalNoise" baseFrequency="0.40000000596046448 0.40000000596046448" numOctaves="3" seed="4640" />
<feDisplacementMap in="shape" scale="3.5999999046325684" xChannelSelector="R" yChannelSelector="G" result="displacedImage" width="100%" height="100%" />
<feMerge result="effect1_texture_2005_2461">
<feMergeNode in="displacedImage"/>
</feMerge>
</filter>
<filter id="filter2_n_2005_2461" x="544.421" y="70.3747" width="156.983" height="181.699" filterUnits="userSpaceOnUse" color-interpolation-filters="sRGB">
<feFlood flood-opacity="0" result="BackgroundImageFix"/>
<feBlend mode="normal" in="SourceGraphic" in2="BackgroundImageFix" result="shape"/>
<feTurbulence type="fractalNoise" baseFrequency="0.38461539149284363 0.38461539149284363" stitchTiles="stitch" numOctaves="3" result="noise" seed="1179" />
<feColorMatrix in="noise" type="luminanceToAlpha" result="alphaNoise" />
<feComponentTransfer in="alphaNoise" result="coloredNoise1">
<feFuncA type="discrete" tableValues="0 0 0 0 0 0 0 0 0 0 0 0 0 0 0 1 1 1 1 1 1 1 1 1 1 1 1 1 1 1 1 1 1 1 1 0 0 0 0 0 0 0 0 0 0 0 0 0 0 0 0 0 0 0 0 0 0 0 0 0 0 0 0 0 0 0 0 0 0 0 0 0 0 0 0 0 0 0 0 0 0 0 0 0 0 0 0 0 0 0 0 0 0 0 0 0 0 0 0 0 "/>
</feComponentTransfer>
<feComposite operator="in" in2="shape" in="coloredNoise1" result="noise1Clipped" />
<feComponentTransfer in="alphaNoise" result="coloredNoise2">
<feFuncA type="discrete" tableValues="0 0 0 0 0 0 0 0 0 0 0 0 0 0 0 0 0 0 0 0 0 0 0 0 0 0 0 0 0 0 0 0 0 0 0 0 0 0 0 0 0 0 0 0 0 0 0 0 0 0 0 0 0 0 0 0 0 0 0 0 0 0 0 0 0 1 1 1 1 1 1 1 1 1 1 1 1 1 1 1 1 1 1 1 1 0 0 0 0 0 0 0 0 0 0 0 0 0 0 0 "/>
</feComponentTransfer>
<feComposite operator="in" in2="shape" in="coloredNoise2" result="noise2Clipped" />
<feFlood flood-color="rgba(0, 0, 0, 0.25)" result="color1Flood" />
<feComposite operator="in" in2="noise1Clipped" in="color1Flood" result="color1" />
<feFlood flood-color="#00E4D5" result="color2Flood" />
<feComposite operator="in" in2="noise2Clipped" in="color2Flood" result="color2" />
<feMerge result="effect1_noise_2005_2461">
<feMergeNode in="shape" />
<feMergeNode in="color1" />
<feMergeNode in="color2" />
</feMerge>
</filter>
<filter id="filter3_g_2005_2461" x="913.351" y="13.4499" width="175.773" height="140.499" filterUnits="userSpaceOnUse" color-interpolation-filters="sRGB">
<feFlood flood-opacity="0" result="BackgroundImageFix"/>
<feBlend mode="normal" in="SourceGraphic" in2="BackgroundImageFix" result="shape"/>
<feTurbulence type="fractalNoise" baseFrequency="0.40000000596046448 0.40000000596046448" numOctaves="3" seed="4640" />
<feDisplacementMap in="shape" scale="3.5999999046325684" xChannelSelector="R" yChannelSelector="G" result="displacedImage" width="100%" height="100%" />
<feMerge result="effect1_texture_2005_2461">
<feMergeNode in="displacedImage"/>
</feMerge>
</filter>
<filter id="filter4_g_2005_2461" x="913.351" y="13.4499" width="175.773" height="140.499" filterUnits="userSpaceOnUse" color-interpolation-filters="sRGB">
<feFlood flood-opacity="0" result="BackgroundImageFix"/>
<feBlend mode="normal" in="SourceGraphic" in2="BackgroundImageFix" result="shape"/>
<feTurbulence type="fractalNoise" baseFrequency="0.40000000596046448 0.40000000596046448" numOctaves="3" seed="4640" />
<feDisplacementMap in="shape" scale="3.5999999046325684" xChannelSelector="R" yChannelSelector="G" result="displacedImage" width="100%" height="100%" />
<feMerge result="effect1_texture_2005_2461">
<feMergeNode in="displacedImage"/>
</feMerge>
</filter>
<filter id="filter5_g_2005_2461" x="1140.54" y="351.39" width="271.278" height="196.711" filterUnits="userSpaceOnUse" color-interpolation-filters="sRGB">
<feFlood flood-opacity="0" result="BackgroundImageFix"/>
<feBlend mode="normal" in="SourceGraphic" in2="BackgroundImageFix" result="shape"/>
<feTurbulence type="fractalNoise" baseFrequency="0.40000000596046448 0.40000000596046448" numOctaves="3" seed="4640" />
<feDisplacementMap in="shape" scale="3.5999999046325684" xChannelSelector="R" yChannelSelector="G" result="displacedImage" width="100%" height="100%" />
<feMerge result="effect1_texture_2005_2461">
<feMergeNode in="displacedImage"/>
</feMerge>
</filter>
<filter id="filter6_g_2005_2461" x="369.313" y="510.461" width="183.479" height="211.798" filterUnits="userSpaceOnUse" color-interpolation-filters="sRGB">
<feFlood flood-opacity="0" result="BackgroundImageFix"/>
<feBlend mode="normal" in="SourceGraphic" in2="BackgroundImageFix" result="shape"/>
<feTurbulence type="fractalNoise" baseFrequency="0.40000000596046448 0.40000000596046448" numOctaves="3" seed="4640" />
<feDisplacementMap in="shape" scale="3.5999999046325684" xChannelSelector="R" yChannelSelector="G" result="displacedImage" width="100%" height="100%" />
<feMerge result="effect1_texture_2005_2461">
<feMergeNode in="displacedImage"/>
</feMerge>
</filter>
<filter id="filter7_n_2005_2461" x="371.113" y="512.261" width="179.879" height="208.198" filterUnits="userSpaceOnUse" color-interpolation-filters="sRGB">
<feFlood flood-opacity="0" result="BackgroundImageFix"/>
<feBlend mode="normal" in="SourceGraphic" in2="BackgroundImageFix" result="shape"/>
<feTurbulence type="fractalNoise" baseFrequency="0.38461539149284363 0.38461539149284363" stitchTiles="stitch" numOctaves="3" result="noise" seed="1179" />
<feColorMatrix in="noise" type="luminanceToAlpha" result="alphaNoise" />
<feComponentTransfer in="alphaNoise" result="coloredNoise1">
<feFuncA type="discrete" tableValues="0 0 0 0 0 0 0 0 0 0 0 0 0 0 0 1 1 1 1 1 1 1 1 1 1 1 1 1 1 1 1 1 1 1 1 0 0 0 0 0 0 0 0 0 0 0 0 0 0 0 0 0 0 0 0 0 0 0 0 0 0 0 0 0 0 0 0 0 0 0 0 0 0 0 0 0 0 0 0 0 0 0 0 0 0 0 0 0 0 0 0 0 0 0 0 0 0 0 0 0 "/>
</feComponentTransfer>
<feComposite operator="in" in2="shape" in="coloredNoise1" result="noise1Clipped" />
<feComponentTransfer in="alphaNoise" result="coloredNoise2">
<feFuncA type="discrete" tableValues="0 0 0 0 0 0 0 0 0 0 0 0 0 0 0 0 0 0 0 0 0 0 0 0 0 0 0 0 0 0 0 0 0 0 0 0 0 0 0 0 0 0 0 0 0 0 0 0 0 0 0 0 0 0 0 0 0 0 0 0 0 0 0 0 0 1 1 1 1 1 1 1 1 1 1 1 1 1 1 1 1 1 1 1 1 0 0 0 0 0 0 0 0 0 0 0 0 0 0 0 "/>
</feComponentTransfer>
<feComposite operator="in" in2="shape" in="coloredNoise2" result="noise2Clipped" />
<feFlood flood-color="rgba(0, 0, 0, 0.25)" result="color1Flood" />
<feComposite operator="in" in2="noise1Clipped" in="color1Flood" result="color1" />
<feFlood flood-color="rgba(0, 119, 255, 0.45)" result="color2Flood" />
<feComposite operator="in" in2="noise2Clipped" in="color2Flood" result="color2" />
<feMerge result="effect1_noise_2005_2461">
<feMergeNode in="shape" />
<feMergeNode in="color1" />
<feMergeNode in="color2" />
</feMerge>
</filter>
<filter id="filter8_g_2005_2461" x="683.07" y="448.313" width="221.15" height="189.037" filterUnits="userSpaceOnUse" color-interpolation-filters="sRGB">
<feFlood flood-opacity="0" result="BackgroundImageFix"/>
<feBlend mode="normal" in="SourceGraphic" in2="BackgroundImageFix" result="shape"/>
<feTurbulence type="fractalNoise" baseFrequency="0.40000000596046448 0.40000000596046448" numOctaves="3" seed="4640" />
<feDisplacementMap in="shape" scale="3.5999999046325684" xChannelSelector="R" yChannelSelector="G" result="displacedImage" width="100%" height="100%" />
<feMerge result="effect1_texture_2005_2461">
<feMergeNode in="displacedImage"/>
</feMerge>
</filter>
<filter id="filter9_g_2005_2461" x="959.21" y="323.475" width="84.0512" height="97.4" filterUnits="userSpaceOnUse" color-interpolation-filters="sRGB">
<feFlood flood-opacity="0" result="BackgroundImageFix"/>
<feBlend mode="normal" in="SourceGraphic" in2="BackgroundImageFix" result="shape"/>
<feTurbulence type="fractalNoise" baseFrequency="0.40000000596046448 0.40000000596046448" numOctaves="3" seed="4640" />
<feDisplacementMap in="shape" scale="3.5999999046325684" xChannelSelector="R" yChannelSelector="G" result="displacedImage" width="100%" height="100%" />
<feMerge result="effect1_texture_2005_2461">
<feMergeNode in="displacedImage"/>
</feMerge>
</filter>
<filter id="filter10_g_2005_2461" x="1022.17" y="595.498" width="215.529" height="258.76" filterUnits="userSpaceOnUse" color-interpolation-filters="sRGB">
<feFlood flood-opacity="0" result="BackgroundImageFix"/>
<feBlend mode="normal" in="SourceGraphic" in2="BackgroundImageFix" result="shape"/>
<feTurbulence type="fractalNoise" baseFrequency="0.40000000596046448 0.40000000596046448" numOctaves="3" seed="4640" />
<feDisplacementMap in="shape" scale="3.5999999046325684" xChannelSelector="R" yChannelSelector="G" result="displacedImage" width="100%" height="100%" />
<feMerge result="effect1_texture_2005_2461">
<feMergeNode in="displacedImage"/>
</feMerge>
</filter>
<linearGradient id="paint0_linear_2005_2461" x1="176.664" y1="184.483" x2="176.664" y2="388.251" gradientUnits="userSpaceOnUse">
<stop stop-color="#FF9D00"/>
<stop offset="0.403904" stop-color="#FF9D00"/>
<stop offset="0.663527" stop-color="#855200"/>
<stop offset="0.831802" stop-color="#FF9D00"/>
<stop offset="1" stop-color="#995E00"/>
</linearGradient>
<linearGradient id="paint1_linear_2005_2461" x1="176.664" y1="184.483" x2="176.664" y2="388.251" gradientUnits="userSpaceOnUse">
<stop stop-color="white"/>
<stop offset="0.29" stop-color="white" stop-opacity="0.88"/>
<stop offset="0.567371" stop-color="#D2D2D2"/>
<stop offset="0.807762" stop-color="white"/>
<stop offset="1" stop-color="#999999"/>
</linearGradient>
<linearGradient id="paint2_linear_2005_2461" x1="176.664" y1="184.483" x2="176.664" y2="388.251" gradientUnits="userSpaceOnUse">
<stop stop-color="#FF9D00"/>
<stop offset="0.403904" stop-color="#FF9D00"/>
<stop offset="0.663527" stop-color="#855200"/>
<stop offset="0.831802" stop-color="#FF9D00"/>
<stop offset="1" stop-color="#995E00"/>
</linearGradient>
<linearGradient id="paint3_linear_2005_2461" x1="176.664" y1="184.483" x2="176.664" y2="388.251" gradientUnits="userSpaceOnUse">
<stop stop-color="white"/>
<stop offset="0.29" stop-color="white" stop-opacity="0.88"/>
<stop offset="0.567371" stop-color="#D2D2D2"/>
<stop offset="0.807762" stop-color="white"/>
<stop offset="1" stop-color="#999999"/>
</linearGradient>
<linearGradient id="paint4_linear_2005_2461" x1="695.194" y1="129.029" x2="553.383" y2="179.08" gradientUnits="userSpaceOnUse">
<stop offset="0.0129134" stop-color="#002FFF"/>
<stop offset="1" stop-color="#0D0049"/>
</linearGradient>
<linearGradient id="paint5_linear_2005_2461" x1="534.524" y1="560.284" x2="332.007" y2="704.468" gradientUnits="userSpaceOnUse">
<stop offset="0.219643" stop-color="#FF0004"/>
<stop offset="0.849543" stop-color="#770002"/>
</linearGradient>
<radialGradient id="paint6_radial_2005_2461" cx="0" cy="0" r="1" gradientUnits="userSpaceOnUse" gradientTransform="translate(793.645 542.831) rotate(90) scale(92.7183 108.775)">
<stop offset="0.596218" stop-color="#FF64AF"/>
<stop offset="1" stop-color="#FF007B"/>
</radialGradient>
<radialGradient id="paint7_radial_2005_2461" cx="0" cy="0" r="1" gradientUnits="userSpaceOnUse" gradientTransform="translate(793.645 542.831) rotate(90) scale(92.7183 108.775)">
<stop offset="0.596218" stop-color="#FF64AF"/>
<stop offset="1" stop-color="#FF007B"/>
</radialGradient>
<radialGradient id="paint8_radial_2005_2461" cx="0" cy="0" r="1" gradientUnits="userSpaceOnUse" gradientTransform="translate(1129.93 724.878) rotate(90) scale(127.58 105.964)">
<stop stop-color="#FFD255"/>
<stop offset="1" stop-color="#D19900"/>
</radialGradient>
<radialGradient id="paint9_radial_2005_2461" cx="0" cy="0" r="1" gradientUnits="userSpaceOnUse" gradientTransform="translate(1129.93 763.45) rotate(90) scale(97.9361 81.3429)">
<stop offset="0.29716" stop-color="#FFC800"/>
<stop offset="1" stop-color="#FF8000"/>
</radialGradient>
<radialGradient id="paint10_radial_2005_2461" cx="0" cy="0" r="1" gradientTransform="matrix(176.718 221.91 -146.451 65.6314 246.414 37.7076)" gradientUnits="userSpaceOnUse">
<stop offset="0.376913" stop-color="#E0006D"/>
<stop offset="1" stop-color="#E200B5"/>
</radialGradient>
<radialGradient id="paint11_radial_2005_2461" cx="0" cy="0" r="1" gradientTransform="matrix(20.738 66.0492 -17.1862 19.5345 460.901 75.3339)" gradientUnits="userSpaceOnUse">
<stop offset="0.376913" stop-color="#E0006D"/>
<stop offset="1" stop-color="#E200B5"/>
</radialGradient>
<radialGradient id="paint12_radial_2005_2461" cx="0" cy="0" r="1" gradientTransform="matrix(8.81766 28.0836 -7.30743 8.30593 441.076 88.0554)" gradientUnits="userSpaceOnUse">
<stop offset="0.376913" stop-color="#E0006D"/>
<stop offset="1" stop-color="#E200B5"/>
</radialGradient>
<radialGradient id="paint13_radial_2005_2461" cx="0" cy="0" r="1" gradientTransform="matrix(-47.0534 50.52 7.10997 25.1001 216.332 14.1871)" gradientUnits="userSpaceOnUse">
<stop offset="0.376913" stop-color="#E0006D"/>
<stop offset="1" stop-color="#E200B5"/>
</radialGradient>
<radialGradient id="paint14_radial_2005_2461" cx="0" cy="0" r="1" gradientTransform="matrix(-20.0705 21.4923 3.05747 10.7015 228.743 34.2982)" gradientUnits="userSpaceOnUse">
<stop offset="0.376913" stop-color="#E0006D"/>
<stop offset="1" stop-color="#E200B5"/>
</radialGradient>
</defs>
</svg>
